<mxfile host="app.diagrams.net" modified="2022-09-17T23:55:26.198Z" agent="5.0 (Windows NT 10.0; Win64; x64) AppleWebKit/537.36 (KHTML, like Gecko) Chrome/105.0.0.0 Safari/537.36 Edg/105.0.1343.42" etag="SxG9cMcxOmeWvuCPwCos" version="20.3.1" type="github" pages="8">
  <diagram id="yNo7ndkvLWWkETl5iSeE" name="第 1 页">
    <mxGraphModel dx="1864" dy="547" grid="1" gridSize="10" guides="1" tooltips="1" connect="1" arrows="1" fold="1" page="1" pageScale="1" pageWidth="827" pageHeight="1169" background="#EEEEEE" math="0" shadow="0">
      <root>
        <mxCell id="0" />
        <mxCell id="1" parent="0" />
        <mxCell id="-ahb912PN4MzLgRkgIMQ-28" style="edgeStyle=none;rounded=0;orthogonalLoop=1;jettySize=auto;html=1;strokeColor=#182E3E;fontFamily=Comic Sans MS;fontSize=18;fontColor=#1A1A1A;entryX=0.667;entryY=0;entryDx=0;entryDy=0;entryPerimeter=0;" parent="1" source="-ahb912PN4MzLgRkgIMQ-1" target="-ahb912PN4MzLgRkgIMQ-30" edge="1">
          <mxGeometry relative="1" as="geometry">
            <mxPoint x="220" y="500" as="targetPoint" />
          </mxGeometry>
        </mxCell>
        <mxCell id="-ahb912PN4MzLgRkgIMQ-29" style="edgeStyle=none;rounded=0;orthogonalLoop=1;jettySize=auto;html=1;strokeColor=#182E3E;fontFamily=Comic Sans MS;fontSize=18;fontColor=#1A1A1A;" parent="1" source="-ahb912PN4MzLgRkgIMQ-1" target="-ahb912PN4MzLgRkgIMQ-31" edge="1">
          <mxGeometry relative="1" as="geometry">
            <mxPoint x="430" y="490" as="targetPoint" />
          </mxGeometry>
        </mxCell>
        <mxCell id="-ahb912PN4MzLgRkgIMQ-1" value="&lt;font style=&quot;font-size: 24px;&quot; face=&quot;Comic Sans MS&quot;&gt;&lt;b&gt;5&lt;/b&gt;&lt;/font&gt;" style="ellipse;whiteSpace=wrap;html=1;strokeColor=#E0E0E0;fontColor=#333333;fillColor=#E0E0E0;sketch=0;shadow=1;" parent="1" vertex="1">
          <mxGeometry x="275" y="360" width="90" height="80" as="geometry" />
        </mxCell>
        <mxCell id="-ahb912PN4MzLgRkgIMQ-2" value="" style="shape=table;startSize=0;container=1;collapsible=0;childLayout=tableLayout;shadow=1;sketch=0;" parent="1" vertex="1">
          <mxGeometry x="120" y="90" width="420" height="40" as="geometry" />
        </mxCell>
        <mxCell id="-ahb912PN4MzLgRkgIMQ-3" value="" style="shape=tableRow;horizontal=0;startSize=0;swimlaneHead=0;swimlaneBody=0;top=0;left=0;bottom=0;right=0;collapsible=0;dropTarget=0;fillColor=none;points=[[0,0.5],[1,0.5]];portConstraint=eastwest;shadow=1;sketch=0;strokeColor=#E0E0E0;fontColor=#1A1A1A;" parent="-ahb912PN4MzLgRkgIMQ-2" vertex="1">
          <mxGeometry width="420" height="40" as="geometry" />
        </mxCell>
        <mxCell id="-ahb912PN4MzLgRkgIMQ-4" value="&lt;b style=&quot;color: rgb(51, 51, 51); font-family: &amp;quot;Comic Sans MS&amp;quot;; font-size: 24px;&quot;&gt;5&lt;/b&gt;" style="shape=partialRectangle;html=1;whiteSpace=wrap;connectable=0;overflow=hidden;fillColor=none;top=0;left=0;bottom=0;right=0;pointerEvents=1;shadow=1;sketch=0;strokeColor=#E0E0E0;fontColor=#1A1A1A;" parent="-ahb912PN4MzLgRkgIMQ-3" vertex="1">
          <mxGeometry width="60" height="40" as="geometry">
            <mxRectangle width="60" height="40" as="alternateBounds" />
          </mxGeometry>
        </mxCell>
        <mxCell id="-ahb912PN4MzLgRkgIMQ-5" value="&lt;b style=&quot;color: rgb(51, 51, 51); font-family: &amp;quot;Comic Sans MS&amp;quot;; font-size: 24px;&quot;&gt;10&lt;/b&gt;" style="shape=partialRectangle;html=1;whiteSpace=wrap;connectable=0;overflow=hidden;fillColor=none;top=0;left=0;bottom=0;right=0;pointerEvents=1;shadow=1;sketch=0;strokeColor=#E0E0E0;fontColor=#1A1A1A;" parent="-ahb912PN4MzLgRkgIMQ-3" vertex="1">
          <mxGeometry x="60" width="60" height="40" as="geometry">
            <mxRectangle width="60" height="40" as="alternateBounds" />
          </mxGeometry>
        </mxCell>
        <mxCell id="-ahb912PN4MzLgRkgIMQ-6" value="&lt;b style=&quot;color: rgb(51, 51, 51); font-family: &amp;quot;Comic Sans MS&amp;quot;; font-size: 24px;&quot;&gt;15&lt;/b&gt;" style="shape=partialRectangle;html=1;whiteSpace=wrap;connectable=0;overflow=hidden;fillColor=none;top=0;left=0;bottom=0;right=0;pointerEvents=1;shadow=1;sketch=0;strokeColor=#E0E0E0;fontColor=#1A1A1A;" parent="-ahb912PN4MzLgRkgIMQ-3" vertex="1">
          <mxGeometry x="120" width="60" height="40" as="geometry">
            <mxRectangle width="60" height="40" as="alternateBounds" />
          </mxGeometry>
        </mxCell>
        <mxCell id="-ahb912PN4MzLgRkgIMQ-7" value="&lt;font face=&quot;Comic Sans MS&quot; color=&quot;#333333&quot;&gt;&lt;span style=&quot;font-size: 24px;&quot;&gt;&lt;b&gt;20&lt;/b&gt;&lt;/span&gt;&lt;/font&gt;" style="shape=partialRectangle;html=1;whiteSpace=wrap;connectable=0;overflow=hidden;fillColor=none;top=0;left=0;bottom=0;right=0;pointerEvents=1;shadow=1;sketch=0;strokeColor=#E0E0E0;fontColor=#1A1A1A;" parent="-ahb912PN4MzLgRkgIMQ-3" vertex="1">
          <mxGeometry x="180" width="60" height="40" as="geometry">
            <mxRectangle width="60" height="40" as="alternateBounds" />
          </mxGeometry>
        </mxCell>
        <mxCell id="-ahb912PN4MzLgRkgIMQ-8" value="&lt;b style=&quot;color: rgb(51, 51, 51); font-family: &amp;quot;Comic Sans MS&amp;quot;; font-size: 24px;&quot;&gt;25&lt;/b&gt;" style="shape=partialRectangle;html=1;whiteSpace=wrap;connectable=0;overflow=hidden;fillColor=none;top=0;left=0;bottom=0;right=0;pointerEvents=1;shadow=1;sketch=0;strokeColor=#E0E0E0;fontColor=#1A1A1A;" parent="-ahb912PN4MzLgRkgIMQ-3" vertex="1">
          <mxGeometry x="240" width="60" height="40" as="geometry">
            <mxRectangle width="60" height="40" as="alternateBounds" />
          </mxGeometry>
        </mxCell>
        <mxCell id="-ahb912PN4MzLgRkgIMQ-9" value="&lt;font face=&quot;Comic Sans MS&quot; color=&quot;#333333&quot;&gt;&lt;span style=&quot;font-size: 24px;&quot;&gt;&lt;b&gt;30&lt;/b&gt;&lt;/span&gt;&lt;/font&gt;" style="shape=partialRectangle;html=1;whiteSpace=wrap;connectable=0;overflow=hidden;fillColor=none;top=0;left=0;bottom=0;right=0;pointerEvents=1;shadow=1;sketch=0;strokeColor=#E0E0E0;fontColor=#1A1A1A;" parent="-ahb912PN4MzLgRkgIMQ-3" vertex="1">
          <mxGeometry x="300" width="60" height="40" as="geometry">
            <mxRectangle width="60" height="40" as="alternateBounds" />
          </mxGeometry>
        </mxCell>
        <mxCell id="-ahb912PN4MzLgRkgIMQ-10" value="&lt;b style=&quot;color: rgb(51, 51, 51); font-family: &amp;quot;Comic Sans MS&amp;quot;; font-size: 24px;&quot;&gt;35&lt;/b&gt;" style="shape=partialRectangle;html=1;whiteSpace=wrap;connectable=0;overflow=hidden;fillColor=none;top=0;left=0;bottom=0;right=0;pointerEvents=1;shadow=1;sketch=0;strokeColor=#E0E0E0;fontColor=#1A1A1A;" parent="-ahb912PN4MzLgRkgIMQ-3" vertex="1">
          <mxGeometry x="360" width="60" height="40" as="geometry">
            <mxRectangle width="60" height="40" as="alternateBounds" />
          </mxGeometry>
        </mxCell>
        <mxCell id="-ahb912PN4MzLgRkgIMQ-21" value="&lt;b&gt;&lt;font color=&quot;#000066&quot; style=&quot;font-size: 18px;&quot; face=&quot;Comic Sans MS&quot;&gt;0&lt;/font&gt;&lt;/b&gt;" style="text;html=1;strokeColor=none;fillColor=none;align=center;verticalAlign=middle;whiteSpace=wrap;rounded=0;shadow=1;sketch=0;fontColor=#1A1A1A;" parent="1" vertex="1">
          <mxGeometry x="120" y="40" width="60" height="30" as="geometry" />
        </mxCell>
        <mxCell id="-ahb912PN4MzLgRkgIMQ-22" value="&lt;b&gt;&lt;font color=&quot;#000066&quot; style=&quot;font-size: 18px;&quot; face=&quot;Comic Sans MS&quot;&gt;1&lt;/font&gt;&lt;/b&gt;" style="text;html=1;strokeColor=none;fillColor=none;align=center;verticalAlign=middle;whiteSpace=wrap;rounded=0;shadow=1;sketch=0;fontColor=#1A1A1A;" parent="1" vertex="1">
          <mxGeometry x="180" y="40" width="60" height="30" as="geometry" />
        </mxCell>
        <mxCell id="-ahb912PN4MzLgRkgIMQ-23" value="&lt;b&gt;&lt;font color=&quot;#000066&quot; style=&quot;font-size: 18px;&quot; face=&quot;Comic Sans MS&quot;&gt;2&lt;/font&gt;&lt;/b&gt;" style="text;html=1;strokeColor=none;fillColor=none;align=center;verticalAlign=middle;whiteSpace=wrap;rounded=0;shadow=1;sketch=0;fontColor=#1A1A1A;" parent="1" vertex="1">
          <mxGeometry x="240" y="40" width="60" height="30" as="geometry" />
        </mxCell>
        <mxCell id="-ahb912PN4MzLgRkgIMQ-24" value="&lt;b&gt;&lt;font color=&quot;#000066&quot; style=&quot;font-size: 18px;&quot; face=&quot;Comic Sans MS&quot;&gt;3&lt;/font&gt;&lt;/b&gt;" style="text;html=1;strokeColor=none;fillColor=none;align=center;verticalAlign=middle;whiteSpace=wrap;rounded=0;shadow=1;sketch=0;fontColor=#1A1A1A;" parent="1" vertex="1">
          <mxGeometry x="300" y="40" width="60" height="30" as="geometry" />
        </mxCell>
        <mxCell id="-ahb912PN4MzLgRkgIMQ-25" value="&lt;b&gt;&lt;font color=&quot;#000066&quot; style=&quot;font-size: 18px;&quot; face=&quot;Comic Sans MS&quot;&gt;4&lt;/font&gt;&lt;/b&gt;" style="text;html=1;strokeColor=none;fillColor=none;align=center;verticalAlign=middle;whiteSpace=wrap;rounded=0;shadow=1;sketch=0;fontColor=#1A1A1A;" parent="1" vertex="1">
          <mxGeometry x="360" y="40" width="60" height="30" as="geometry" />
        </mxCell>
        <mxCell id="-ahb912PN4MzLgRkgIMQ-26" value="&lt;b&gt;&lt;font color=&quot;#000066&quot; style=&quot;font-size: 18px;&quot; face=&quot;Comic Sans MS&quot;&gt;5&lt;/font&gt;&lt;/b&gt;" style="text;html=1;strokeColor=none;fillColor=none;align=center;verticalAlign=middle;whiteSpace=wrap;rounded=0;shadow=1;sketch=0;fontColor=#1A1A1A;" parent="1" vertex="1">
          <mxGeometry x="420" y="40" width="60" height="30" as="geometry" />
        </mxCell>
        <mxCell id="-ahb912PN4MzLgRkgIMQ-27" value="&lt;b&gt;&lt;font color=&quot;#000066&quot; style=&quot;font-size: 18px;&quot; face=&quot;Comic Sans MS&quot;&gt;6&lt;/font&gt;&lt;/b&gt;" style="text;html=1;strokeColor=none;fillColor=none;align=center;verticalAlign=middle;whiteSpace=wrap;rounded=0;shadow=1;sketch=0;fontColor=#1A1A1A;" parent="1" vertex="1">
          <mxGeometry x="480" y="40" width="60" height="30" as="geometry" />
        </mxCell>
        <mxCell id="-ahb912PN4MzLgRkgIMQ-38" style="edgeStyle=none;rounded=0;orthogonalLoop=1;jettySize=auto;html=1;strokeColor=#182E3E;fontFamily=Comic Sans MS;fontSize=18;fontColor=#1A1A1A;" parent="1" source="-ahb912PN4MzLgRkgIMQ-30" target="-ahb912PN4MzLgRkgIMQ-32" edge="1">
          <mxGeometry relative="1" as="geometry" />
        </mxCell>
        <mxCell id="-ahb912PN4MzLgRkgIMQ-39" style="edgeStyle=none;rounded=0;orthogonalLoop=1;jettySize=auto;html=1;entryX=0;entryY=0;entryDx=0;entryDy=0;strokeColor=#182E3E;fontFamily=Comic Sans MS;fontSize=18;fontColor=#1A1A1A;" parent="1" source="-ahb912PN4MzLgRkgIMQ-30" target="-ahb912PN4MzLgRkgIMQ-33" edge="1">
          <mxGeometry relative="1" as="geometry" />
        </mxCell>
        <mxCell id="-ahb912PN4MzLgRkgIMQ-30" value="&lt;font face=&quot;Comic Sans MS&quot;&gt;&lt;span style=&quot;font-size: 24px;&quot;&gt;&lt;b&gt;10&lt;/b&gt;&lt;/span&gt;&lt;/font&gt;" style="ellipse;whiteSpace=wrap;html=1;strokeColor=#E0E0E0;fontColor=#333333;fillColor=#E0E0E0;sketch=0;shadow=1;" parent="1" vertex="1">
          <mxGeometry x="50" y="490" width="90" height="80" as="geometry" />
        </mxCell>
        <mxCell id="-ahb912PN4MzLgRkgIMQ-36" style="edgeStyle=none;rounded=0;orthogonalLoop=1;jettySize=auto;html=1;strokeColor=#182E3E;fontFamily=Comic Sans MS;fontSize=18;fontColor=#1A1A1A;" parent="1" source="-ahb912PN4MzLgRkgIMQ-31" target="-ahb912PN4MzLgRkgIMQ-34" edge="1">
          <mxGeometry relative="1" as="geometry" />
        </mxCell>
        <mxCell id="-ahb912PN4MzLgRkgIMQ-37" style="edgeStyle=none;rounded=0;orthogonalLoop=1;jettySize=auto;html=1;entryX=0;entryY=0;entryDx=0;entryDy=0;strokeColor=#182E3E;fontFamily=Comic Sans MS;fontSize=18;fontColor=#1A1A1A;" parent="1" source="-ahb912PN4MzLgRkgIMQ-31" target="-ahb912PN4MzLgRkgIMQ-35" edge="1">
          <mxGeometry relative="1" as="geometry" />
        </mxCell>
        <mxCell id="-ahb912PN4MzLgRkgIMQ-31" value="&lt;font face=&quot;Comic Sans MS&quot;&gt;&lt;span style=&quot;font-size: 24px;&quot;&gt;&lt;b&gt;15&lt;/b&gt;&lt;/span&gt;&lt;/font&gt;" style="ellipse;whiteSpace=wrap;html=1;strokeColor=#E0E0E0;fontColor=#333333;fillColor=#E0E0E0;sketch=0;shadow=1;" parent="1" vertex="1">
          <mxGeometry x="520" y="470" width="90" height="80" as="geometry" />
        </mxCell>
        <mxCell id="-ahb912PN4MzLgRkgIMQ-32" value="&lt;b style=&quot;font-family: &amp;quot;Comic Sans MS&amp;quot;; font-size: 24px;&quot;&gt;20&lt;/b&gt;" style="ellipse;whiteSpace=wrap;html=1;strokeColor=#E0E0E0;fontColor=#333333;fillColor=#E0E0E0;sketch=0;shadow=1;" parent="1" vertex="1">
          <mxGeometry x="-80" y="600" width="90" height="80" as="geometry" />
        </mxCell>
        <mxCell id="-ahb912PN4MzLgRkgIMQ-33" value="&lt;font face=&quot;Comic Sans MS&quot;&gt;&lt;span style=&quot;font-size: 24px;&quot;&gt;&lt;b&gt;25&lt;/b&gt;&lt;/span&gt;&lt;/font&gt;" style="ellipse;whiteSpace=wrap;html=1;strokeColor=#E0E0E0;fontColor=#333333;fillColor=#E0E0E0;sketch=0;shadow=1;" parent="1" vertex="1">
          <mxGeometry x="155" y="620" width="90" height="80" as="geometry" />
        </mxCell>
        <mxCell id="-ahb912PN4MzLgRkgIMQ-34" value="&lt;font face=&quot;Comic Sans MS&quot;&gt;&lt;span style=&quot;font-size: 24px;&quot;&gt;&lt;b&gt;30&lt;/b&gt;&lt;/span&gt;&lt;/font&gt;" style="ellipse;whiteSpace=wrap;html=1;strokeColor=#E0E0E0;fontColor=#333333;fillColor=#E0E0E0;sketch=0;shadow=1;" parent="1" vertex="1">
          <mxGeometry x="410" y="600" width="90" height="80" as="geometry" />
        </mxCell>
        <mxCell id="-ahb912PN4MzLgRkgIMQ-35" value="&lt;font face=&quot;Comic Sans MS&quot;&gt;&lt;span style=&quot;font-size: 24px;&quot;&gt;&lt;b&gt;35&lt;/b&gt;&lt;/span&gt;&lt;/font&gt;" style="ellipse;whiteSpace=wrap;html=1;strokeColor=#E0E0E0;fontColor=#333333;fillColor=#E0E0E0;sketch=0;shadow=1;" parent="1" vertex="1">
          <mxGeometry x="650" y="600" width="90" height="80" as="geometry" />
        </mxCell>
        <mxCell id="-ahb912PN4MzLgRkgIMQ-42" value="&lt;b&gt;&lt;font color=&quot;#000066&quot; style=&quot;font-size: 18px;&quot; face=&quot;Comic Sans MS&quot;&gt;0&lt;/font&gt;&lt;/b&gt;" style="text;html=1;strokeColor=none;fillColor=none;align=center;verticalAlign=middle;whiteSpace=wrap;rounded=0;shadow=1;sketch=0;fontColor=#1A1A1A;" parent="1" vertex="1">
          <mxGeometry x="230" y="350" width="60" height="30" as="geometry" />
        </mxCell>
        <mxCell id="-ahb912PN4MzLgRkgIMQ-43" value="&lt;b&gt;&lt;font color=&quot;#000066&quot; style=&quot;font-size: 18px;&quot; face=&quot;Comic Sans MS&quot;&gt;1&lt;/font&gt;&lt;/b&gt;" style="text;html=1;strokeColor=none;fillColor=none;align=center;verticalAlign=middle;whiteSpace=wrap;rounded=0;shadow=1;sketch=0;fontColor=#1A1A1A;" parent="1" vertex="1">
          <mxGeometry x="60" y="440" width="60" height="30" as="geometry" />
        </mxCell>
        <mxCell id="-ahb912PN4MzLgRkgIMQ-44" value="&lt;b&gt;&lt;font color=&quot;#000066&quot; style=&quot;font-size: 18px;&quot; face=&quot;Comic Sans MS&quot;&gt;2&lt;/font&gt;&lt;/b&gt;" style="text;html=1;strokeColor=none;fillColor=none;align=center;verticalAlign=middle;whiteSpace=wrap;rounded=0;shadow=1;sketch=0;fontColor=#1A1A1A;" parent="1" vertex="1">
          <mxGeometry x="550" y="430" width="60" height="30" as="geometry" />
        </mxCell>
        <mxCell id="-ahb912PN4MzLgRkgIMQ-45" value="&lt;b&gt;&lt;font color=&quot;#000066&quot; style=&quot;font-size: 18px;&quot; face=&quot;Comic Sans MS&quot;&gt;3&lt;/font&gt;&lt;/b&gt;" style="text;html=1;strokeColor=none;fillColor=none;align=center;verticalAlign=middle;whiteSpace=wrap;rounded=0;shadow=1;sketch=0;fontColor=#1A1A1A;" parent="1" vertex="1">
          <mxGeometry x="-70" y="560" width="60" height="30" as="geometry" />
        </mxCell>
        <mxCell id="-ahb912PN4MzLgRkgIMQ-46" value="&lt;b&gt;&lt;font color=&quot;#000066&quot; style=&quot;font-size: 18px;&quot; face=&quot;Comic Sans MS&quot;&gt;4&lt;/font&gt;&lt;/b&gt;" style="text;html=1;strokeColor=none;fillColor=none;align=center;verticalAlign=middle;whiteSpace=wrap;rounded=0;shadow=1;sketch=0;fontColor=#1A1A1A;" parent="1" vertex="1">
          <mxGeometry x="200" y="570" width="60" height="30" as="geometry" />
        </mxCell>
        <mxCell id="-ahb912PN4MzLgRkgIMQ-47" value="&lt;b&gt;&lt;font color=&quot;#000066&quot; style=&quot;font-size: 18px;&quot; face=&quot;Comic Sans MS&quot;&gt;5&lt;/font&gt;&lt;/b&gt;" style="text;html=1;strokeColor=none;fillColor=none;align=center;verticalAlign=middle;whiteSpace=wrap;rounded=0;shadow=1;sketch=0;fontColor=#1A1A1A;" parent="1" vertex="1">
          <mxGeometry x="420" y="560" width="60" height="30" as="geometry" />
        </mxCell>
        <mxCell id="-ahb912PN4MzLgRkgIMQ-48" value="&lt;b&gt;&lt;font color=&quot;#000066&quot; style=&quot;font-size: 18px;&quot; face=&quot;Comic Sans MS&quot;&gt;6&lt;/font&gt;&lt;/b&gt;" style="text;html=1;strokeColor=none;fillColor=none;align=center;verticalAlign=middle;whiteSpace=wrap;rounded=0;shadow=1;sketch=0;fontColor=#1A1A1A;" parent="1" vertex="1">
          <mxGeometry x="680" y="560" width="60" height="30" as="geometry" />
        </mxCell>
        <mxCell id="-ahb912PN4MzLgRkgIMQ-49" value="" style="shape=flexArrow;endArrow=classic;html=1;rounded=0;strokeColor=#3A5431;fontFamily=Comic Sans MS;fontSize=24;fontColor=#000066;fillColor=#6d8764;sketch=0;shadow=1;" parent="1" edge="1">
          <mxGeometry width="50" height="50" relative="1" as="geometry">
            <mxPoint x="310" y="150" as="sourcePoint" />
            <mxPoint x="310" y="310" as="targetPoint" />
          </mxGeometry>
        </mxCell>
        <mxCell id="-ahb912PN4MzLgRkgIMQ-50" value="&lt;b&gt;小顶堆&lt;/b&gt;" style="text;html=1;strokeColor=none;fillColor=default;align=center;verticalAlign=middle;whiteSpace=wrap;rounded=0;shadow=1;sketch=0;fontFamily=Comic Sans MS;fontSize=24;fontColor=#000066;" parent="1" vertex="1">
          <mxGeometry x="330" y="200" width="100" height="40" as="geometry" />
        </mxCell>
      </root>
    </mxGraphModel>
  </diagram>
  <diagram name="add" id="6idIqJOZiJzl3EfSkv2S">
    <mxGraphModel dx="1865" dy="547" grid="1" gridSize="10" guides="1" tooltips="1" connect="1" arrows="1" fold="1" page="1" pageScale="1" pageWidth="827" pageHeight="1169" background="#EEEEEE" math="0" shadow="0">
      <root>
        <mxCell id="mpkCJrhkj77R27CFkeaJ-0" />
        <mxCell id="mpkCJrhkj77R27CFkeaJ-1" parent="mpkCJrhkj77R27CFkeaJ-0" />
        <mxCell id="mpkCJrhkj77R27CFkeaJ-2" style="edgeStyle=none;rounded=0;orthogonalLoop=1;jettySize=auto;html=1;strokeColor=#182E3E;fontFamily=Comic Sans MS;fontSize=18;fontColor=#1A1A1A;entryX=0.667;entryY=0;entryDx=0;entryDy=0;entryPerimeter=0;" edge="1" parent="mpkCJrhkj77R27CFkeaJ-1" source="mpkCJrhkj77R27CFkeaJ-4" target="mpkCJrhkj77R27CFkeaJ-23">
          <mxGeometry relative="1" as="geometry">
            <mxPoint x="220" y="500" as="targetPoint" />
          </mxGeometry>
        </mxCell>
        <mxCell id="mpkCJrhkj77R27CFkeaJ-3" style="edgeStyle=none;rounded=0;orthogonalLoop=1;jettySize=auto;html=1;strokeColor=#182E3E;fontFamily=Comic Sans MS;fontSize=18;fontColor=#1A1A1A;" edge="1" parent="mpkCJrhkj77R27CFkeaJ-1" source="mpkCJrhkj77R27CFkeaJ-4" target="mpkCJrhkj77R27CFkeaJ-26">
          <mxGeometry relative="1" as="geometry">
            <mxPoint x="430" y="490" as="targetPoint" />
          </mxGeometry>
        </mxCell>
        <mxCell id="mpkCJrhkj77R27CFkeaJ-4" value="&lt;font style=&quot;font-size: 24px;&quot; face=&quot;Comic Sans MS&quot;&gt;&lt;b&gt;5&lt;/b&gt;&lt;/font&gt;" style="ellipse;whiteSpace=wrap;html=1;strokeColor=#E0E0E0;fontColor=#333333;fillColor=#E0E0E0;sketch=0;shadow=1;" vertex="1" parent="mpkCJrhkj77R27CFkeaJ-1">
          <mxGeometry x="275" y="360" width="90" height="80" as="geometry" />
        </mxCell>
        <mxCell id="mpkCJrhkj77R27CFkeaJ-21" style="edgeStyle=none;rounded=0;orthogonalLoop=1;jettySize=auto;html=1;strokeColor=#182E3E;fontFamily=Comic Sans MS;fontSize=18;fontColor=#1A1A1A;" edge="1" parent="mpkCJrhkj77R27CFkeaJ-1" source="mpkCJrhkj77R27CFkeaJ-23" target="mpkCJrhkj77R27CFkeaJ-27">
          <mxGeometry relative="1" as="geometry" />
        </mxCell>
        <mxCell id="mpkCJrhkj77R27CFkeaJ-22" style="edgeStyle=none;rounded=0;orthogonalLoop=1;jettySize=auto;html=1;entryX=0;entryY=0;entryDx=0;entryDy=0;strokeColor=#182E3E;fontFamily=Comic Sans MS;fontSize=18;fontColor=#1A1A1A;" edge="1" parent="mpkCJrhkj77R27CFkeaJ-1" source="mpkCJrhkj77R27CFkeaJ-23" target="mpkCJrhkj77R27CFkeaJ-28">
          <mxGeometry relative="1" as="geometry" />
        </mxCell>
        <mxCell id="mpkCJrhkj77R27CFkeaJ-23" value="&lt;font face=&quot;Comic Sans MS&quot;&gt;&lt;span style=&quot;font-size: 24px;&quot;&gt;&lt;b&gt;10&lt;/b&gt;&lt;/span&gt;&lt;/font&gt;" style="ellipse;whiteSpace=wrap;html=1;strokeColor=#E0E0E0;fontColor=#333333;fillColor=#E0E0E0;sketch=0;shadow=1;" vertex="1" parent="mpkCJrhkj77R27CFkeaJ-1">
          <mxGeometry x="50" y="490" width="90" height="80" as="geometry" />
        </mxCell>
        <mxCell id="mpkCJrhkj77R27CFkeaJ-24" style="edgeStyle=none;rounded=0;orthogonalLoop=1;jettySize=auto;html=1;strokeColor=#182E3E;fontFamily=Comic Sans MS;fontSize=18;fontColor=#1A1A1A;" edge="1" parent="mpkCJrhkj77R27CFkeaJ-1" source="mpkCJrhkj77R27CFkeaJ-26" target="mpkCJrhkj77R27CFkeaJ-29">
          <mxGeometry relative="1" as="geometry" />
        </mxCell>
        <mxCell id="mpkCJrhkj77R27CFkeaJ-25" style="edgeStyle=none;rounded=0;orthogonalLoop=1;jettySize=auto;html=1;entryX=0;entryY=0;entryDx=0;entryDy=0;strokeColor=#182E3E;fontFamily=Comic Sans MS;fontSize=18;fontColor=#1A1A1A;" edge="1" parent="mpkCJrhkj77R27CFkeaJ-1" source="mpkCJrhkj77R27CFkeaJ-26" target="mpkCJrhkj77R27CFkeaJ-30">
          <mxGeometry relative="1" as="geometry" />
        </mxCell>
        <mxCell id="mpkCJrhkj77R27CFkeaJ-26" value="&lt;font face=&quot;Comic Sans MS&quot;&gt;&lt;span style=&quot;font-size: 24px;&quot;&gt;&lt;b&gt;15&lt;/b&gt;&lt;/span&gt;&lt;/font&gt;" style="ellipse;whiteSpace=wrap;html=1;strokeColor=#E0E0E0;fontColor=#333333;fillColor=#E0E0E0;sketch=0;shadow=1;" vertex="1" parent="mpkCJrhkj77R27CFkeaJ-1">
          <mxGeometry x="520" y="470" width="90" height="80" as="geometry" />
        </mxCell>
        <mxCell id="mpkCJrhkj77R27CFkeaJ-27" value="&lt;b style=&quot;font-family: &amp;quot;Comic Sans MS&amp;quot;; font-size: 24px;&quot;&gt;20&lt;/b&gt;" style="ellipse;whiteSpace=wrap;html=1;strokeColor=#E0E0E0;fontColor=#333333;fillColor=#E0E0E0;sketch=0;shadow=1;" vertex="1" parent="mpkCJrhkj77R27CFkeaJ-1">
          <mxGeometry x="-80" y="600" width="90" height="80" as="geometry" />
        </mxCell>
        <mxCell id="mpkCJrhkj77R27CFkeaJ-28" value="&lt;font face=&quot;Comic Sans MS&quot;&gt;&lt;span style=&quot;font-size: 24px;&quot;&gt;&lt;b&gt;25&lt;/b&gt;&lt;/span&gt;&lt;/font&gt;" style="ellipse;whiteSpace=wrap;html=1;strokeColor=#E0E0E0;fontColor=#333333;fillColor=#E0E0E0;sketch=0;shadow=1;" vertex="1" parent="mpkCJrhkj77R27CFkeaJ-1">
          <mxGeometry x="155" y="620" width="90" height="80" as="geometry" />
        </mxCell>
        <mxCell id="mpkCJrhkj77R27CFkeaJ-29" value="&lt;font face=&quot;Comic Sans MS&quot;&gt;&lt;span style=&quot;font-size: 24px;&quot;&gt;&lt;b&gt;30&lt;/b&gt;&lt;/span&gt;&lt;/font&gt;" style="ellipse;whiteSpace=wrap;html=1;strokeColor=#E0E0E0;fontColor=#333333;fillColor=#E0E0E0;sketch=0;shadow=1;" vertex="1" parent="mpkCJrhkj77R27CFkeaJ-1">
          <mxGeometry x="410" y="600" width="90" height="80" as="geometry" />
        </mxCell>
        <mxCell id="mpkCJrhkj77R27CFkeaJ-30" value="&lt;font face=&quot;Comic Sans MS&quot;&gt;&lt;span style=&quot;font-size: 24px;&quot;&gt;&lt;b&gt;35&lt;/b&gt;&lt;/span&gt;&lt;/font&gt;" style="ellipse;whiteSpace=wrap;html=1;strokeColor=#E0E0E0;fontColor=#333333;fillColor=#E0E0E0;sketch=0;shadow=1;" vertex="1" parent="mpkCJrhkj77R27CFkeaJ-1">
          <mxGeometry x="650" y="600" width="90" height="80" as="geometry" />
        </mxCell>
        <mxCell id="mpkCJrhkj77R27CFkeaJ-31" value="&lt;b&gt;&lt;font color=&quot;#000066&quot; style=&quot;font-size: 18px;&quot; face=&quot;Comic Sans MS&quot;&gt;0&lt;/font&gt;&lt;/b&gt;" style="text;html=1;strokeColor=none;fillColor=none;align=center;verticalAlign=middle;whiteSpace=wrap;rounded=0;shadow=1;sketch=0;fontColor=#1A1A1A;" vertex="1" parent="mpkCJrhkj77R27CFkeaJ-1">
          <mxGeometry x="230" y="350" width="60" height="30" as="geometry" />
        </mxCell>
        <mxCell id="mpkCJrhkj77R27CFkeaJ-32" value="&lt;b&gt;&lt;font color=&quot;#000066&quot; style=&quot;font-size: 18px;&quot; face=&quot;Comic Sans MS&quot;&gt;1&lt;/font&gt;&lt;/b&gt;" style="text;html=1;strokeColor=none;fillColor=none;align=center;verticalAlign=middle;whiteSpace=wrap;rounded=0;shadow=1;sketch=0;fontColor=#1A1A1A;" vertex="1" parent="mpkCJrhkj77R27CFkeaJ-1">
          <mxGeometry x="60" y="440" width="60" height="30" as="geometry" />
        </mxCell>
        <mxCell id="mpkCJrhkj77R27CFkeaJ-33" value="&lt;b&gt;&lt;font color=&quot;#000066&quot; style=&quot;font-size: 18px;&quot; face=&quot;Comic Sans MS&quot;&gt;2&lt;/font&gt;&lt;/b&gt;" style="text;html=1;strokeColor=none;fillColor=none;align=center;verticalAlign=middle;whiteSpace=wrap;rounded=0;shadow=1;sketch=0;fontColor=#1A1A1A;" vertex="1" parent="mpkCJrhkj77R27CFkeaJ-1">
          <mxGeometry x="550" y="430" width="60" height="30" as="geometry" />
        </mxCell>
        <mxCell id="mpkCJrhkj77R27CFkeaJ-34" value="&lt;b&gt;&lt;font color=&quot;#000066&quot; style=&quot;font-size: 18px;&quot; face=&quot;Comic Sans MS&quot;&gt;3&lt;/font&gt;&lt;/b&gt;" style="text;html=1;strokeColor=none;fillColor=none;align=center;verticalAlign=middle;whiteSpace=wrap;rounded=0;shadow=1;sketch=0;fontColor=#1A1A1A;" vertex="1" parent="mpkCJrhkj77R27CFkeaJ-1">
          <mxGeometry x="-70" y="560" width="60" height="30" as="geometry" />
        </mxCell>
        <mxCell id="mpkCJrhkj77R27CFkeaJ-35" value="&lt;b&gt;&lt;font color=&quot;#000066&quot; style=&quot;font-size: 18px;&quot; face=&quot;Comic Sans MS&quot;&gt;4&lt;/font&gt;&lt;/b&gt;" style="text;html=1;strokeColor=none;fillColor=none;align=center;verticalAlign=middle;whiteSpace=wrap;rounded=0;shadow=1;sketch=0;fontColor=#1A1A1A;" vertex="1" parent="mpkCJrhkj77R27CFkeaJ-1">
          <mxGeometry x="200" y="570" width="60" height="30" as="geometry" />
        </mxCell>
        <mxCell id="mpkCJrhkj77R27CFkeaJ-36" value="&lt;b&gt;&lt;font color=&quot;#000066&quot; style=&quot;font-size: 18px;&quot; face=&quot;Comic Sans MS&quot;&gt;5&lt;/font&gt;&lt;/b&gt;" style="text;html=1;strokeColor=none;fillColor=none;align=center;verticalAlign=middle;whiteSpace=wrap;rounded=0;shadow=1;sketch=0;fontColor=#1A1A1A;" vertex="1" parent="mpkCJrhkj77R27CFkeaJ-1">
          <mxGeometry x="420" y="560" width="60" height="30" as="geometry" />
        </mxCell>
        <mxCell id="mpkCJrhkj77R27CFkeaJ-37" value="&lt;b&gt;&lt;font color=&quot;#000066&quot; style=&quot;font-size: 18px;&quot; face=&quot;Comic Sans MS&quot;&gt;6&lt;/font&gt;&lt;/b&gt;" style="text;html=1;strokeColor=none;fillColor=none;align=center;verticalAlign=middle;whiteSpace=wrap;rounded=0;shadow=1;sketch=0;fontColor=#1A1A1A;" vertex="1" parent="mpkCJrhkj77R27CFkeaJ-1">
          <mxGeometry x="680" y="560" width="60" height="30" as="geometry" />
        </mxCell>
        <mxCell id="bzbKFrgFw_G2LKxQBko2-0" value="" style="shape=flexArrow;endArrow=classic;html=1;rounded=0;strokeColor=#3A5431;fontFamily=Comic Sans MS;fontSize=24;fontColor=#000066;fillColor=#6d8764;sketch=0;shadow=1;" edge="1" parent="mpkCJrhkj77R27CFkeaJ-1">
          <mxGeometry width="50" height="50" relative="1" as="geometry">
            <mxPoint x="780" y="500" as="sourcePoint" />
            <mxPoint x="1000" y="500" as="targetPoint" />
          </mxGeometry>
        </mxCell>
        <mxCell id="bzbKFrgFw_G2LKxQBko2-1" value="&lt;b&gt;add：8&lt;/b&gt;" style="text;html=1;strokeColor=none;fillColor=default;align=center;verticalAlign=middle;whiteSpace=wrap;rounded=0;shadow=1;sketch=0;fontFamily=Comic Sans MS;fontSize=24;fontColor=#000066;" vertex="1" parent="mpkCJrhkj77R27CFkeaJ-1">
          <mxGeometry x="850" y="420" width="100" height="40" as="geometry" />
        </mxCell>
        <mxCell id="bzbKFrgFw_G2LKxQBko2-2" style="edgeStyle=none;rounded=0;orthogonalLoop=1;jettySize=auto;html=1;strokeColor=#182E3E;fontFamily=Comic Sans MS;fontSize=18;fontColor=#1A1A1A;entryX=0.667;entryY=0;entryDx=0;entryDy=0;entryPerimeter=0;" edge="1" parent="mpkCJrhkj77R27CFkeaJ-1" source="bzbKFrgFw_G2LKxQBko2-4" target="bzbKFrgFw_G2LKxQBko2-7">
          <mxGeometry relative="1" as="geometry">
            <mxPoint x="1441" y="495" as="targetPoint" />
          </mxGeometry>
        </mxCell>
        <mxCell id="bzbKFrgFw_G2LKxQBko2-3" style="edgeStyle=none;rounded=0;orthogonalLoop=1;jettySize=auto;html=1;strokeColor=#182E3E;fontFamily=Comic Sans MS;fontSize=18;fontColor=#1A1A1A;" edge="1" parent="mpkCJrhkj77R27CFkeaJ-1" source="bzbKFrgFw_G2LKxQBko2-4" target="bzbKFrgFw_G2LKxQBko2-10">
          <mxGeometry relative="1" as="geometry">
            <mxPoint x="1651" y="485" as="targetPoint" />
          </mxGeometry>
        </mxCell>
        <mxCell id="bzbKFrgFw_G2LKxQBko2-4" value="&lt;font style=&quot;font-size: 24px;&quot; face=&quot;Comic Sans MS&quot;&gt;&lt;b&gt;5&lt;/b&gt;&lt;/font&gt;" style="ellipse;whiteSpace=wrap;html=1;strokeColor=#E0E0E0;fontColor=#333333;fillColor=#E0E0E0;sketch=0;shadow=1;" vertex="1" parent="mpkCJrhkj77R27CFkeaJ-1">
          <mxGeometry x="1496" y="355" width="90" height="80" as="geometry" />
        </mxCell>
        <mxCell id="bzbKFrgFw_G2LKxQBko2-5" style="edgeStyle=none;rounded=0;orthogonalLoop=1;jettySize=auto;html=1;strokeColor=#182E3E;fontFamily=Comic Sans MS;fontSize=18;fontColor=#1A1A1A;" edge="1" parent="mpkCJrhkj77R27CFkeaJ-1" source="bzbKFrgFw_G2LKxQBko2-7" target="bzbKFrgFw_G2LKxQBko2-11">
          <mxGeometry relative="1" as="geometry" />
        </mxCell>
        <mxCell id="bzbKFrgFw_G2LKxQBko2-6" style="edgeStyle=none;rounded=0;orthogonalLoop=1;jettySize=auto;html=1;entryX=0;entryY=0;entryDx=0;entryDy=0;strokeColor=#182E3E;fontFamily=Comic Sans MS;fontSize=18;fontColor=#1A1A1A;" edge="1" parent="mpkCJrhkj77R27CFkeaJ-1" source="bzbKFrgFw_G2LKxQBko2-7" target="bzbKFrgFw_G2LKxQBko2-12">
          <mxGeometry relative="1" as="geometry" />
        </mxCell>
        <mxCell id="bzbKFrgFw_G2LKxQBko2-7" value="&lt;font face=&quot;Comic Sans MS&quot;&gt;&lt;span style=&quot;font-size: 24px;&quot;&gt;&lt;b&gt;10&lt;/b&gt;&lt;/span&gt;&lt;/font&gt;" style="ellipse;whiteSpace=wrap;html=1;strokeColor=#E0E0E0;fontColor=#333333;fillColor=#E0E0E0;sketch=0;shadow=1;" vertex="1" parent="mpkCJrhkj77R27CFkeaJ-1">
          <mxGeometry x="1271" y="485" width="90" height="80" as="geometry" />
        </mxCell>
        <mxCell id="bzbKFrgFw_G2LKxQBko2-8" style="edgeStyle=none;rounded=0;orthogonalLoop=1;jettySize=auto;html=1;strokeColor=#182E3E;fontFamily=Comic Sans MS;fontSize=18;fontColor=#1A1A1A;" edge="1" parent="mpkCJrhkj77R27CFkeaJ-1" source="bzbKFrgFw_G2LKxQBko2-10" target="bzbKFrgFw_G2LKxQBko2-13">
          <mxGeometry relative="1" as="geometry" />
        </mxCell>
        <mxCell id="bzbKFrgFw_G2LKxQBko2-9" style="edgeStyle=none;rounded=0;orthogonalLoop=1;jettySize=auto;html=1;entryX=0;entryY=0;entryDx=0;entryDy=0;strokeColor=#182E3E;fontFamily=Comic Sans MS;fontSize=18;fontColor=#1A1A1A;" edge="1" parent="mpkCJrhkj77R27CFkeaJ-1" source="bzbKFrgFw_G2LKxQBko2-10" target="bzbKFrgFw_G2LKxQBko2-14">
          <mxGeometry relative="1" as="geometry" />
        </mxCell>
        <mxCell id="bzbKFrgFw_G2LKxQBko2-10" value="&lt;font face=&quot;Comic Sans MS&quot;&gt;&lt;span style=&quot;font-size: 24px;&quot;&gt;&lt;b&gt;15&lt;/b&gt;&lt;/span&gt;&lt;/font&gt;" style="ellipse;whiteSpace=wrap;html=1;strokeColor=#E0E0E0;fontColor=#333333;fillColor=#E0E0E0;sketch=0;shadow=1;" vertex="1" parent="mpkCJrhkj77R27CFkeaJ-1">
          <mxGeometry x="1741" y="465" width="90" height="80" as="geometry" />
        </mxCell>
        <mxCell id="bzbKFrgFw_G2LKxQBko2-25" style="edgeStyle=none;rounded=0;sketch=0;orthogonalLoop=1;jettySize=auto;html=1;shadow=1;strokeColor=#182E3E;fontFamily=Comic Sans MS;fontSize=24;fontColor=#000066;" edge="1" parent="mpkCJrhkj77R27CFkeaJ-1" source="bzbKFrgFw_G2LKxQBko2-11" target="bzbKFrgFw_G2LKxQBko2-22">
          <mxGeometry relative="1" as="geometry" />
        </mxCell>
        <mxCell id="bzbKFrgFw_G2LKxQBko2-11" value="&lt;b style=&quot;font-family: &amp;quot;Comic Sans MS&amp;quot;; font-size: 24px;&quot;&gt;20&lt;/b&gt;" style="ellipse;whiteSpace=wrap;html=1;strokeColor=#E0E0E0;fontColor=#333333;fillColor=#E0E0E0;sketch=0;shadow=1;" vertex="1" parent="mpkCJrhkj77R27CFkeaJ-1">
          <mxGeometry x="1141" y="595" width="90" height="80" as="geometry" />
        </mxCell>
        <mxCell id="bzbKFrgFw_G2LKxQBko2-12" value="&lt;font face=&quot;Comic Sans MS&quot;&gt;&lt;span style=&quot;font-size: 24px;&quot;&gt;&lt;b&gt;25&lt;/b&gt;&lt;/span&gt;&lt;/font&gt;" style="ellipse;whiteSpace=wrap;html=1;strokeColor=#E0E0E0;fontColor=#333333;fillColor=#E0E0E0;sketch=0;shadow=1;" vertex="1" parent="mpkCJrhkj77R27CFkeaJ-1">
          <mxGeometry x="1376" y="615" width="90" height="80" as="geometry" />
        </mxCell>
        <mxCell id="bzbKFrgFw_G2LKxQBko2-13" value="&lt;font face=&quot;Comic Sans MS&quot;&gt;&lt;span style=&quot;font-size: 24px;&quot;&gt;&lt;b&gt;30&lt;/b&gt;&lt;/span&gt;&lt;/font&gt;" style="ellipse;whiteSpace=wrap;html=1;strokeColor=#E0E0E0;fontColor=#333333;fillColor=#E0E0E0;sketch=0;shadow=1;" vertex="1" parent="mpkCJrhkj77R27CFkeaJ-1">
          <mxGeometry x="1631" y="595" width="90" height="80" as="geometry" />
        </mxCell>
        <mxCell id="bzbKFrgFw_G2LKxQBko2-14" value="&lt;font face=&quot;Comic Sans MS&quot;&gt;&lt;span style=&quot;font-size: 24px;&quot;&gt;&lt;b&gt;35&lt;/b&gt;&lt;/span&gt;&lt;/font&gt;" style="ellipse;whiteSpace=wrap;html=1;strokeColor=#E0E0E0;fontColor=#333333;fillColor=#E0E0E0;sketch=0;shadow=1;" vertex="1" parent="mpkCJrhkj77R27CFkeaJ-1">
          <mxGeometry x="1871" y="595" width="90" height="80" as="geometry" />
        </mxCell>
        <mxCell id="bzbKFrgFw_G2LKxQBko2-15" value="&lt;b&gt;&lt;font color=&quot;#000066&quot; style=&quot;font-size: 18px;&quot; face=&quot;Comic Sans MS&quot;&gt;0&lt;/font&gt;&lt;/b&gt;" style="text;html=1;strokeColor=none;fillColor=none;align=center;verticalAlign=middle;whiteSpace=wrap;rounded=0;shadow=1;sketch=0;fontColor=#1A1A1A;" vertex="1" parent="mpkCJrhkj77R27CFkeaJ-1">
          <mxGeometry x="1451" y="345" width="60" height="30" as="geometry" />
        </mxCell>
        <mxCell id="bzbKFrgFw_G2LKxQBko2-16" value="&lt;b&gt;&lt;font color=&quot;#000066&quot; style=&quot;font-size: 18px;&quot; face=&quot;Comic Sans MS&quot;&gt;1&lt;/font&gt;&lt;/b&gt;" style="text;html=1;strokeColor=none;fillColor=none;align=center;verticalAlign=middle;whiteSpace=wrap;rounded=0;shadow=1;sketch=0;fontColor=#1A1A1A;" vertex="1" parent="mpkCJrhkj77R27CFkeaJ-1">
          <mxGeometry x="1281" y="435" width="60" height="30" as="geometry" />
        </mxCell>
        <mxCell id="bzbKFrgFw_G2LKxQBko2-17" value="&lt;b&gt;&lt;font color=&quot;#000066&quot; style=&quot;font-size: 18px;&quot; face=&quot;Comic Sans MS&quot;&gt;2&lt;/font&gt;&lt;/b&gt;" style="text;html=1;strokeColor=none;fillColor=none;align=center;verticalAlign=middle;whiteSpace=wrap;rounded=0;shadow=1;sketch=0;fontColor=#1A1A1A;" vertex="1" parent="mpkCJrhkj77R27CFkeaJ-1">
          <mxGeometry x="1771" y="425" width="60" height="30" as="geometry" />
        </mxCell>
        <mxCell id="bzbKFrgFw_G2LKxQBko2-18" value="&lt;b&gt;&lt;font color=&quot;#000066&quot; style=&quot;font-size: 18px;&quot; face=&quot;Comic Sans MS&quot;&gt;3&lt;/font&gt;&lt;/b&gt;" style="text;html=1;strokeColor=none;fillColor=none;align=center;verticalAlign=middle;whiteSpace=wrap;rounded=0;shadow=1;sketch=0;fontColor=#1A1A1A;" vertex="1" parent="mpkCJrhkj77R27CFkeaJ-1">
          <mxGeometry x="1151" y="555" width="60" height="30" as="geometry" />
        </mxCell>
        <mxCell id="bzbKFrgFw_G2LKxQBko2-19" value="&lt;b&gt;&lt;font color=&quot;#000066&quot; style=&quot;font-size: 18px;&quot; face=&quot;Comic Sans MS&quot;&gt;4&lt;/font&gt;&lt;/b&gt;" style="text;html=1;strokeColor=none;fillColor=none;align=center;verticalAlign=middle;whiteSpace=wrap;rounded=0;shadow=1;sketch=0;fontColor=#1A1A1A;" vertex="1" parent="mpkCJrhkj77R27CFkeaJ-1">
          <mxGeometry x="1425" y="565" width="60" height="30" as="geometry" />
        </mxCell>
        <mxCell id="bzbKFrgFw_G2LKxQBko2-20" value="&lt;b&gt;&lt;font color=&quot;#000066&quot; style=&quot;font-size: 18px;&quot; face=&quot;Comic Sans MS&quot;&gt;5&lt;/font&gt;&lt;/b&gt;" style="text;html=1;strokeColor=none;fillColor=none;align=center;verticalAlign=middle;whiteSpace=wrap;rounded=0;shadow=1;sketch=0;fontColor=#1A1A1A;" vertex="1" parent="mpkCJrhkj77R27CFkeaJ-1">
          <mxGeometry x="1641" y="555" width="60" height="30" as="geometry" />
        </mxCell>
        <mxCell id="bzbKFrgFw_G2LKxQBko2-21" value="&lt;b&gt;&lt;font color=&quot;#000066&quot; style=&quot;font-size: 18px;&quot; face=&quot;Comic Sans MS&quot;&gt;6&lt;/font&gt;&lt;/b&gt;" style="text;html=1;strokeColor=none;fillColor=none;align=center;verticalAlign=middle;whiteSpace=wrap;rounded=0;shadow=1;sketch=0;fontColor=#1A1A1A;" vertex="1" parent="mpkCJrhkj77R27CFkeaJ-1">
          <mxGeometry x="1901" y="555" width="60" height="30" as="geometry" />
        </mxCell>
        <mxCell id="bzbKFrgFw_G2LKxQBko2-22" value="&lt;b style=&quot;font-family: &amp;quot;Comic Sans MS&amp;quot;; font-size: 24px;&quot;&gt;8&lt;/b&gt;" style="ellipse;whiteSpace=wrap;html=1;strokeColor=#E0E0E0;fontColor=#333333;fillColor=#E0E0E0;sketch=0;shadow=1;" vertex="1" parent="mpkCJrhkj77R27CFkeaJ-1">
          <mxGeometry x="1021" y="725" width="90" height="80" as="geometry" />
        </mxCell>
        <mxCell id="bzbKFrgFw_G2LKxQBko2-23" value="&lt;b&gt;&lt;font color=&quot;#000066&quot; style=&quot;font-size: 18px;&quot; face=&quot;Comic Sans MS&quot;&gt;7&lt;/font&gt;&lt;/b&gt;" style="text;html=1;strokeColor=none;fillColor=none;align=center;verticalAlign=middle;whiteSpace=wrap;rounded=0;shadow=1;sketch=0;fontColor=#1A1A1A;" vertex="1" parent="mpkCJrhkj77R27CFkeaJ-1">
          <mxGeometry x="1051" y="685" width="60" height="30" as="geometry" />
        </mxCell>
        <mxCell id="bzbKFrgFw_G2LKxQBko2-26" value="" style="html=1;shadow=0;dashed=0;align=center;verticalAlign=middle;shape=mxgraph.arrows2.jumpInArrow;dy=20.1;dx=50.6;arrowHead=68.6;sketch=0;strokeColor=#E0E0E0;fontFamily=Comic Sans MS;fontSize=24;fontColor=#000066;fillColor=#000000;" vertex="1" parent="mpkCJrhkj77R27CFkeaJ-1">
          <mxGeometry x="1041" y="565" width="110" height="210" as="geometry" />
        </mxCell>
        <mxCell id="bzbKFrgFw_G2LKxQBko2-27" value="" style="shape=flexArrow;endArrow=classic;html=1;rounded=0;strokeColor=#3A5431;fontFamily=Comic Sans MS;fontSize=24;fontColor=#000066;fillColor=#6d8764;sketch=0;shadow=1;" edge="1" parent="mpkCJrhkj77R27CFkeaJ-1">
          <mxGeometry width="50" height="50" relative="1" as="geometry">
            <mxPoint x="1379.5" y="805" as="sourcePoint" />
            <mxPoint x="1379.5" y="965" as="targetPoint" />
          </mxGeometry>
        </mxCell>
        <mxCell id="bzbKFrgFw_G2LKxQBko2-28" style="edgeStyle=none;rounded=0;orthogonalLoop=1;jettySize=auto;html=1;strokeColor=#182E3E;fontFamily=Comic Sans MS;fontSize=18;fontColor=#1A1A1A;entryX=0.667;entryY=0;entryDx=0;entryDy=0;entryPerimeter=0;" edge="1" parent="mpkCJrhkj77R27CFkeaJ-1" source="bzbKFrgFw_G2LKxQBko2-30" target="bzbKFrgFw_G2LKxQBko2-33">
          <mxGeometry relative="1" as="geometry">
            <mxPoint x="1280" y="1230" as="targetPoint" />
          </mxGeometry>
        </mxCell>
        <mxCell id="bzbKFrgFw_G2LKxQBko2-29" style="edgeStyle=none;rounded=0;orthogonalLoop=1;jettySize=auto;html=1;strokeColor=#182E3E;fontFamily=Comic Sans MS;fontSize=18;fontColor=#1A1A1A;" edge="1" parent="mpkCJrhkj77R27CFkeaJ-1" source="bzbKFrgFw_G2LKxQBko2-30" target="bzbKFrgFw_G2LKxQBko2-36">
          <mxGeometry relative="1" as="geometry">
            <mxPoint x="1490" y="1220" as="targetPoint" />
          </mxGeometry>
        </mxCell>
        <mxCell id="bzbKFrgFw_G2LKxQBko2-30" value="&lt;font style=&quot;font-size: 24px;&quot; face=&quot;Comic Sans MS&quot;&gt;&lt;b&gt;5&lt;/b&gt;&lt;/font&gt;" style="ellipse;whiteSpace=wrap;html=1;strokeColor=#E0E0E0;fontColor=#333333;fillColor=#E0E0E0;sketch=0;shadow=1;" vertex="1" parent="mpkCJrhkj77R27CFkeaJ-1">
          <mxGeometry x="1335" y="1090" width="90" height="80" as="geometry" />
        </mxCell>
        <mxCell id="bzbKFrgFw_G2LKxQBko2-31" style="edgeStyle=none;rounded=0;orthogonalLoop=1;jettySize=auto;html=1;strokeColor=#182E3E;fontFamily=Comic Sans MS;fontSize=18;fontColor=#1A1A1A;" edge="1" parent="mpkCJrhkj77R27CFkeaJ-1" source="bzbKFrgFw_G2LKxQBko2-33" target="bzbKFrgFw_G2LKxQBko2-38">
          <mxGeometry relative="1" as="geometry" />
        </mxCell>
        <mxCell id="bzbKFrgFw_G2LKxQBko2-32" style="edgeStyle=none;rounded=0;orthogonalLoop=1;jettySize=auto;html=1;entryX=0;entryY=0;entryDx=0;entryDy=0;strokeColor=#182E3E;fontFamily=Comic Sans MS;fontSize=18;fontColor=#1A1A1A;" edge="1" parent="mpkCJrhkj77R27CFkeaJ-1" source="bzbKFrgFw_G2LKxQBko2-33" target="bzbKFrgFw_G2LKxQBko2-39">
          <mxGeometry relative="1" as="geometry" />
        </mxCell>
        <mxCell id="bzbKFrgFw_G2LKxQBko2-33" value="&lt;font face=&quot;Comic Sans MS&quot;&gt;&lt;span style=&quot;font-size: 24px;&quot;&gt;&lt;b&gt;10&lt;/b&gt;&lt;/span&gt;&lt;/font&gt;" style="ellipse;whiteSpace=wrap;html=1;strokeColor=#E0E0E0;fontColor=#333333;fillColor=#E0E0E0;sketch=0;shadow=1;" vertex="1" parent="mpkCJrhkj77R27CFkeaJ-1">
          <mxGeometry x="1110" y="1220" width="90" height="80" as="geometry" />
        </mxCell>
        <mxCell id="bzbKFrgFw_G2LKxQBko2-34" style="edgeStyle=none;rounded=0;orthogonalLoop=1;jettySize=auto;html=1;strokeColor=#182E3E;fontFamily=Comic Sans MS;fontSize=18;fontColor=#1A1A1A;" edge="1" parent="mpkCJrhkj77R27CFkeaJ-1" source="bzbKFrgFw_G2LKxQBko2-36" target="bzbKFrgFw_G2LKxQBko2-40">
          <mxGeometry relative="1" as="geometry" />
        </mxCell>
        <mxCell id="bzbKFrgFw_G2LKxQBko2-35" style="edgeStyle=none;rounded=0;orthogonalLoop=1;jettySize=auto;html=1;entryX=0;entryY=0;entryDx=0;entryDy=0;strokeColor=#182E3E;fontFamily=Comic Sans MS;fontSize=18;fontColor=#1A1A1A;" edge="1" parent="mpkCJrhkj77R27CFkeaJ-1" source="bzbKFrgFw_G2LKxQBko2-36" target="bzbKFrgFw_G2LKxQBko2-41">
          <mxGeometry relative="1" as="geometry" />
        </mxCell>
        <mxCell id="bzbKFrgFw_G2LKxQBko2-36" value="&lt;font face=&quot;Comic Sans MS&quot;&gt;&lt;span style=&quot;font-size: 24px;&quot;&gt;&lt;b&gt;15&lt;/b&gt;&lt;/span&gt;&lt;/font&gt;" style="ellipse;whiteSpace=wrap;html=1;strokeColor=#E0E0E0;fontColor=#333333;fillColor=#E0E0E0;sketch=0;shadow=1;" vertex="1" parent="mpkCJrhkj77R27CFkeaJ-1">
          <mxGeometry x="1580" y="1200" width="90" height="80" as="geometry" />
        </mxCell>
        <mxCell id="bzbKFrgFw_G2LKxQBko2-37" style="edgeStyle=none;rounded=0;sketch=0;orthogonalLoop=1;jettySize=auto;html=1;shadow=1;strokeColor=#182E3E;fontFamily=Comic Sans MS;fontSize=24;fontColor=#000066;" edge="1" parent="mpkCJrhkj77R27CFkeaJ-1" source="bzbKFrgFw_G2LKxQBko2-38" target="bzbKFrgFw_G2LKxQBko2-49">
          <mxGeometry relative="1" as="geometry" />
        </mxCell>
        <mxCell id="bzbKFrgFw_G2LKxQBko2-38" value="&lt;b style=&quot;font-family: &amp;quot;Comic Sans MS&amp;quot;; font-size: 24px;&quot;&gt;8&lt;/b&gt;" style="ellipse;whiteSpace=wrap;html=1;strokeColor=#432D57;fontColor=#ffffff;fillColor=#76608a;sketch=0;shadow=1;" vertex="1" parent="mpkCJrhkj77R27CFkeaJ-1">
          <mxGeometry x="980" y="1330" width="90" height="80" as="geometry" />
        </mxCell>
        <mxCell id="bzbKFrgFw_G2LKxQBko2-39" value="&lt;font face=&quot;Comic Sans MS&quot;&gt;&lt;span style=&quot;font-size: 24px;&quot;&gt;&lt;b&gt;25&lt;/b&gt;&lt;/span&gt;&lt;/font&gt;" style="ellipse;whiteSpace=wrap;html=1;strokeColor=#E0E0E0;fontColor=#333333;fillColor=#E0E0E0;sketch=0;shadow=1;" vertex="1" parent="mpkCJrhkj77R27CFkeaJ-1">
          <mxGeometry x="1215" y="1350" width="90" height="80" as="geometry" />
        </mxCell>
        <mxCell id="bzbKFrgFw_G2LKxQBko2-40" value="&lt;font face=&quot;Comic Sans MS&quot;&gt;&lt;span style=&quot;font-size: 24px;&quot;&gt;&lt;b&gt;30&lt;/b&gt;&lt;/span&gt;&lt;/font&gt;" style="ellipse;whiteSpace=wrap;html=1;strokeColor=#E0E0E0;fontColor=#333333;fillColor=#E0E0E0;sketch=0;shadow=1;" vertex="1" parent="mpkCJrhkj77R27CFkeaJ-1">
          <mxGeometry x="1470" y="1330" width="90" height="80" as="geometry" />
        </mxCell>
        <mxCell id="bzbKFrgFw_G2LKxQBko2-41" value="&lt;font face=&quot;Comic Sans MS&quot;&gt;&lt;span style=&quot;font-size: 24px;&quot;&gt;&lt;b&gt;35&lt;/b&gt;&lt;/span&gt;&lt;/font&gt;" style="ellipse;whiteSpace=wrap;html=1;strokeColor=#E0E0E0;fontColor=#333333;fillColor=#E0E0E0;sketch=0;shadow=1;" vertex="1" parent="mpkCJrhkj77R27CFkeaJ-1">
          <mxGeometry x="1710" y="1330" width="90" height="80" as="geometry" />
        </mxCell>
        <mxCell id="bzbKFrgFw_G2LKxQBko2-42" value="&lt;b&gt;&lt;font color=&quot;#000066&quot; style=&quot;font-size: 18px;&quot; face=&quot;Comic Sans MS&quot;&gt;0&lt;/font&gt;&lt;/b&gt;" style="text;html=1;strokeColor=none;fillColor=none;align=center;verticalAlign=middle;whiteSpace=wrap;rounded=0;shadow=1;sketch=0;fontColor=#1A1A1A;" vertex="1" parent="mpkCJrhkj77R27CFkeaJ-1">
          <mxGeometry x="1290" y="1080" width="60" height="30" as="geometry" />
        </mxCell>
        <mxCell id="bzbKFrgFw_G2LKxQBko2-43" value="&lt;b&gt;&lt;font color=&quot;#000066&quot; style=&quot;font-size: 18px;&quot; face=&quot;Comic Sans MS&quot;&gt;1&lt;/font&gt;&lt;/b&gt;" style="text;html=1;strokeColor=none;fillColor=none;align=center;verticalAlign=middle;whiteSpace=wrap;rounded=0;shadow=1;sketch=0;fontColor=#1A1A1A;" vertex="1" parent="mpkCJrhkj77R27CFkeaJ-1">
          <mxGeometry x="1120" y="1170" width="60" height="30" as="geometry" />
        </mxCell>
        <mxCell id="bzbKFrgFw_G2LKxQBko2-44" value="&lt;b&gt;&lt;font color=&quot;#000066&quot; style=&quot;font-size: 18px;&quot; face=&quot;Comic Sans MS&quot;&gt;2&lt;/font&gt;&lt;/b&gt;" style="text;html=1;strokeColor=none;fillColor=none;align=center;verticalAlign=middle;whiteSpace=wrap;rounded=0;shadow=1;sketch=0;fontColor=#1A1A1A;" vertex="1" parent="mpkCJrhkj77R27CFkeaJ-1">
          <mxGeometry x="1610" y="1160" width="60" height="30" as="geometry" />
        </mxCell>
        <mxCell id="bzbKFrgFw_G2LKxQBko2-45" value="&lt;b&gt;&lt;font color=&quot;#000066&quot; style=&quot;font-size: 18px;&quot; face=&quot;Comic Sans MS&quot;&gt;3&lt;/font&gt;&lt;/b&gt;" style="text;html=1;strokeColor=none;fillColor=none;align=center;verticalAlign=middle;whiteSpace=wrap;rounded=0;shadow=1;sketch=0;fontColor=#1A1A1A;" vertex="1" parent="mpkCJrhkj77R27CFkeaJ-1">
          <mxGeometry x="1015" y="1300" width="60" height="30" as="geometry" />
        </mxCell>
        <mxCell id="bzbKFrgFw_G2LKxQBko2-46" value="&lt;b&gt;&lt;font color=&quot;#000066&quot; style=&quot;font-size: 18px;&quot; face=&quot;Comic Sans MS&quot;&gt;4&lt;/font&gt;&lt;/b&gt;" style="text;html=1;strokeColor=none;fillColor=none;align=center;verticalAlign=middle;whiteSpace=wrap;rounded=0;shadow=1;sketch=0;fontColor=#1A1A1A;" vertex="1" parent="mpkCJrhkj77R27CFkeaJ-1">
          <mxGeometry x="1260" y="1300" width="60" height="30" as="geometry" />
        </mxCell>
        <mxCell id="bzbKFrgFw_G2LKxQBko2-47" value="&lt;b&gt;&lt;font color=&quot;#000066&quot; style=&quot;font-size: 18px;&quot; face=&quot;Comic Sans MS&quot;&gt;5&lt;/font&gt;&lt;/b&gt;" style="text;html=1;strokeColor=none;fillColor=none;align=center;verticalAlign=middle;whiteSpace=wrap;rounded=0;shadow=1;sketch=0;fontColor=#1A1A1A;" vertex="1" parent="mpkCJrhkj77R27CFkeaJ-1">
          <mxGeometry x="1480" y="1290" width="60" height="30" as="geometry" />
        </mxCell>
        <mxCell id="bzbKFrgFw_G2LKxQBko2-48" value="&lt;b&gt;&lt;font color=&quot;#000066&quot; style=&quot;font-size: 18px;&quot; face=&quot;Comic Sans MS&quot;&gt;6&lt;/font&gt;&lt;/b&gt;" style="text;html=1;strokeColor=none;fillColor=none;align=center;verticalAlign=middle;whiteSpace=wrap;rounded=0;shadow=1;sketch=0;fontColor=#1A1A1A;" vertex="1" parent="mpkCJrhkj77R27CFkeaJ-1">
          <mxGeometry x="1740" y="1290" width="60" height="30" as="geometry" />
        </mxCell>
        <mxCell id="bzbKFrgFw_G2LKxQBko2-49" value="&lt;b style=&quot;font-family: &amp;quot;Comic Sans MS&amp;quot;; font-size: 24px;&quot;&gt;20&lt;/b&gt;" style="ellipse;whiteSpace=wrap;html=1;strokeColor=#432D57;fontColor=#ffffff;fillColor=#76608a;sketch=0;shadow=1;" vertex="1" parent="mpkCJrhkj77R27CFkeaJ-1">
          <mxGeometry x="860" y="1460" width="90" height="80" as="geometry" />
        </mxCell>
        <mxCell id="bzbKFrgFw_G2LKxQBko2-50" value="&lt;b&gt;&lt;font color=&quot;#000066&quot; style=&quot;font-size: 18px;&quot; face=&quot;Comic Sans MS&quot;&gt;7&lt;/font&gt;&lt;/b&gt;" style="text;html=1;strokeColor=none;fillColor=none;align=center;verticalAlign=middle;whiteSpace=wrap;rounded=0;shadow=1;sketch=0;fontColor=#1A1A1A;" vertex="1" parent="mpkCJrhkj77R27CFkeaJ-1">
          <mxGeometry x="875" y="1420" width="60" height="30" as="geometry" />
        </mxCell>
        <mxCell id="bzbKFrgFw_G2LKxQBko2-52" value="" style="html=1;shadow=0;dashed=0;align=center;verticalAlign=middle;shape=mxgraph.arrows2.jumpInArrow;dy=13.1;dx=56;arrowHead=50.6;sketch=0;strokeColor=#E0E0E0;fontFamily=Comic Sans MS;fontSize=24;fontColor=#000066;fillColor=#000000;" vertex="1" parent="mpkCJrhkj77R27CFkeaJ-1">
          <mxGeometry x="1010" y="1230" width="110" height="100" as="geometry" />
        </mxCell>
        <mxCell id="bzbKFrgFw_G2LKxQBko2-53" value="" style="shape=flexArrow;endArrow=classic;html=1;rounded=0;strokeColor=#3A5431;fontFamily=Comic Sans MS;fontSize=24;fontColor=#000066;fillColor=#6d8764;sketch=0;shadow=1;" edge="1" parent="mpkCJrhkj77R27CFkeaJ-1">
          <mxGeometry width="50" height="50" relative="1" as="geometry">
            <mxPoint x="1795" y="1230" as="sourcePoint" />
            <mxPoint x="2075" y="1230" as="targetPoint" />
          </mxGeometry>
        </mxCell>
        <mxCell id="bzbKFrgFw_G2LKxQBko2-54" value="&lt;b&gt;8 &amp;lt; 20&lt;/b&gt;" style="text;html=1;strokeColor=none;fillColor=default;align=center;verticalAlign=middle;whiteSpace=wrap;rounded=1;shadow=1;sketch=0;fontFamily=Comic Sans MS;fontSize=24;fontColor=#000066;" vertex="1" parent="mpkCJrhkj77R27CFkeaJ-1">
          <mxGeometry x="970" y="555" width="90" height="45" as="geometry" />
        </mxCell>
        <mxCell id="bzbKFrgFw_G2LKxQBko2-55" value="&lt;b&gt;8 &amp;lt; 10&lt;/b&gt;" style="text;html=1;strokeColor=none;fillColor=default;align=center;verticalAlign=middle;whiteSpace=wrap;rounded=1;shadow=1;sketch=0;fontFamily=Comic Sans MS;fontSize=24;fontColor=#000066;" vertex="1" parent="mpkCJrhkj77R27CFkeaJ-1">
          <mxGeometry x="951" y="1195" width="100" height="45" as="geometry" />
        </mxCell>
        <mxCell id="bzbKFrgFw_G2LKxQBko2-56" style="edgeStyle=none;rounded=0;orthogonalLoop=1;jettySize=auto;html=1;strokeColor=#182E3E;fontFamily=Comic Sans MS;fontSize=18;fontColor=#1A1A1A;entryX=0.667;entryY=0;entryDx=0;entryDy=0;entryPerimeter=0;" edge="1" parent="mpkCJrhkj77R27CFkeaJ-1" source="bzbKFrgFw_G2LKxQBko2-58" target="bzbKFrgFw_G2LKxQBko2-61">
          <mxGeometry relative="1" as="geometry">
            <mxPoint x="2506" y="1235" as="targetPoint" />
          </mxGeometry>
        </mxCell>
        <mxCell id="bzbKFrgFw_G2LKxQBko2-57" style="edgeStyle=none;rounded=0;orthogonalLoop=1;jettySize=auto;html=1;strokeColor=#182E3E;fontFamily=Comic Sans MS;fontSize=18;fontColor=#1A1A1A;" edge="1" parent="mpkCJrhkj77R27CFkeaJ-1" source="bzbKFrgFw_G2LKxQBko2-58" target="bzbKFrgFw_G2LKxQBko2-64">
          <mxGeometry relative="1" as="geometry">
            <mxPoint x="2716" y="1225" as="targetPoint" />
          </mxGeometry>
        </mxCell>
        <mxCell id="bzbKFrgFw_G2LKxQBko2-58" value="&lt;font style=&quot;font-size: 24px;&quot; face=&quot;Comic Sans MS&quot;&gt;&lt;b&gt;5&lt;/b&gt;&lt;/font&gt;" style="ellipse;whiteSpace=wrap;html=1;strokeColor=#E0E0E0;fontColor=#333333;fillColor=#E0E0E0;sketch=0;shadow=1;" vertex="1" parent="mpkCJrhkj77R27CFkeaJ-1">
          <mxGeometry x="2561" y="1095" width="90" height="80" as="geometry" />
        </mxCell>
        <mxCell id="bzbKFrgFw_G2LKxQBko2-59" style="edgeStyle=none;rounded=0;orthogonalLoop=1;jettySize=auto;html=1;strokeColor=#182E3E;fontFamily=Comic Sans MS;fontSize=18;fontColor=#1A1A1A;" edge="1" parent="mpkCJrhkj77R27CFkeaJ-1" source="bzbKFrgFw_G2LKxQBko2-61" target="bzbKFrgFw_G2LKxQBko2-66">
          <mxGeometry relative="1" as="geometry" />
        </mxCell>
        <mxCell id="bzbKFrgFw_G2LKxQBko2-60" style="edgeStyle=none;rounded=0;orthogonalLoop=1;jettySize=auto;html=1;entryX=0;entryY=0;entryDx=0;entryDy=0;strokeColor=#182E3E;fontFamily=Comic Sans MS;fontSize=18;fontColor=#1A1A1A;" edge="1" parent="mpkCJrhkj77R27CFkeaJ-1" source="bzbKFrgFw_G2LKxQBko2-61" target="bzbKFrgFw_G2LKxQBko2-67">
          <mxGeometry relative="1" as="geometry" />
        </mxCell>
        <mxCell id="bzbKFrgFw_G2LKxQBko2-61" value="&lt;font face=&quot;Comic Sans MS&quot;&gt;&lt;span style=&quot;font-size: 24px;&quot;&gt;&lt;b&gt;8&lt;/b&gt;&lt;/span&gt;&lt;/font&gt;" style="ellipse;whiteSpace=wrap;html=1;strokeColor=#B09500;fontColor=#000000;fillColor=#e3c800;sketch=0;shadow=1;" vertex="1" parent="mpkCJrhkj77R27CFkeaJ-1">
          <mxGeometry x="2336" y="1225" width="90" height="80" as="geometry" />
        </mxCell>
        <mxCell id="bzbKFrgFw_G2LKxQBko2-62" style="edgeStyle=none;rounded=0;orthogonalLoop=1;jettySize=auto;html=1;strokeColor=#182E3E;fontFamily=Comic Sans MS;fontSize=18;fontColor=#1A1A1A;" edge="1" parent="mpkCJrhkj77R27CFkeaJ-1" source="bzbKFrgFw_G2LKxQBko2-64" target="bzbKFrgFw_G2LKxQBko2-68">
          <mxGeometry relative="1" as="geometry" />
        </mxCell>
        <mxCell id="bzbKFrgFw_G2LKxQBko2-63" style="edgeStyle=none;rounded=0;orthogonalLoop=1;jettySize=auto;html=1;entryX=0;entryY=0;entryDx=0;entryDy=0;strokeColor=#182E3E;fontFamily=Comic Sans MS;fontSize=18;fontColor=#1A1A1A;" edge="1" parent="mpkCJrhkj77R27CFkeaJ-1" source="bzbKFrgFw_G2LKxQBko2-64" target="bzbKFrgFw_G2LKxQBko2-69">
          <mxGeometry relative="1" as="geometry" />
        </mxCell>
        <mxCell id="bzbKFrgFw_G2LKxQBko2-64" value="&lt;font face=&quot;Comic Sans MS&quot;&gt;&lt;span style=&quot;font-size: 24px;&quot;&gt;&lt;b&gt;15&lt;/b&gt;&lt;/span&gt;&lt;/font&gt;" style="ellipse;whiteSpace=wrap;html=1;strokeColor=#E0E0E0;fontColor=#333333;fillColor=#E0E0E0;sketch=0;shadow=1;" vertex="1" parent="mpkCJrhkj77R27CFkeaJ-1">
          <mxGeometry x="2806" y="1205" width="90" height="80" as="geometry" />
        </mxCell>
        <mxCell id="bzbKFrgFw_G2LKxQBko2-65" style="edgeStyle=none;rounded=0;sketch=0;orthogonalLoop=1;jettySize=auto;html=1;shadow=1;strokeColor=#182E3E;fontFamily=Comic Sans MS;fontSize=24;fontColor=#000066;" edge="1" parent="mpkCJrhkj77R27CFkeaJ-1" source="bzbKFrgFw_G2LKxQBko2-66" target="bzbKFrgFw_G2LKxQBko2-77">
          <mxGeometry relative="1" as="geometry" />
        </mxCell>
        <mxCell id="bzbKFrgFw_G2LKxQBko2-66" value="&lt;b style=&quot;font-family: &amp;quot;Comic Sans MS&amp;quot;; font-size: 24px;&quot;&gt;10&lt;/b&gt;" style="ellipse;whiteSpace=wrap;html=1;strokeColor=#B09500;fontColor=#000000;fillColor=#e3c800;sketch=0;shadow=1;" vertex="1" parent="mpkCJrhkj77R27CFkeaJ-1">
          <mxGeometry x="2206" y="1335" width="90" height="80" as="geometry" />
        </mxCell>
        <mxCell id="bzbKFrgFw_G2LKxQBko2-67" value="&lt;font face=&quot;Comic Sans MS&quot;&gt;&lt;span style=&quot;font-size: 24px;&quot;&gt;&lt;b&gt;25&lt;/b&gt;&lt;/span&gt;&lt;/font&gt;" style="ellipse;whiteSpace=wrap;html=1;strokeColor=#E0E0E0;fontColor=#333333;fillColor=#E0E0E0;sketch=0;shadow=1;" vertex="1" parent="mpkCJrhkj77R27CFkeaJ-1">
          <mxGeometry x="2441" y="1355" width="90" height="80" as="geometry" />
        </mxCell>
        <mxCell id="bzbKFrgFw_G2LKxQBko2-68" value="&lt;font face=&quot;Comic Sans MS&quot;&gt;&lt;span style=&quot;font-size: 24px;&quot;&gt;&lt;b&gt;30&lt;/b&gt;&lt;/span&gt;&lt;/font&gt;" style="ellipse;whiteSpace=wrap;html=1;strokeColor=#E0E0E0;fontColor=#333333;fillColor=#E0E0E0;sketch=0;shadow=1;" vertex="1" parent="mpkCJrhkj77R27CFkeaJ-1">
          <mxGeometry x="2696" y="1335" width="90" height="80" as="geometry" />
        </mxCell>
        <mxCell id="bzbKFrgFw_G2LKxQBko2-69" value="&lt;font face=&quot;Comic Sans MS&quot;&gt;&lt;span style=&quot;font-size: 24px;&quot;&gt;&lt;b&gt;35&lt;/b&gt;&lt;/span&gt;&lt;/font&gt;" style="ellipse;whiteSpace=wrap;html=1;strokeColor=#E0E0E0;fontColor=#333333;fillColor=#E0E0E0;sketch=0;shadow=1;" vertex="1" parent="mpkCJrhkj77R27CFkeaJ-1">
          <mxGeometry x="2936" y="1335" width="90" height="80" as="geometry" />
        </mxCell>
        <mxCell id="bzbKFrgFw_G2LKxQBko2-70" value="&lt;b&gt;&lt;font color=&quot;#000066&quot; style=&quot;font-size: 18px;&quot; face=&quot;Comic Sans MS&quot;&gt;0&lt;/font&gt;&lt;/b&gt;" style="text;html=1;strokeColor=none;fillColor=none;align=center;verticalAlign=middle;whiteSpace=wrap;rounded=0;shadow=1;sketch=0;fontColor=#1A1A1A;" vertex="1" parent="mpkCJrhkj77R27CFkeaJ-1">
          <mxGeometry x="2516" y="1085" width="60" height="30" as="geometry" />
        </mxCell>
        <mxCell id="bzbKFrgFw_G2LKxQBko2-71" value="&lt;b&gt;&lt;font color=&quot;#000066&quot; style=&quot;font-size: 18px;&quot; face=&quot;Comic Sans MS&quot;&gt;1&lt;/font&gt;&lt;/b&gt;" style="text;html=1;strokeColor=none;fillColor=none;align=center;verticalAlign=middle;whiteSpace=wrap;rounded=0;shadow=1;sketch=0;fontColor=#1A1A1A;" vertex="1" parent="mpkCJrhkj77R27CFkeaJ-1">
          <mxGeometry x="2346" y="1175" width="60" height="30" as="geometry" />
        </mxCell>
        <mxCell id="bzbKFrgFw_G2LKxQBko2-72" value="&lt;b&gt;&lt;font color=&quot;#000066&quot; style=&quot;font-size: 18px;&quot; face=&quot;Comic Sans MS&quot;&gt;2&lt;/font&gt;&lt;/b&gt;" style="text;html=1;strokeColor=none;fillColor=none;align=center;verticalAlign=middle;whiteSpace=wrap;rounded=0;shadow=1;sketch=0;fontColor=#1A1A1A;" vertex="1" parent="mpkCJrhkj77R27CFkeaJ-1">
          <mxGeometry x="2836" y="1165" width="60" height="30" as="geometry" />
        </mxCell>
        <mxCell id="bzbKFrgFw_G2LKxQBko2-73" value="&lt;b&gt;&lt;font color=&quot;#000066&quot; style=&quot;font-size: 18px;&quot; face=&quot;Comic Sans MS&quot;&gt;3&lt;/font&gt;&lt;/b&gt;" style="text;html=1;strokeColor=none;fillColor=none;align=center;verticalAlign=middle;whiteSpace=wrap;rounded=0;shadow=1;sketch=0;fontColor=#1A1A1A;" vertex="1" parent="mpkCJrhkj77R27CFkeaJ-1">
          <mxGeometry x="2241" y="1305" width="60" height="30" as="geometry" />
        </mxCell>
        <mxCell id="bzbKFrgFw_G2LKxQBko2-74" value="&lt;b&gt;&lt;font color=&quot;#000066&quot; style=&quot;font-size: 18px;&quot; face=&quot;Comic Sans MS&quot;&gt;4&lt;/font&gt;&lt;/b&gt;" style="text;html=1;strokeColor=none;fillColor=none;align=center;verticalAlign=middle;whiteSpace=wrap;rounded=0;shadow=1;sketch=0;fontColor=#1A1A1A;" vertex="1" parent="mpkCJrhkj77R27CFkeaJ-1">
          <mxGeometry x="2486" y="1305" width="60" height="30" as="geometry" />
        </mxCell>
        <mxCell id="bzbKFrgFw_G2LKxQBko2-75" value="&lt;b&gt;&lt;font color=&quot;#000066&quot; style=&quot;font-size: 18px;&quot; face=&quot;Comic Sans MS&quot;&gt;5&lt;/font&gt;&lt;/b&gt;" style="text;html=1;strokeColor=none;fillColor=none;align=center;verticalAlign=middle;whiteSpace=wrap;rounded=0;shadow=1;sketch=0;fontColor=#1A1A1A;" vertex="1" parent="mpkCJrhkj77R27CFkeaJ-1">
          <mxGeometry x="2706" y="1295" width="60" height="30" as="geometry" />
        </mxCell>
        <mxCell id="bzbKFrgFw_G2LKxQBko2-76" value="&lt;b&gt;&lt;font color=&quot;#000066&quot; style=&quot;font-size: 18px;&quot; face=&quot;Comic Sans MS&quot;&gt;6&lt;/font&gt;&lt;/b&gt;" style="text;html=1;strokeColor=none;fillColor=none;align=center;verticalAlign=middle;whiteSpace=wrap;rounded=0;shadow=1;sketch=0;fontColor=#1A1A1A;" vertex="1" parent="mpkCJrhkj77R27CFkeaJ-1">
          <mxGeometry x="2966" y="1295" width="60" height="30" as="geometry" />
        </mxCell>
        <mxCell id="bzbKFrgFw_G2LKxQBko2-77" value="&lt;b style=&quot;font-family: &amp;quot;Comic Sans MS&amp;quot;; font-size: 24px;&quot;&gt;20&lt;/b&gt;" style="ellipse;whiteSpace=wrap;html=1;strokeColor=#432D57;fontColor=#ffffff;fillColor=#76608a;sketch=0;shadow=1;" vertex="1" parent="mpkCJrhkj77R27CFkeaJ-1">
          <mxGeometry x="2086" y="1465" width="90" height="80" as="geometry" />
        </mxCell>
        <mxCell id="bzbKFrgFw_G2LKxQBko2-78" value="&lt;b&gt;&lt;font color=&quot;#000066&quot; style=&quot;font-size: 18px;&quot; face=&quot;Comic Sans MS&quot;&gt;7&lt;/font&gt;&lt;/b&gt;" style="text;html=1;strokeColor=none;fillColor=none;align=center;verticalAlign=middle;whiteSpace=wrap;rounded=0;shadow=1;sketch=0;fontColor=#1A1A1A;" vertex="1" parent="mpkCJrhkj77R27CFkeaJ-1">
          <mxGeometry x="2101" y="1425" width="60" height="30" as="geometry" />
        </mxCell>
      </root>
    </mxGraphModel>
  </diagram>
  <diagram name="remove" id="efMP8R2dZnqgXTdaIx7I">
    <mxGraphModel dx="-616" dy="547" grid="1" gridSize="10" guides="1" tooltips="1" connect="1" arrows="1" fold="1" page="1" pageScale="1" pageWidth="827" pageHeight="1169" background="#EEEEEE" math="0" shadow="0">
      <root>
        <mxCell id="6f6VuLsW7-H9Y4DIRkwt-0" />
        <mxCell id="6f6VuLsW7-H9Y4DIRkwt-1" parent="6f6VuLsW7-H9Y4DIRkwt-0" />
        <mxCell id="6f6VuLsW7-H9Y4DIRkwt-76" style="edgeStyle=none;rounded=0;orthogonalLoop=1;jettySize=auto;html=1;strokeColor=#182E3E;fontFamily=Comic Sans MS;fontSize=18;fontColor=#1A1A1A;" edge="1" parent="6f6VuLsW7-H9Y4DIRkwt-1" source="6f6VuLsW7-H9Y4DIRkwt-78" target="6f6VuLsW7-H9Y4DIRkwt-81">
          <mxGeometry relative="1" as="geometry">
            <mxPoint x="2506" y="1235" as="targetPoint" />
          </mxGeometry>
        </mxCell>
        <mxCell id="6f6VuLsW7-H9Y4DIRkwt-77" style="edgeStyle=none;rounded=0;orthogonalLoop=1;jettySize=auto;html=1;strokeColor=#182E3E;fontFamily=Comic Sans MS;fontSize=18;fontColor=#1A1A1A;" edge="1" parent="6f6VuLsW7-H9Y4DIRkwt-1" source="6f6VuLsW7-H9Y4DIRkwt-78" target="6f6VuLsW7-H9Y4DIRkwt-84">
          <mxGeometry relative="1" as="geometry">
            <mxPoint x="2716" y="1225" as="targetPoint" />
          </mxGeometry>
        </mxCell>
        <mxCell id="6f6VuLsW7-H9Y4DIRkwt-78" value="&lt;font style=&quot;font-size: 24px;&quot; face=&quot;Comic Sans MS&quot;&gt;&lt;b&gt;5&lt;/b&gt;&lt;/font&gt;" style="ellipse;whiteSpace=wrap;html=1;strokeColor=#E0E0E0;fontColor=#333333;fillColor=#E0E0E0;sketch=0;shadow=1;" vertex="1" parent="6f6VuLsW7-H9Y4DIRkwt-1">
          <mxGeometry x="2550" y="1070" width="90" height="80" as="geometry" />
        </mxCell>
        <mxCell id="6f6VuLsW7-H9Y4DIRkwt-79" style="edgeStyle=none;rounded=0;orthogonalLoop=1;jettySize=auto;html=1;strokeColor=#182E3E;fontFamily=Comic Sans MS;fontSize=18;fontColor=#1A1A1A;" edge="1" parent="6f6VuLsW7-H9Y4DIRkwt-1" source="6f6VuLsW7-H9Y4DIRkwt-81" target="6f6VuLsW7-H9Y4DIRkwt-86">
          <mxGeometry relative="1" as="geometry" />
        </mxCell>
        <mxCell id="6f6VuLsW7-H9Y4DIRkwt-80" style="edgeStyle=none;rounded=0;orthogonalLoop=1;jettySize=auto;html=1;strokeColor=#182E3E;fontFamily=Comic Sans MS;fontSize=18;fontColor=#1A1A1A;" edge="1" parent="6f6VuLsW7-H9Y4DIRkwt-1" source="6f6VuLsW7-H9Y4DIRkwt-81" target="6f6VuLsW7-H9Y4DIRkwt-87">
          <mxGeometry relative="1" as="geometry" />
        </mxCell>
        <mxCell id="6f6VuLsW7-H9Y4DIRkwt-81" value="&lt;font face=&quot;Comic Sans MS&quot;&gt;&lt;span style=&quot;font-size: 24px;&quot;&gt;&lt;b&gt;8&lt;/b&gt;&lt;/span&gt;&lt;/font&gt;" style="ellipse;whiteSpace=wrap;html=1;strokeColor=#E0E0E0;fontColor=#000000;fillColor=#E0E0E0;sketch=0;shadow=1;" vertex="1" parent="6f6VuLsW7-H9Y4DIRkwt-1">
          <mxGeometry x="2391" y="1205" width="90" height="80" as="geometry" />
        </mxCell>
        <mxCell id="6f6VuLsW7-H9Y4DIRkwt-82" style="edgeStyle=none;rounded=0;orthogonalLoop=1;jettySize=auto;html=1;strokeColor=#182E3E;fontFamily=Comic Sans MS;fontSize=18;fontColor=#1A1A1A;" edge="1" parent="6f6VuLsW7-H9Y4DIRkwt-1" source="6f6VuLsW7-H9Y4DIRkwt-84" target="6f6VuLsW7-H9Y4DIRkwt-88">
          <mxGeometry relative="1" as="geometry" />
        </mxCell>
        <mxCell id="6f6VuLsW7-H9Y4DIRkwt-83" style="edgeStyle=none;rounded=0;orthogonalLoop=1;jettySize=auto;html=1;entryX=0;entryY=0;entryDx=0;entryDy=0;strokeColor=#182E3E;fontFamily=Comic Sans MS;fontSize=18;fontColor=#1A1A1A;" edge="1" parent="6f6VuLsW7-H9Y4DIRkwt-1" source="6f6VuLsW7-H9Y4DIRkwt-84" target="6f6VuLsW7-H9Y4DIRkwt-89">
          <mxGeometry relative="1" as="geometry" />
        </mxCell>
        <mxCell id="6f6VuLsW7-H9Y4DIRkwt-84" value="&lt;font face=&quot;Comic Sans MS&quot;&gt;&lt;span style=&quot;font-size: 24px;&quot;&gt;&lt;b&gt;15&lt;/b&gt;&lt;/span&gt;&lt;/font&gt;" style="ellipse;whiteSpace=wrap;html=1;strokeColor=#E0E0E0;fontColor=#333333;fillColor=#E0E0E0;sketch=0;shadow=1;" vertex="1" parent="6f6VuLsW7-H9Y4DIRkwt-1">
          <mxGeometry x="2730" y="1205" width="90" height="80" as="geometry" />
        </mxCell>
        <mxCell id="6f6VuLsW7-H9Y4DIRkwt-85" style="edgeStyle=none;rounded=0;sketch=0;orthogonalLoop=1;jettySize=auto;html=1;shadow=1;strokeColor=#182E3E;fontFamily=Comic Sans MS;fontSize=24;fontColor=#000066;" edge="1" parent="6f6VuLsW7-H9Y4DIRkwt-1" source="6f6VuLsW7-H9Y4DIRkwt-86" target="6f6VuLsW7-H9Y4DIRkwt-97">
          <mxGeometry relative="1" as="geometry" />
        </mxCell>
        <mxCell id="6f6VuLsW7-H9Y4DIRkwt-86" value="&lt;b style=&quot;font-family: &amp;quot;Comic Sans MS&amp;quot;; font-size: 24px;&quot;&gt;10&lt;/b&gt;" style="ellipse;whiteSpace=wrap;html=1;strokeColor=#E0E0E0;fontColor=#000000;fillColor=#E0E0E0;sketch=0;shadow=1;" vertex="1" parent="6f6VuLsW7-H9Y4DIRkwt-1">
          <mxGeometry x="2290" y="1310" width="90" height="80" as="geometry" />
        </mxCell>
        <mxCell id="6f6VuLsW7-H9Y4DIRkwt-87" value="&lt;font face=&quot;Comic Sans MS&quot;&gt;&lt;span style=&quot;font-size: 24px;&quot;&gt;&lt;b&gt;25&lt;/b&gt;&lt;/span&gt;&lt;/font&gt;" style="ellipse;whiteSpace=wrap;html=1;strokeColor=#E0E0E0;fontColor=#333333;fillColor=#E0E0E0;sketch=0;shadow=1;" vertex="1" parent="6f6VuLsW7-H9Y4DIRkwt-1">
          <mxGeometry x="2481" y="1320" width="90" height="80" as="geometry" />
        </mxCell>
        <mxCell id="6f6VuLsW7-H9Y4DIRkwt-88" value="&lt;font face=&quot;Comic Sans MS&quot;&gt;&lt;span style=&quot;font-size: 24px;&quot;&gt;&lt;b&gt;30&lt;/b&gt;&lt;/span&gt;&lt;/font&gt;" style="ellipse;whiteSpace=wrap;html=1;strokeColor=#E0E0E0;fontColor=#333333;fillColor=#E0E0E0;sketch=0;shadow=1;" vertex="1" parent="6f6VuLsW7-H9Y4DIRkwt-1">
          <mxGeometry x="2640" y="1335" width="90" height="80" as="geometry" />
        </mxCell>
        <mxCell id="6f6VuLsW7-H9Y4DIRkwt-89" value="&lt;font face=&quot;Comic Sans MS&quot;&gt;&lt;span style=&quot;font-size: 24px;&quot;&gt;&lt;b&gt;35&lt;/b&gt;&lt;/span&gt;&lt;/font&gt;" style="ellipse;whiteSpace=wrap;html=1;strokeColor=#E0E0E0;fontColor=#333333;fillColor=#E0E0E0;sketch=0;shadow=1;" vertex="1" parent="6f6VuLsW7-H9Y4DIRkwt-1">
          <mxGeometry x="2820" y="1335" width="90" height="80" as="geometry" />
        </mxCell>
        <mxCell id="6f6VuLsW7-H9Y4DIRkwt-97" value="&lt;b style=&quot;font-family: &amp;quot;Comic Sans MS&amp;quot;; font-size: 24px;&quot;&gt;20&lt;/b&gt;" style="ellipse;whiteSpace=wrap;html=1;strokeColor=#432D57;fontColor=#ffffff;fillColor=#76608a;sketch=0;shadow=1;" vertex="1" parent="6f6VuLsW7-H9Y4DIRkwt-1">
          <mxGeometry x="2240" y="1430" width="90" height="80" as="geometry" />
        </mxCell>
        <mxCell id="6h7sxSfmO6Y3pJbVBXwn-2" value="" style="shape=flexArrow;endArrow=classic;html=1;rounded=0;shadow=1;sketch=0;strokeColor=#3A5431;fontFamily=Comic Sans MS;fontSize=24;fontColor=#000066;fillColor=#6d8764;" edge="1" parent="6f6VuLsW7-H9Y4DIRkwt-1">
          <mxGeometry width="50" height="50" relative="1" as="geometry">
            <mxPoint x="2890" y="1285" as="sourcePoint" />
            <mxPoint x="3120" y="1285" as="targetPoint" />
          </mxGeometry>
        </mxCell>
        <mxCell id="6h7sxSfmO6Y3pJbVBXwn-3" value="&lt;font style=&quot;font-size: 18px;&quot;&gt;&lt;b&gt;取出5，将20放在堆顶&lt;/b&gt;&lt;/font&gt;" style="rounded=1;whiteSpace=wrap;html=1;shadow=1;sketch=0;fontFamily=Comic Sans MS;fontSize=24;strokeColor=#FFFFFF;" vertex="1" parent="6f6VuLsW7-H9Y4DIRkwt-1">
          <mxGeometry x="2895" y="1200" width="190" height="55" as="geometry" />
        </mxCell>
        <mxCell id="6h7sxSfmO6Y3pJbVBXwn-4" style="edgeStyle=none;rounded=0;orthogonalLoop=1;jettySize=auto;html=1;strokeColor=#182E3E;fontFamily=Comic Sans MS;fontSize=18;fontColor=#1A1A1A;" edge="1" parent="6f6VuLsW7-H9Y4DIRkwt-1" source="6h7sxSfmO6Y3pJbVBXwn-6" target="6h7sxSfmO6Y3pJbVBXwn-9">
          <mxGeometry relative="1" as="geometry">
            <mxPoint x="3366" y="1205" as="targetPoint" />
          </mxGeometry>
        </mxCell>
        <mxCell id="6h7sxSfmO6Y3pJbVBXwn-5" style="edgeStyle=none;rounded=0;orthogonalLoop=1;jettySize=auto;html=1;strokeColor=#182E3E;fontFamily=Comic Sans MS;fontSize=18;fontColor=#1A1A1A;" edge="1" parent="6f6VuLsW7-H9Y4DIRkwt-1" source="6h7sxSfmO6Y3pJbVBXwn-6" target="6h7sxSfmO6Y3pJbVBXwn-12">
          <mxGeometry relative="1" as="geometry">
            <mxPoint x="3576" y="1195" as="targetPoint" />
          </mxGeometry>
        </mxCell>
        <mxCell id="6h7sxSfmO6Y3pJbVBXwn-6" value="&lt;b style=&quot;font-family: &amp;quot;Comic Sans MS&amp;quot;; font-size: 24px;&quot;&gt;&lt;font color=&quot;#000066&quot;&gt;20&lt;/font&gt;&lt;/b&gt;" style="ellipse;whiteSpace=wrap;html=1;strokeColor=#666600;fontColor=#ffffff;fillColor=#663300;sketch=0;shadow=1;" vertex="1" parent="6f6VuLsW7-H9Y4DIRkwt-1">
          <mxGeometry x="3410" y="1040" width="90" height="80" as="geometry" />
        </mxCell>
        <mxCell id="6h7sxSfmO6Y3pJbVBXwn-7" style="edgeStyle=none;rounded=0;orthogonalLoop=1;jettySize=auto;html=1;strokeColor=#182E3E;fontFamily=Comic Sans MS;fontSize=18;fontColor=#1A1A1A;" edge="1" parent="6f6VuLsW7-H9Y4DIRkwt-1" source="6h7sxSfmO6Y3pJbVBXwn-9" target="6h7sxSfmO6Y3pJbVBXwn-14">
          <mxGeometry relative="1" as="geometry" />
        </mxCell>
        <mxCell id="6h7sxSfmO6Y3pJbVBXwn-8" style="edgeStyle=none;rounded=0;orthogonalLoop=1;jettySize=auto;html=1;strokeColor=#182E3E;fontFamily=Comic Sans MS;fontSize=18;fontColor=#1A1A1A;" edge="1" parent="6f6VuLsW7-H9Y4DIRkwt-1" source="6h7sxSfmO6Y3pJbVBXwn-9" target="6h7sxSfmO6Y3pJbVBXwn-15">
          <mxGeometry relative="1" as="geometry" />
        </mxCell>
        <mxCell id="6h7sxSfmO6Y3pJbVBXwn-9" value="&lt;font face=&quot;Comic Sans MS&quot;&gt;&lt;span style=&quot;font-size: 24px;&quot;&gt;&lt;b&gt;8&lt;/b&gt;&lt;/span&gt;&lt;/font&gt;" style="ellipse;whiteSpace=wrap;html=1;strokeColor=#E0E0E0;fontColor=#000000;fillColor=#E0E0E0;sketch=0;shadow=1;" vertex="1" parent="6f6VuLsW7-H9Y4DIRkwt-1">
          <mxGeometry x="3251" y="1175" width="90" height="80" as="geometry" />
        </mxCell>
        <mxCell id="6h7sxSfmO6Y3pJbVBXwn-10" style="edgeStyle=none;rounded=0;orthogonalLoop=1;jettySize=auto;html=1;strokeColor=#182E3E;fontFamily=Comic Sans MS;fontSize=18;fontColor=#1A1A1A;" edge="1" parent="6f6VuLsW7-H9Y4DIRkwt-1" source="6h7sxSfmO6Y3pJbVBXwn-12" target="6h7sxSfmO6Y3pJbVBXwn-16">
          <mxGeometry relative="1" as="geometry" />
        </mxCell>
        <mxCell id="6h7sxSfmO6Y3pJbVBXwn-11" style="edgeStyle=none;rounded=0;orthogonalLoop=1;jettySize=auto;html=1;entryX=0;entryY=0;entryDx=0;entryDy=0;strokeColor=#182E3E;fontFamily=Comic Sans MS;fontSize=18;fontColor=#1A1A1A;" edge="1" parent="6f6VuLsW7-H9Y4DIRkwt-1" source="6h7sxSfmO6Y3pJbVBXwn-12" target="6h7sxSfmO6Y3pJbVBXwn-17">
          <mxGeometry relative="1" as="geometry" />
        </mxCell>
        <mxCell id="6h7sxSfmO6Y3pJbVBXwn-12" value="&lt;font face=&quot;Comic Sans MS&quot;&gt;&lt;span style=&quot;font-size: 24px;&quot;&gt;&lt;b&gt;15&lt;/b&gt;&lt;/span&gt;&lt;/font&gt;" style="ellipse;whiteSpace=wrap;html=1;strokeColor=#E0E0E0;fontColor=#333333;fillColor=#E0E0E0;sketch=0;shadow=1;" vertex="1" parent="6f6VuLsW7-H9Y4DIRkwt-1">
          <mxGeometry x="3590" y="1175" width="90" height="80" as="geometry" />
        </mxCell>
        <mxCell id="6h7sxSfmO6Y3pJbVBXwn-14" value="&lt;b style=&quot;font-family: &amp;quot;Comic Sans MS&amp;quot;; font-size: 24px;&quot;&gt;10&lt;/b&gt;" style="ellipse;whiteSpace=wrap;html=1;strokeColor=#E0E0E0;fontColor=#000000;fillColor=#E0E0E0;sketch=0;shadow=1;" vertex="1" parent="6f6VuLsW7-H9Y4DIRkwt-1">
          <mxGeometry x="3150" y="1280" width="90" height="80" as="geometry" />
        </mxCell>
        <mxCell id="6h7sxSfmO6Y3pJbVBXwn-15" value="&lt;font face=&quot;Comic Sans MS&quot;&gt;&lt;span style=&quot;font-size: 24px;&quot;&gt;&lt;b&gt;25&lt;/b&gt;&lt;/span&gt;&lt;/font&gt;" style="ellipse;whiteSpace=wrap;html=1;strokeColor=#E0E0E0;fontColor=#333333;fillColor=#E0E0E0;sketch=0;shadow=1;" vertex="1" parent="6f6VuLsW7-H9Y4DIRkwt-1">
          <mxGeometry x="3341" y="1290" width="90" height="80" as="geometry" />
        </mxCell>
        <mxCell id="6h7sxSfmO6Y3pJbVBXwn-16" value="&lt;font face=&quot;Comic Sans MS&quot;&gt;&lt;span style=&quot;font-size: 24px;&quot;&gt;&lt;b&gt;30&lt;/b&gt;&lt;/span&gt;&lt;/font&gt;" style="ellipse;whiteSpace=wrap;html=1;strokeColor=#E0E0E0;fontColor=#333333;fillColor=#E0E0E0;sketch=0;shadow=1;" vertex="1" parent="6f6VuLsW7-H9Y4DIRkwt-1">
          <mxGeometry x="3500" y="1305" width="90" height="80" as="geometry" />
        </mxCell>
        <mxCell id="6h7sxSfmO6Y3pJbVBXwn-17" value="&lt;font face=&quot;Comic Sans MS&quot;&gt;&lt;span style=&quot;font-size: 24px;&quot;&gt;&lt;b&gt;35&lt;/b&gt;&lt;/span&gt;&lt;/font&gt;" style="ellipse;whiteSpace=wrap;html=1;strokeColor=#E0E0E0;fontColor=#333333;fillColor=#E0E0E0;sketch=0;shadow=1;" vertex="1" parent="6f6VuLsW7-H9Y4DIRkwt-1">
          <mxGeometry x="3680" y="1305" width="90" height="80" as="geometry" />
        </mxCell>
        <mxCell id="6h7sxSfmO6Y3pJbVBXwn-19" value="" style="shape=flexArrow;endArrow=classic;html=1;rounded=0;shadow=1;sketch=0;strokeColor=#3A5431;fontFamily=Comic Sans MS;fontSize=24;fontColor=#000066;fillColor=#6d8764;" edge="1" parent="6f6VuLsW7-H9Y4DIRkwt-1">
          <mxGeometry width="50" height="50" relative="1" as="geometry">
            <mxPoint x="1990" y="1734.5" as="sourcePoint" />
            <mxPoint x="2220" y="1734.5" as="targetPoint" />
          </mxGeometry>
        </mxCell>
        <mxCell id="6h7sxSfmO6Y3pJbVBXwn-20" style="edgeStyle=none;rounded=0;orthogonalLoop=1;jettySize=auto;html=1;strokeColor=#182E3E;fontFamily=Comic Sans MS;fontSize=18;fontColor=#1A1A1A;" edge="1" parent="6f6VuLsW7-H9Y4DIRkwt-1" source="6h7sxSfmO6Y3pJbVBXwn-22" target="6h7sxSfmO6Y3pJbVBXwn-25">
          <mxGeometry relative="1" as="geometry">
            <mxPoint x="2516" y="1725" as="targetPoint" />
          </mxGeometry>
        </mxCell>
        <mxCell id="6h7sxSfmO6Y3pJbVBXwn-21" style="edgeStyle=none;rounded=0;orthogonalLoop=1;jettySize=auto;html=1;strokeColor=#182E3E;fontFamily=Comic Sans MS;fontSize=18;fontColor=#1A1A1A;" edge="1" parent="6f6VuLsW7-H9Y4DIRkwt-1" source="6h7sxSfmO6Y3pJbVBXwn-22" target="6h7sxSfmO6Y3pJbVBXwn-28">
          <mxGeometry relative="1" as="geometry">
            <mxPoint x="2726" y="1715" as="targetPoint" />
          </mxGeometry>
        </mxCell>
        <mxCell id="6h7sxSfmO6Y3pJbVBXwn-22" value="&lt;b style=&quot;font-family: &amp;quot;Comic Sans MS&amp;quot;; font-size: 24px;&quot;&gt;&lt;font color=&quot;#000066&quot;&gt;8&lt;/font&gt;&lt;/b&gt;" style="ellipse;whiteSpace=wrap;html=1;strokeColor=#B09500;fontColor=#000000;fillColor=#e3c800;sketch=0;shadow=1;" vertex="1" parent="6f6VuLsW7-H9Y4DIRkwt-1">
          <mxGeometry x="2560" y="1560" width="90" height="80" as="geometry" />
        </mxCell>
        <mxCell id="6h7sxSfmO6Y3pJbVBXwn-23" style="edgeStyle=none;rounded=0;orthogonalLoop=1;jettySize=auto;html=1;strokeColor=#182E3E;fontFamily=Comic Sans MS;fontSize=18;fontColor=#1A1A1A;" edge="1" parent="6f6VuLsW7-H9Y4DIRkwt-1" source="6h7sxSfmO6Y3pJbVBXwn-25" target="6h7sxSfmO6Y3pJbVBXwn-29">
          <mxGeometry relative="1" as="geometry" />
        </mxCell>
        <mxCell id="6h7sxSfmO6Y3pJbVBXwn-24" style="edgeStyle=none;rounded=0;orthogonalLoop=1;jettySize=auto;html=1;strokeColor=#182E3E;fontFamily=Comic Sans MS;fontSize=18;fontColor=#1A1A1A;" edge="1" parent="6f6VuLsW7-H9Y4DIRkwt-1" source="6h7sxSfmO6Y3pJbVBXwn-25" target="6h7sxSfmO6Y3pJbVBXwn-30">
          <mxGeometry relative="1" as="geometry" />
        </mxCell>
        <mxCell id="6h7sxSfmO6Y3pJbVBXwn-25" value="&lt;font face=&quot;Comic Sans MS&quot;&gt;&lt;span style=&quot;font-size: 24px;&quot;&gt;&lt;b&gt;20&lt;/b&gt;&lt;/span&gt;&lt;/font&gt;" style="ellipse;whiteSpace=wrap;html=1;strokeColor=#B09500;fontColor=#000000;fillColor=#e3c800;sketch=0;shadow=1;" vertex="1" parent="6f6VuLsW7-H9Y4DIRkwt-1">
          <mxGeometry x="2401" y="1695" width="90" height="80" as="geometry" />
        </mxCell>
        <mxCell id="6h7sxSfmO6Y3pJbVBXwn-26" style="edgeStyle=none;rounded=0;orthogonalLoop=1;jettySize=auto;html=1;strokeColor=#182E3E;fontFamily=Comic Sans MS;fontSize=18;fontColor=#1A1A1A;" edge="1" parent="6f6VuLsW7-H9Y4DIRkwt-1" source="6h7sxSfmO6Y3pJbVBXwn-28" target="6h7sxSfmO6Y3pJbVBXwn-31">
          <mxGeometry relative="1" as="geometry" />
        </mxCell>
        <mxCell id="6h7sxSfmO6Y3pJbVBXwn-27" style="edgeStyle=none;rounded=0;orthogonalLoop=1;jettySize=auto;html=1;entryX=0;entryY=0;entryDx=0;entryDy=0;strokeColor=#182E3E;fontFamily=Comic Sans MS;fontSize=18;fontColor=#1A1A1A;" edge="1" parent="6f6VuLsW7-H9Y4DIRkwt-1" source="6h7sxSfmO6Y3pJbVBXwn-28" target="6h7sxSfmO6Y3pJbVBXwn-32">
          <mxGeometry relative="1" as="geometry" />
        </mxCell>
        <mxCell id="6h7sxSfmO6Y3pJbVBXwn-28" value="&lt;font face=&quot;Comic Sans MS&quot;&gt;&lt;span style=&quot;font-size: 24px;&quot;&gt;&lt;b&gt;15&lt;/b&gt;&lt;/span&gt;&lt;/font&gt;" style="ellipse;whiteSpace=wrap;html=1;strokeColor=#E0E0E0;fontColor=#333333;fillColor=#E0E0E0;sketch=0;shadow=1;" vertex="1" parent="6f6VuLsW7-H9Y4DIRkwt-1">
          <mxGeometry x="2740" y="1695" width="90" height="80" as="geometry" />
        </mxCell>
        <mxCell id="6h7sxSfmO6Y3pJbVBXwn-29" value="&lt;b style=&quot;font-family: &amp;quot;Comic Sans MS&amp;quot;; font-size: 24px;&quot;&gt;10&lt;/b&gt;" style="ellipse;whiteSpace=wrap;html=1;strokeColor=#E0E0E0;fontColor=#000000;fillColor=#E0E0E0;sketch=0;shadow=1;" vertex="1" parent="6f6VuLsW7-H9Y4DIRkwt-1">
          <mxGeometry x="2300" y="1800" width="90" height="80" as="geometry" />
        </mxCell>
        <mxCell id="6h7sxSfmO6Y3pJbVBXwn-30" value="&lt;font face=&quot;Comic Sans MS&quot;&gt;&lt;span style=&quot;font-size: 24px;&quot;&gt;&lt;b&gt;25&lt;/b&gt;&lt;/span&gt;&lt;/font&gt;" style="ellipse;whiteSpace=wrap;html=1;strokeColor=#E0E0E0;fontColor=#333333;fillColor=#E0E0E0;sketch=0;shadow=1;" vertex="1" parent="6f6VuLsW7-H9Y4DIRkwt-1">
          <mxGeometry x="2491" y="1810" width="90" height="80" as="geometry" />
        </mxCell>
        <mxCell id="6h7sxSfmO6Y3pJbVBXwn-31" value="&lt;font face=&quot;Comic Sans MS&quot;&gt;&lt;span style=&quot;font-size: 24px;&quot;&gt;&lt;b&gt;30&lt;/b&gt;&lt;/span&gt;&lt;/font&gt;" style="ellipse;whiteSpace=wrap;html=1;strokeColor=#E0E0E0;fontColor=#333333;fillColor=#E0E0E0;sketch=0;shadow=1;" vertex="1" parent="6f6VuLsW7-H9Y4DIRkwt-1">
          <mxGeometry x="2650" y="1825" width="90" height="80" as="geometry" />
        </mxCell>
        <mxCell id="6h7sxSfmO6Y3pJbVBXwn-32" value="&lt;font face=&quot;Comic Sans MS&quot;&gt;&lt;span style=&quot;font-size: 24px;&quot;&gt;&lt;b&gt;35&lt;/b&gt;&lt;/span&gt;&lt;/font&gt;" style="ellipse;whiteSpace=wrap;html=1;strokeColor=#E0E0E0;fontColor=#333333;fillColor=#E0E0E0;sketch=0;shadow=1;" vertex="1" parent="6f6VuLsW7-H9Y4DIRkwt-1">
          <mxGeometry x="2830" y="1825" width="90" height="80" as="geometry" />
        </mxCell>
        <mxCell id="SxDquljFerCEtGDFBFoo-0" value="" style="html=1;shadow=0;dashed=0;align=center;verticalAlign=middle;shape=mxgraph.arrows2.jumpInArrow;dy=13.1;dx=56;arrowHead=50.6;sketch=0;strokeColor=#E0E0E0;fontFamily=Comic Sans MS;fontSize=24;fontColor=#000066;fillColor=#000000;" vertex="1" parent="6f6VuLsW7-H9Y4DIRkwt-1">
          <mxGeometry x="3280.5" y="1045" width="129.5" height="160" as="geometry" />
        </mxCell>
        <mxCell id="SxDquljFerCEtGDFBFoo-1" value="&lt;b&gt;8 &amp;lt; 20&lt;/b&gt;" style="text;html=1;strokeColor=none;fillColor=default;align=center;verticalAlign=middle;whiteSpace=wrap;rounded=1;shadow=1;sketch=0;fontFamily=Comic Sans MS;fontSize=24;fontColor=#000066;" vertex="1" parent="6f6VuLsW7-H9Y4DIRkwt-1">
          <mxGeometry x="3211.5" y="1034" width="100" height="45" as="geometry" />
        </mxCell>
        <mxCell id="SxDquljFerCEtGDFBFoo-2" value="" style="html=1;shadow=0;dashed=0;align=center;verticalAlign=middle;shape=mxgraph.arrows2.jumpInArrow;dy=12.1;dx=59.6;arrowHead=44.6;sketch=0;strokeColor=#E0E0E0;fontFamily=Comic Sans MS;fontSize=24;fontColor=#000066;fillColor=#000000;" vertex="1" parent="6f6VuLsW7-H9Y4DIRkwt-1">
          <mxGeometry x="2310" y="1680" width="100" height="160" as="geometry" />
        </mxCell>
        <mxCell id="SxDquljFerCEtGDFBFoo-3" value="&lt;b&gt;10 &amp;lt; 20&lt;/b&gt;" style="text;html=1;strokeColor=none;fillColor=default;align=center;verticalAlign=middle;whiteSpace=wrap;rounded=1;shadow=1;sketch=0;fontFamily=Comic Sans MS;fontSize=24;fontColor=#000066;" vertex="1" parent="6f6VuLsW7-H9Y4DIRkwt-1">
          <mxGeometry x="2230" y="1649.5" width="100" height="45" as="geometry" />
        </mxCell>
        <mxCell id="SxDquljFerCEtGDFBFoo-4" value="" style="shape=flexArrow;endArrow=classic;html=1;rounded=0;shadow=1;sketch=0;strokeColor=#3A5431;fontFamily=Comic Sans MS;fontSize=24;fontColor=#000066;fillColor=#6d8764;" edge="1" parent="6f6VuLsW7-H9Y4DIRkwt-1">
          <mxGeometry width="50" height="50" relative="1" as="geometry">
            <mxPoint x="2890" y="1710" as="sourcePoint" />
            <mxPoint x="3120" y="1710" as="targetPoint" />
          </mxGeometry>
        </mxCell>
        <mxCell id="SxDquljFerCEtGDFBFoo-5" style="edgeStyle=none;rounded=0;orthogonalLoop=1;jettySize=auto;html=1;strokeColor=#182E3E;fontFamily=Comic Sans MS;fontSize=18;fontColor=#1A1A1A;" edge="1" parent="6f6VuLsW7-H9Y4DIRkwt-1" source="SxDquljFerCEtGDFBFoo-7" target="SxDquljFerCEtGDFBFoo-10">
          <mxGeometry relative="1" as="geometry">
            <mxPoint x="3306" y="1710" as="targetPoint" />
          </mxGeometry>
        </mxCell>
        <mxCell id="SxDquljFerCEtGDFBFoo-6" style="edgeStyle=none;rounded=0;orthogonalLoop=1;jettySize=auto;html=1;strokeColor=#182E3E;fontFamily=Comic Sans MS;fontSize=18;fontColor=#1A1A1A;" edge="1" parent="6f6VuLsW7-H9Y4DIRkwt-1" source="SxDquljFerCEtGDFBFoo-7" target="SxDquljFerCEtGDFBFoo-13">
          <mxGeometry relative="1" as="geometry">
            <mxPoint x="3516" y="1700" as="targetPoint" />
          </mxGeometry>
        </mxCell>
        <mxCell id="SxDquljFerCEtGDFBFoo-7" value="&lt;b style=&quot;font-family: &amp;quot;Comic Sans MS&amp;quot;; font-size: 24px;&quot;&gt;&lt;font color=&quot;#000066&quot;&gt;8&lt;/font&gt;&lt;/b&gt;" style="ellipse;whiteSpace=wrap;html=1;strokeColor=#B09500;fontColor=#000000;fillColor=#e3c800;sketch=0;shadow=1;" vertex="1" parent="6f6VuLsW7-H9Y4DIRkwt-1">
          <mxGeometry x="3350" y="1545" width="90" height="80" as="geometry" />
        </mxCell>
        <mxCell id="SxDquljFerCEtGDFBFoo-8" style="edgeStyle=none;rounded=0;orthogonalLoop=1;jettySize=auto;html=1;strokeColor=#182E3E;fontFamily=Comic Sans MS;fontSize=18;fontColor=#1A1A1A;" edge="1" parent="6f6VuLsW7-H9Y4DIRkwt-1" source="SxDquljFerCEtGDFBFoo-10" target="SxDquljFerCEtGDFBFoo-14">
          <mxGeometry relative="1" as="geometry" />
        </mxCell>
        <mxCell id="SxDquljFerCEtGDFBFoo-9" style="edgeStyle=none;rounded=0;orthogonalLoop=1;jettySize=auto;html=1;strokeColor=#182E3E;fontFamily=Comic Sans MS;fontSize=18;fontColor=#1A1A1A;" edge="1" parent="6f6VuLsW7-H9Y4DIRkwt-1" source="SxDquljFerCEtGDFBFoo-10" target="SxDquljFerCEtGDFBFoo-15">
          <mxGeometry relative="1" as="geometry" />
        </mxCell>
        <mxCell id="SxDquljFerCEtGDFBFoo-10" value="&lt;font face=&quot;Comic Sans MS&quot;&gt;&lt;span style=&quot;font-size: 24px;&quot;&gt;&lt;b&gt;10&lt;/b&gt;&lt;/span&gt;&lt;/font&gt;" style="ellipse;whiteSpace=wrap;html=1;strokeColor=#432D57;fontColor=#ffffff;fillColor=#76608a;sketch=0;shadow=1;" vertex="1" parent="6f6VuLsW7-H9Y4DIRkwt-1">
          <mxGeometry x="3191" y="1680" width="90" height="80" as="geometry" />
        </mxCell>
        <mxCell id="SxDquljFerCEtGDFBFoo-11" style="edgeStyle=none;rounded=0;orthogonalLoop=1;jettySize=auto;html=1;strokeColor=#182E3E;fontFamily=Comic Sans MS;fontSize=18;fontColor=#1A1A1A;" edge="1" parent="6f6VuLsW7-H9Y4DIRkwt-1" source="SxDquljFerCEtGDFBFoo-13" target="SxDquljFerCEtGDFBFoo-16">
          <mxGeometry relative="1" as="geometry" />
        </mxCell>
        <mxCell id="SxDquljFerCEtGDFBFoo-12" style="edgeStyle=none;rounded=0;orthogonalLoop=1;jettySize=auto;html=1;entryX=0;entryY=0;entryDx=0;entryDy=0;strokeColor=#182E3E;fontFamily=Comic Sans MS;fontSize=18;fontColor=#1A1A1A;" edge="1" parent="6f6VuLsW7-H9Y4DIRkwt-1" source="SxDquljFerCEtGDFBFoo-13" target="SxDquljFerCEtGDFBFoo-17">
          <mxGeometry relative="1" as="geometry" />
        </mxCell>
        <mxCell id="SxDquljFerCEtGDFBFoo-13" value="&lt;font face=&quot;Comic Sans MS&quot;&gt;&lt;span style=&quot;font-size: 24px;&quot;&gt;&lt;b&gt;15&lt;/b&gt;&lt;/span&gt;&lt;/font&gt;" style="ellipse;whiteSpace=wrap;html=1;strokeColor=#E0E0E0;fontColor=#333333;fillColor=#E0E0E0;sketch=0;shadow=1;" vertex="1" parent="6f6VuLsW7-H9Y4DIRkwt-1">
          <mxGeometry x="3530" y="1680" width="90" height="80" as="geometry" />
        </mxCell>
        <mxCell id="SxDquljFerCEtGDFBFoo-14" value="&lt;b style=&quot;font-family: &amp;quot;Comic Sans MS&amp;quot;; font-size: 24px;&quot;&gt;20&lt;/b&gt;" style="ellipse;whiteSpace=wrap;html=1;strokeColor=#432D57;fontColor=#ffffff;fillColor=#76608a;sketch=0;shadow=1;" vertex="1" parent="6f6VuLsW7-H9Y4DIRkwt-1">
          <mxGeometry x="3090" y="1785" width="90" height="80" as="geometry" />
        </mxCell>
        <mxCell id="SxDquljFerCEtGDFBFoo-15" value="&lt;font face=&quot;Comic Sans MS&quot;&gt;&lt;span style=&quot;font-size: 24px;&quot;&gt;&lt;b&gt;25&lt;/b&gt;&lt;/span&gt;&lt;/font&gt;" style="ellipse;whiteSpace=wrap;html=1;strokeColor=#E0E0E0;fontColor=#333333;fillColor=#E0E0E0;sketch=0;shadow=1;" vertex="1" parent="6f6VuLsW7-H9Y4DIRkwt-1">
          <mxGeometry x="3281" y="1795" width="90" height="80" as="geometry" />
        </mxCell>
        <mxCell id="SxDquljFerCEtGDFBFoo-16" value="&lt;font face=&quot;Comic Sans MS&quot;&gt;&lt;span style=&quot;font-size: 24px;&quot;&gt;&lt;b&gt;30&lt;/b&gt;&lt;/span&gt;&lt;/font&gt;" style="ellipse;whiteSpace=wrap;html=1;strokeColor=#E0E0E0;fontColor=#333333;fillColor=#E0E0E0;sketch=0;shadow=1;" vertex="1" parent="6f6VuLsW7-H9Y4DIRkwt-1">
          <mxGeometry x="3440" y="1810" width="90" height="80" as="geometry" />
        </mxCell>
        <mxCell id="SxDquljFerCEtGDFBFoo-17" value="&lt;font face=&quot;Comic Sans MS&quot;&gt;&lt;span style=&quot;font-size: 24px;&quot;&gt;&lt;b&gt;35&lt;/b&gt;&lt;/span&gt;&lt;/font&gt;" style="ellipse;whiteSpace=wrap;html=1;strokeColor=#E0E0E0;fontColor=#333333;fillColor=#E0E0E0;sketch=0;shadow=1;" vertex="1" parent="6f6VuLsW7-H9Y4DIRkwt-1">
          <mxGeometry x="3620" y="1810" width="90" height="80" as="geometry" />
        </mxCell>
      </root>
    </mxGraphModel>
  </diagram>
  <diagram name="heap" id="ju9khkJHPBRqvlIx8__y">
    <mxGraphModel dx="1864" dy="547" grid="1" gridSize="10" guides="1" tooltips="1" connect="1" arrows="1" fold="1" page="1" pageScale="1" pageWidth="827" pageHeight="1169" background="#EEEEEE" math="0" shadow="0">
      <root>
        <mxCell id="GRhgb9VrOH-iPYCIEBqP-0" />
        <mxCell id="GRhgb9VrOH-iPYCIEBqP-1" parent="GRhgb9VrOH-iPYCIEBqP-0" />
        <mxCell id="GRhgb9VrOH-iPYCIEBqP-2" style="edgeStyle=none;rounded=0;orthogonalLoop=1;jettySize=auto;html=1;strokeColor=#182E3E;fontFamily=Comic Sans MS;fontSize=18;fontColor=#1A1A1A;entryX=0.667;entryY=0;entryDx=0;entryDy=0;entryPerimeter=0;" parent="GRhgb9VrOH-iPYCIEBqP-1" source="GRhgb9VrOH-iPYCIEBqP-4" target="GRhgb9VrOH-iPYCIEBqP-23" edge="1">
          <mxGeometry relative="1" as="geometry">
            <mxPoint x="220" y="500" as="targetPoint" />
          </mxGeometry>
        </mxCell>
        <mxCell id="GRhgb9VrOH-iPYCIEBqP-3" style="edgeStyle=none;rounded=0;orthogonalLoop=1;jettySize=auto;html=1;strokeColor=#182E3E;fontFamily=Comic Sans MS;fontSize=18;fontColor=#1A1A1A;" parent="GRhgb9VrOH-iPYCIEBqP-1" source="GRhgb9VrOH-iPYCIEBqP-4" target="GRhgb9VrOH-iPYCIEBqP-26" edge="1">
          <mxGeometry relative="1" as="geometry">
            <mxPoint x="430" y="490" as="targetPoint" />
          </mxGeometry>
        </mxCell>
        <mxCell id="GRhgb9VrOH-iPYCIEBqP-4" value="&lt;font style=&quot;font-size: 24px;&quot; face=&quot;Comic Sans MS&quot;&gt;&lt;b&gt;40&lt;/b&gt;&lt;/font&gt;" style="ellipse;whiteSpace=wrap;html=1;strokeColor=#E0E0E0;fontColor=#333333;fillColor=#E0E0E0;sketch=0;shadow=1;" parent="GRhgb9VrOH-iPYCIEBqP-1" vertex="1">
          <mxGeometry x="275" y="360" width="90" height="80" as="geometry" />
        </mxCell>
        <mxCell id="GRhgb9VrOH-iPYCIEBqP-5" value="" style="shape=table;startSize=0;container=1;collapsible=0;childLayout=tableLayout;shadow=1;sketch=0;" parent="GRhgb9VrOH-iPYCIEBqP-1" vertex="1">
          <mxGeometry x="120" y="90" width="480" height="40" as="geometry" />
        </mxCell>
        <mxCell id="GRhgb9VrOH-iPYCIEBqP-6" value="" style="shape=tableRow;horizontal=0;startSize=0;swimlaneHead=0;swimlaneBody=0;top=0;left=0;bottom=0;right=0;collapsible=0;dropTarget=0;fillColor=none;points=[[0,0.5],[1,0.5]];portConstraint=eastwest;shadow=1;sketch=0;strokeColor=#E0E0E0;fontColor=#1A1A1A;" parent="GRhgb9VrOH-iPYCIEBqP-5" vertex="1">
          <mxGeometry width="480" height="40" as="geometry" />
        </mxCell>
        <mxCell id="GRhgb9VrOH-iPYCIEBqP-7" value="&lt;b style=&quot;color: rgb(51, 51, 51); font-family: &amp;quot;Comic Sans MS&amp;quot;; font-size: 24px;&quot;&gt;40&lt;/b&gt;" style="shape=partialRectangle;html=1;whiteSpace=wrap;connectable=0;overflow=hidden;fillColor=none;top=0;left=0;bottom=0;right=0;pointerEvents=1;shadow=1;sketch=0;strokeColor=#E0E0E0;fontColor=#1A1A1A;" parent="GRhgb9VrOH-iPYCIEBqP-6" vertex="1">
          <mxGeometry width="60" height="40" as="geometry">
            <mxRectangle width="60" height="40" as="alternateBounds" />
          </mxGeometry>
        </mxCell>
        <mxCell id="GRhgb9VrOH-iPYCIEBqP-8" value="&lt;b style=&quot;color: rgb(51, 51, 51); font-family: &amp;quot;Comic Sans MS&amp;quot;; font-size: 24px;&quot;&gt;35&lt;/b&gt;" style="shape=partialRectangle;html=1;whiteSpace=wrap;connectable=0;overflow=hidden;fillColor=none;top=0;left=0;bottom=0;right=0;pointerEvents=1;shadow=1;sketch=0;strokeColor=#E0E0E0;fontColor=#1A1A1A;" parent="GRhgb9VrOH-iPYCIEBqP-6" vertex="1">
          <mxGeometry x="60" width="60" height="40" as="geometry">
            <mxRectangle width="60" height="40" as="alternateBounds" />
          </mxGeometry>
        </mxCell>
        <mxCell id="GRhgb9VrOH-iPYCIEBqP-9" value="&lt;b style=&quot;color: rgb(51, 51, 51); font-family: &amp;quot;Comic Sans MS&amp;quot;; font-size: 24px;&quot;&gt;30&lt;/b&gt;" style="shape=partialRectangle;html=1;whiteSpace=wrap;connectable=0;overflow=hidden;fillColor=none;top=0;left=0;bottom=0;right=0;pointerEvents=1;shadow=1;sketch=0;strokeColor=#E0E0E0;fontColor=#1A1A1A;" parent="GRhgb9VrOH-iPYCIEBqP-6" vertex="1">
          <mxGeometry x="120" width="60" height="40" as="geometry">
            <mxRectangle width="60" height="40" as="alternateBounds" />
          </mxGeometry>
        </mxCell>
        <mxCell id="GRhgb9VrOH-iPYCIEBqP-10" value="&lt;font face=&quot;Comic Sans MS&quot; color=&quot;#333333&quot;&gt;&lt;span style=&quot;font-size: 24px;&quot;&gt;&lt;b&gt;20&lt;/b&gt;&lt;/span&gt;&lt;/font&gt;" style="shape=partialRectangle;html=1;whiteSpace=wrap;connectable=0;overflow=hidden;fillColor=none;top=0;left=0;bottom=0;right=0;pointerEvents=1;shadow=1;sketch=0;strokeColor=#E0E0E0;fontColor=#1A1A1A;" parent="GRhgb9VrOH-iPYCIEBqP-6" vertex="1">
          <mxGeometry x="180" width="60" height="40" as="geometry">
            <mxRectangle width="60" height="40" as="alternateBounds" />
          </mxGeometry>
        </mxCell>
        <mxCell id="GRhgb9VrOH-iPYCIEBqP-11" value="&lt;b style=&quot;color: rgb(51, 51, 51); font-family: &amp;quot;Comic Sans MS&amp;quot;; font-size: 24px;&quot;&gt;15&lt;/b&gt;" style="shape=partialRectangle;html=1;whiteSpace=wrap;connectable=0;overflow=hidden;fillColor=none;top=0;left=0;bottom=0;right=0;pointerEvents=1;shadow=1;sketch=0;strokeColor=#E0E0E0;fontColor=#1A1A1A;" parent="GRhgb9VrOH-iPYCIEBqP-6" vertex="1">
          <mxGeometry x="240" width="60" height="40" as="geometry">
            <mxRectangle width="60" height="40" as="alternateBounds" />
          </mxGeometry>
        </mxCell>
        <mxCell id="GRhgb9VrOH-iPYCIEBqP-12" value="&lt;font face=&quot;Comic Sans MS&quot; color=&quot;#333333&quot;&gt;&lt;span style=&quot;font-size: 24px;&quot;&gt;&lt;b&gt;10&lt;/b&gt;&lt;/span&gt;&lt;/font&gt;" style="shape=partialRectangle;html=1;whiteSpace=wrap;connectable=0;overflow=hidden;fillColor=none;top=0;left=0;bottom=0;right=0;pointerEvents=1;shadow=1;sketch=0;strokeColor=#E0E0E0;fontColor=#1A1A1A;" parent="GRhgb9VrOH-iPYCIEBqP-6" vertex="1">
          <mxGeometry x="300" width="60" height="40" as="geometry">
            <mxRectangle width="60" height="40" as="alternateBounds" />
          </mxGeometry>
        </mxCell>
        <mxCell id="GRhgb9VrOH-iPYCIEBqP-13" value="&lt;b style=&quot;color: rgb(51, 51, 51); font-family: &amp;quot;Comic Sans MS&amp;quot;; font-size: 24px;&quot;&gt;25&lt;/b&gt;" style="shape=partialRectangle;html=1;whiteSpace=wrap;connectable=0;overflow=hidden;fillColor=none;top=0;left=0;bottom=0;right=0;pointerEvents=1;shadow=1;sketch=0;strokeColor=#E0E0E0;fontColor=#1A1A1A;" parent="GRhgb9VrOH-iPYCIEBqP-6" vertex="1">
          <mxGeometry x="360" width="60" height="40" as="geometry">
            <mxRectangle width="60" height="40" as="alternateBounds" />
          </mxGeometry>
        </mxCell>
        <mxCell id="2Ow3i2BUfPej7X0_vGiJ-0" value="&lt;font face=&quot;Comic Sans MS&quot; color=&quot;#333333&quot;&gt;&lt;span style=&quot;font-size: 24px;&quot;&gt;&lt;b&gt;5&lt;/b&gt;&lt;/span&gt;&lt;/font&gt;" style="shape=partialRectangle;html=1;whiteSpace=wrap;connectable=0;overflow=hidden;fillColor=none;top=0;left=0;bottom=0;right=0;pointerEvents=1;shadow=1;sketch=0;strokeColor=#E0E0E0;fontColor=#1A1A1A;" parent="GRhgb9VrOH-iPYCIEBqP-6" vertex="1">
          <mxGeometry x="420" width="60" height="40" as="geometry">
            <mxRectangle width="60" height="40" as="alternateBounds" />
          </mxGeometry>
        </mxCell>
        <mxCell id="GRhgb9VrOH-iPYCIEBqP-21" style="edgeStyle=none;rounded=0;orthogonalLoop=1;jettySize=auto;html=1;strokeColor=#182E3E;fontFamily=Comic Sans MS;fontSize=18;fontColor=#1A1A1A;" parent="GRhgb9VrOH-iPYCIEBqP-1" source="GRhgb9VrOH-iPYCIEBqP-23" target="GRhgb9VrOH-iPYCIEBqP-27" edge="1">
          <mxGeometry relative="1" as="geometry" />
        </mxCell>
        <mxCell id="GRhgb9VrOH-iPYCIEBqP-22" style="edgeStyle=none;rounded=0;orthogonalLoop=1;jettySize=auto;html=1;entryX=0;entryY=0;entryDx=0;entryDy=0;strokeColor=#182E3E;fontFamily=Comic Sans MS;fontSize=18;fontColor=#1A1A1A;" parent="GRhgb9VrOH-iPYCIEBqP-1" source="GRhgb9VrOH-iPYCIEBqP-23" target="GRhgb9VrOH-iPYCIEBqP-28" edge="1">
          <mxGeometry relative="1" as="geometry" />
        </mxCell>
        <mxCell id="GRhgb9VrOH-iPYCIEBqP-23" value="&lt;font face=&quot;Comic Sans MS&quot;&gt;&lt;span style=&quot;font-size: 24px;&quot;&gt;&lt;b&gt;35&lt;/b&gt;&lt;/span&gt;&lt;/font&gt;" style="ellipse;whiteSpace=wrap;html=1;strokeColor=#E0E0E0;fontColor=#333333;fillColor=#E0E0E0;sketch=0;shadow=1;" parent="GRhgb9VrOH-iPYCIEBqP-1" vertex="1">
          <mxGeometry x="50" y="490" width="90" height="80" as="geometry" />
        </mxCell>
        <mxCell id="GRhgb9VrOH-iPYCIEBqP-24" style="edgeStyle=none;rounded=0;orthogonalLoop=1;jettySize=auto;html=1;strokeColor=#182E3E;fontFamily=Comic Sans MS;fontSize=18;fontColor=#1A1A1A;" parent="GRhgb9VrOH-iPYCIEBqP-1" source="GRhgb9VrOH-iPYCIEBqP-26" target="GRhgb9VrOH-iPYCIEBqP-29" edge="1">
          <mxGeometry relative="1" as="geometry" />
        </mxCell>
        <mxCell id="GRhgb9VrOH-iPYCIEBqP-25" style="edgeStyle=none;rounded=0;orthogonalLoop=1;jettySize=auto;html=1;entryX=0;entryY=0;entryDx=0;entryDy=0;strokeColor=#182E3E;fontFamily=Comic Sans MS;fontSize=18;fontColor=#1A1A1A;" parent="GRhgb9VrOH-iPYCIEBqP-1" source="GRhgb9VrOH-iPYCIEBqP-26" target="GRhgb9VrOH-iPYCIEBqP-30" edge="1">
          <mxGeometry relative="1" as="geometry" />
        </mxCell>
        <mxCell id="GRhgb9VrOH-iPYCIEBqP-26" value="&lt;font face=&quot;Comic Sans MS&quot;&gt;&lt;span style=&quot;font-size: 24px;&quot;&gt;&lt;b&gt;30&lt;/b&gt;&lt;/span&gt;&lt;/font&gt;" style="ellipse;whiteSpace=wrap;html=1;strokeColor=#E0E0E0;fontColor=#333333;fillColor=#E0E0E0;sketch=0;shadow=1;" parent="GRhgb9VrOH-iPYCIEBqP-1" vertex="1">
          <mxGeometry x="520" y="470" width="90" height="80" as="geometry" />
        </mxCell>
        <mxCell id="2Ow3i2BUfPej7X0_vGiJ-2" style="edgeStyle=none;rounded=0;sketch=0;orthogonalLoop=1;jettySize=auto;html=1;shadow=1;strokeColor=#182E3E;fontFamily=Comic Sans MS;fontSize=18;fontColor=#000000;" parent="GRhgb9VrOH-iPYCIEBqP-1" source="GRhgb9VrOH-iPYCIEBqP-27" target="2Ow3i2BUfPej7X0_vGiJ-1" edge="1">
          <mxGeometry relative="1" as="geometry" />
        </mxCell>
        <mxCell id="GRhgb9VrOH-iPYCIEBqP-27" value="&lt;b style=&quot;font-family: &amp;quot;Comic Sans MS&amp;quot;; font-size: 24px;&quot;&gt;20&lt;/b&gt;" style="ellipse;whiteSpace=wrap;html=1;strokeColor=#E0E0E0;fontColor=#333333;fillColor=#E0E0E0;sketch=0;shadow=1;" parent="GRhgb9VrOH-iPYCIEBqP-1" vertex="1">
          <mxGeometry x="-80" y="600" width="90" height="80" as="geometry" />
        </mxCell>
        <mxCell id="GRhgb9VrOH-iPYCIEBqP-28" value="&lt;font face=&quot;Comic Sans MS&quot;&gt;&lt;span style=&quot;font-size: 24px;&quot;&gt;&lt;b&gt;15&lt;/b&gt;&lt;/span&gt;&lt;/font&gt;" style="ellipse;whiteSpace=wrap;html=1;strokeColor=#E0E0E0;fontColor=#333333;fillColor=#E0E0E0;sketch=0;shadow=1;" parent="GRhgb9VrOH-iPYCIEBqP-1" vertex="1">
          <mxGeometry x="155" y="620" width="90" height="80" as="geometry" />
        </mxCell>
        <mxCell id="GRhgb9VrOH-iPYCIEBqP-29" value="&lt;font face=&quot;Comic Sans MS&quot;&gt;&lt;span style=&quot;font-size: 24px;&quot;&gt;&lt;b&gt;10&lt;/b&gt;&lt;/span&gt;&lt;/font&gt;" style="ellipse;whiteSpace=wrap;html=1;strokeColor=#E0E0E0;fontColor=#333333;fillColor=#E0E0E0;sketch=0;shadow=1;" parent="GRhgb9VrOH-iPYCIEBqP-1" vertex="1">
          <mxGeometry x="410" y="600" width="90" height="80" as="geometry" />
        </mxCell>
        <mxCell id="GRhgb9VrOH-iPYCIEBqP-30" value="&lt;font face=&quot;Comic Sans MS&quot;&gt;&lt;span style=&quot;font-size: 24px;&quot;&gt;&lt;b&gt;25&lt;/b&gt;&lt;/span&gt;&lt;/font&gt;" style="ellipse;whiteSpace=wrap;html=1;strokeColor=#E0E0E0;fontColor=#333333;fillColor=#E0E0E0;sketch=0;shadow=1;" parent="GRhgb9VrOH-iPYCIEBqP-1" vertex="1">
          <mxGeometry x="650" y="600" width="90" height="80" as="geometry" />
        </mxCell>
        <mxCell id="GRhgb9VrOH-iPYCIEBqP-38" value="" style="shape=flexArrow;endArrow=classic;html=1;rounded=0;strokeColor=#3A5431;fontFamily=Comic Sans MS;fontSize=24;fontColor=#000066;fillColor=#6d8764;sketch=0;shadow=1;" parent="GRhgb9VrOH-iPYCIEBqP-1" edge="1">
          <mxGeometry width="50" height="50" relative="1" as="geometry">
            <mxPoint x="310" y="150" as="sourcePoint" />
            <mxPoint x="310" y="310" as="targetPoint" />
          </mxGeometry>
        </mxCell>
        <mxCell id="GRhgb9VrOH-iPYCIEBqP-39" value="&lt;b&gt;大顶堆&lt;/b&gt;" style="text;html=1;strokeColor=none;fillColor=default;align=center;verticalAlign=middle;whiteSpace=wrap;rounded=0;shadow=1;sketch=0;fontFamily=Comic Sans MS;fontSize=24;fontColor=#000066;" parent="GRhgb9VrOH-iPYCIEBqP-1" vertex="1">
          <mxGeometry x="330" y="200" width="100" height="40" as="geometry" />
        </mxCell>
        <mxCell id="2Ow3i2BUfPej7X0_vGiJ-1" value="&lt;b style=&quot;font-family: &amp;quot;Comic Sans MS&amp;quot;; font-size: 24px;&quot;&gt;5&lt;/b&gt;" style="ellipse;whiteSpace=wrap;html=1;strokeColor=#E0E0E0;fontColor=#333333;fillColor=#E0E0E0;sketch=0;shadow=1;" parent="GRhgb9VrOH-iPYCIEBqP-1" vertex="1">
          <mxGeometry x="-160" y="720" width="90" height="80" as="geometry" />
        </mxCell>
      </root>
    </mxGraphModel>
  </diagram>
  <diagram name="DelayQueue" id="RTiBnxq0PtdFgAn3umUD">
    <mxGraphModel dx="1037" dy="547" grid="1" gridSize="10" guides="1" tooltips="1" connect="1" arrows="1" fold="1" page="1" pageScale="1" pageWidth="827" pageHeight="1169" background="#EEEEEE" math="0" shadow="0">
      <root>
        <mxCell id="9CDm0vZc7Yhf9oVPXGd--0" />
        <mxCell id="9CDm0vZc7Yhf9oVPXGd--1" parent="9CDm0vZc7Yhf9oVPXGd--0" />
        <mxCell id="9CDm0vZc7Yhf9oVPXGd--2" style="edgeStyle=none;rounded=0;orthogonalLoop=1;jettySize=auto;html=1;strokeColor=#182E3E;fontFamily=Comic Sans MS;fontSize=18;fontColor=#1A1A1A;entryX=1;entryY=0;entryDx=0;entryDy=0;" parent="9CDm0vZc7Yhf9oVPXGd--1" source="9CDm0vZc7Yhf9oVPXGd--4" target="9CDm0vZc7Yhf9oVPXGd--23" edge="1">
          <mxGeometry relative="1" as="geometry">
            <mxPoint x="210" y="450" as="targetPoint" />
          </mxGeometry>
        </mxCell>
        <mxCell id="9CDm0vZc7Yhf9oVPXGd--3" style="edgeStyle=none;rounded=0;orthogonalLoop=1;jettySize=auto;html=1;strokeColor=#182E3E;fontFamily=Comic Sans MS;fontSize=18;fontColor=#1A1A1A;" parent="9CDm0vZc7Yhf9oVPXGd--1" source="9CDm0vZc7Yhf9oVPXGd--4" target="9CDm0vZc7Yhf9oVPXGd--26" edge="1">
          <mxGeometry relative="1" as="geometry">
            <mxPoint x="420" y="440" as="targetPoint" />
          </mxGeometry>
        </mxCell>
        <mxCell id="9CDm0vZc7Yhf9oVPXGd--4" value="&lt;font style=&quot;font-size: 24px;&quot; face=&quot;Comic Sans MS&quot;&gt;&lt;b&gt;5&lt;/b&gt;&lt;/font&gt;" style="ellipse;whiteSpace=wrap;html=1;strokeColor=#E0E0E0;fontColor=#333333;fillColor=#E0E0E0;sketch=0;shadow=1;" parent="9CDm0vZc7Yhf9oVPXGd--1" vertex="1">
          <mxGeometry x="265" y="290" width="90" height="80" as="geometry" />
        </mxCell>
        <mxCell id="9CDm0vZc7Yhf9oVPXGd--5" value="" style="shape=table;startSize=0;container=1;collapsible=0;childLayout=tableLayout;shadow=1;sketch=0;" parent="9CDm0vZc7Yhf9oVPXGd--1" vertex="1">
          <mxGeometry x="120" y="90" width="420" height="40" as="geometry" />
        </mxCell>
        <mxCell id="9CDm0vZc7Yhf9oVPXGd--6" value="" style="shape=tableRow;horizontal=0;startSize=0;swimlaneHead=0;swimlaneBody=0;top=0;left=0;bottom=0;right=0;collapsible=0;dropTarget=0;fillColor=none;points=[[0,0.5],[1,0.5]];portConstraint=eastwest;shadow=1;sketch=0;strokeColor=#E0E0E0;fontColor=#1A1A1A;" parent="9CDm0vZc7Yhf9oVPXGd--5" vertex="1">
          <mxGeometry width="420" height="40" as="geometry" />
        </mxCell>
        <mxCell id="9CDm0vZc7Yhf9oVPXGd--7" value="&lt;b style=&quot;color: rgb(51, 51, 51); font-family: &amp;quot;Comic Sans MS&amp;quot;; font-size: 24px;&quot;&gt;5&lt;/b&gt;" style="shape=partialRectangle;html=1;whiteSpace=wrap;connectable=0;overflow=hidden;fillColor=none;top=0;left=0;bottom=0;right=0;pointerEvents=1;shadow=1;sketch=0;strokeColor=#E0E0E0;fontColor=#1A1A1A;" parent="9CDm0vZc7Yhf9oVPXGd--6" vertex="1">
          <mxGeometry width="60" height="40" as="geometry">
            <mxRectangle width="60" height="40" as="alternateBounds" />
          </mxGeometry>
        </mxCell>
        <mxCell id="9CDm0vZc7Yhf9oVPXGd--8" value="&lt;b style=&quot;color: rgb(51, 51, 51); font-family: &amp;quot;Comic Sans MS&amp;quot;; font-size: 24px;&quot;&gt;15&lt;/b&gt;" style="shape=partialRectangle;html=1;whiteSpace=wrap;connectable=0;overflow=hidden;fillColor=none;top=0;left=0;bottom=0;right=0;pointerEvents=1;shadow=1;sketch=0;strokeColor=#E0E0E0;fontColor=#1A1A1A;" parent="9CDm0vZc7Yhf9oVPXGd--6" vertex="1">
          <mxGeometry x="60" width="60" height="40" as="geometry">
            <mxRectangle width="60" height="40" as="alternateBounds" />
          </mxGeometry>
        </mxCell>
        <mxCell id="9CDm0vZc7Yhf9oVPXGd--9" value="&lt;b style=&quot;color: rgb(51, 51, 51); font-family: &amp;quot;Comic Sans MS&amp;quot;; font-size: 24px;&quot;&gt;10&lt;/b&gt;" style="shape=partialRectangle;html=1;whiteSpace=wrap;connectable=0;overflow=hidden;fillColor=none;top=0;left=0;bottom=0;right=0;pointerEvents=1;shadow=1;sketch=0;strokeColor=#E0E0E0;fontColor=#1A1A1A;" parent="9CDm0vZc7Yhf9oVPXGd--6" vertex="1">
          <mxGeometry x="120" width="60" height="40" as="geometry">
            <mxRectangle width="60" height="40" as="alternateBounds" />
          </mxGeometry>
        </mxCell>
        <mxCell id="9CDm0vZc7Yhf9oVPXGd--10" value="&lt;font face=&quot;Comic Sans MS&quot; color=&quot;#333333&quot;&gt;&lt;span style=&quot;font-size: 24px;&quot;&gt;&lt;b&gt;20&lt;/b&gt;&lt;/span&gt;&lt;/font&gt;" style="shape=partialRectangle;html=1;whiteSpace=wrap;connectable=0;overflow=hidden;fillColor=none;top=0;left=0;bottom=0;right=0;pointerEvents=1;shadow=1;sketch=0;strokeColor=#E0E0E0;fontColor=#1A1A1A;" parent="9CDm0vZc7Yhf9oVPXGd--6" vertex="1">
          <mxGeometry x="180" width="60" height="40" as="geometry">
            <mxRectangle width="60" height="40" as="alternateBounds" />
          </mxGeometry>
        </mxCell>
        <mxCell id="9CDm0vZc7Yhf9oVPXGd--11" value="&lt;b style=&quot;color: rgb(51, 51, 51); font-family: &amp;quot;Comic Sans MS&amp;quot;; font-size: 24px;&quot;&gt;25&lt;/b&gt;" style="shape=partialRectangle;html=1;whiteSpace=wrap;connectable=0;overflow=hidden;fillColor=none;top=0;left=0;bottom=0;right=0;pointerEvents=1;shadow=1;sketch=0;strokeColor=#E0E0E0;fontColor=#1A1A1A;" parent="9CDm0vZc7Yhf9oVPXGd--6" vertex="1">
          <mxGeometry x="240" width="60" height="40" as="geometry">
            <mxRectangle width="60" height="40" as="alternateBounds" />
          </mxGeometry>
        </mxCell>
        <mxCell id="9CDm0vZc7Yhf9oVPXGd--12" value="&lt;font face=&quot;Comic Sans MS&quot; color=&quot;#333333&quot;&gt;&lt;span style=&quot;font-size: 24px;&quot;&gt;&lt;b&gt;30&lt;/b&gt;&lt;/span&gt;&lt;/font&gt;" style="shape=partialRectangle;html=1;whiteSpace=wrap;connectable=0;overflow=hidden;fillColor=none;top=0;left=0;bottom=0;right=0;pointerEvents=1;shadow=1;sketch=0;strokeColor=#E0E0E0;fontColor=#1A1A1A;" parent="9CDm0vZc7Yhf9oVPXGd--6" vertex="1">
          <mxGeometry x="300" width="60" height="40" as="geometry">
            <mxRectangle width="60" height="40" as="alternateBounds" />
          </mxGeometry>
        </mxCell>
        <mxCell id="9CDm0vZc7Yhf9oVPXGd--13" value="&lt;b style=&quot;color: rgb(51, 51, 51); font-family: &amp;quot;Comic Sans MS&amp;quot;; font-size: 24px;&quot;&gt;35&lt;/b&gt;" style="shape=partialRectangle;html=1;whiteSpace=wrap;connectable=0;overflow=hidden;fillColor=none;top=0;left=0;bottom=0;right=0;pointerEvents=1;shadow=1;sketch=0;strokeColor=#E0E0E0;fontColor=#1A1A1A;" parent="9CDm0vZc7Yhf9oVPXGd--6" vertex="1">
          <mxGeometry x="360" width="60" height="40" as="geometry">
            <mxRectangle width="60" height="40" as="alternateBounds" />
          </mxGeometry>
        </mxCell>
        <mxCell id="9CDm0vZc7Yhf9oVPXGd--21" style="edgeStyle=none;rounded=0;orthogonalLoop=1;jettySize=auto;html=1;strokeColor=#182E3E;fontFamily=Comic Sans MS;fontSize=18;fontColor=#1A1A1A;" parent="9CDm0vZc7Yhf9oVPXGd--1" source="9CDm0vZc7Yhf9oVPXGd--23" target="9CDm0vZc7Yhf9oVPXGd--27" edge="1">
          <mxGeometry relative="1" as="geometry" />
        </mxCell>
        <mxCell id="9CDm0vZc7Yhf9oVPXGd--22" style="edgeStyle=none;rounded=0;orthogonalLoop=1;jettySize=auto;html=1;strokeColor=#182E3E;fontFamily=Comic Sans MS;fontSize=18;fontColor=#1A1A1A;" parent="9CDm0vZc7Yhf9oVPXGd--1" source="9CDm0vZc7Yhf9oVPXGd--23" target="9CDm0vZc7Yhf9oVPXGd--28" edge="1">
          <mxGeometry relative="1" as="geometry" />
        </mxCell>
        <mxCell id="9CDm0vZc7Yhf9oVPXGd--23" value="&lt;font face=&quot;Comic Sans MS&quot;&gt;&lt;span style=&quot;font-size: 24px;&quot;&gt;&lt;b&gt;15&lt;/b&gt;&lt;/span&gt;&lt;/font&gt;" style="ellipse;whiteSpace=wrap;html=1;strokeColor=#E0E0E0;fontColor=#333333;fillColor=#E0E0E0;sketch=0;shadow=1;" parent="9CDm0vZc7Yhf9oVPXGd--1" vertex="1">
          <mxGeometry x="120" y="370" width="90" height="80" as="geometry" />
        </mxCell>
        <mxCell id="9CDm0vZc7Yhf9oVPXGd--24" style="edgeStyle=none;rounded=0;orthogonalLoop=1;jettySize=auto;html=1;strokeColor=#182E3E;fontFamily=Comic Sans MS;fontSize=18;fontColor=#1A1A1A;" parent="9CDm0vZc7Yhf9oVPXGd--1" source="9CDm0vZc7Yhf9oVPXGd--26" target="9CDm0vZc7Yhf9oVPXGd--29" edge="1">
          <mxGeometry relative="1" as="geometry" />
        </mxCell>
        <mxCell id="9CDm0vZc7Yhf9oVPXGd--25" style="edgeStyle=none;rounded=0;orthogonalLoop=1;jettySize=auto;html=1;entryX=0;entryY=0;entryDx=0;entryDy=0;strokeColor=#182E3E;fontFamily=Comic Sans MS;fontSize=18;fontColor=#1A1A1A;" parent="9CDm0vZc7Yhf9oVPXGd--1" source="9CDm0vZc7Yhf9oVPXGd--26" target="9CDm0vZc7Yhf9oVPXGd--30" edge="1">
          <mxGeometry relative="1" as="geometry" />
        </mxCell>
        <mxCell id="9CDm0vZc7Yhf9oVPXGd--26" value="&lt;font face=&quot;Comic Sans MS&quot;&gt;&lt;span style=&quot;font-size: 24px;&quot;&gt;&lt;b&gt;10&lt;/b&gt;&lt;/span&gt;&lt;/font&gt;" style="ellipse;whiteSpace=wrap;html=1;strokeColor=#E0E0E0;fontColor=#333333;fillColor=#E0E0E0;sketch=0;shadow=1;" parent="9CDm0vZc7Yhf9oVPXGd--1" vertex="1">
          <mxGeometry x="470" y="380" width="90" height="80" as="geometry" />
        </mxCell>
        <mxCell id="9CDm0vZc7Yhf9oVPXGd--27" value="&lt;b style=&quot;font-family: &amp;quot;Comic Sans MS&amp;quot;; font-size: 24px;&quot;&gt;20&lt;/b&gt;" style="ellipse;whiteSpace=wrap;html=1;strokeColor=#E0E0E0;fontColor=#333333;fillColor=#E0E0E0;sketch=0;shadow=1;" parent="9CDm0vZc7Yhf9oVPXGd--1" vertex="1">
          <mxGeometry x="10" y="520" width="90" height="80" as="geometry" />
        </mxCell>
        <mxCell id="9CDm0vZc7Yhf9oVPXGd--28" value="&lt;font face=&quot;Comic Sans MS&quot;&gt;&lt;span style=&quot;font-size: 24px;&quot;&gt;&lt;b&gt;25&lt;/b&gt;&lt;/span&gt;&lt;/font&gt;" style="ellipse;whiteSpace=wrap;html=1;strokeColor=#E0E0E0;fontColor=#333333;fillColor=#E0E0E0;sketch=0;shadow=1;" parent="9CDm0vZc7Yhf9oVPXGd--1" vertex="1">
          <mxGeometry x="200" y="520" width="90" height="80" as="geometry" />
        </mxCell>
        <mxCell id="9CDm0vZc7Yhf9oVPXGd--29" value="&lt;font face=&quot;Comic Sans MS&quot;&gt;&lt;span style=&quot;font-size: 24px;&quot;&gt;&lt;b&gt;30&lt;/b&gt;&lt;/span&gt;&lt;/font&gt;" style="ellipse;whiteSpace=wrap;html=1;strokeColor=#E0E0E0;fontColor=#333333;fillColor=#E0E0E0;sketch=0;shadow=1;" parent="9CDm0vZc7Yhf9oVPXGd--1" vertex="1">
          <mxGeometry x="360" y="505" width="90" height="80" as="geometry" />
        </mxCell>
        <mxCell id="9CDm0vZc7Yhf9oVPXGd--30" value="&lt;font face=&quot;Comic Sans MS&quot;&gt;&lt;span style=&quot;font-size: 24px;&quot;&gt;&lt;b&gt;35&lt;/b&gt;&lt;/span&gt;&lt;/font&gt;" style="ellipse;whiteSpace=wrap;html=1;strokeColor=#E0E0E0;fontColor=#333333;fillColor=#E0E0E0;sketch=0;shadow=1;" parent="9CDm0vZc7Yhf9oVPXGd--1" vertex="1">
          <mxGeometry x="580" y="505" width="90" height="80" as="geometry" />
        </mxCell>
        <mxCell id="9CDm0vZc7Yhf9oVPXGd--38" value="" style="shape=flexArrow;endArrow=classic;html=1;rounded=0;strokeColor=#3A5431;fontFamily=Comic Sans MS;fontSize=24;fontColor=#000066;fillColor=#6d8764;sketch=0;shadow=1;" parent="9CDm0vZc7Yhf9oVPXGd--1" edge="1">
          <mxGeometry width="50" height="50" relative="1" as="geometry">
            <mxPoint x="310" y="150" as="sourcePoint" />
            <mxPoint x="310" y="280" as="targetPoint" />
          </mxGeometry>
        </mxCell>
        <mxCell id="9CDm0vZc7Yhf9oVPXGd--39" value="&lt;b&gt;小顶堆&lt;/b&gt;" style="text;html=1;strokeColor=none;fillColor=default;align=center;verticalAlign=middle;whiteSpace=wrap;rounded=0;shadow=1;sketch=0;fontFamily=Comic Sans MS;fontSize=24;fontColor=#000066;" parent="9CDm0vZc7Yhf9oVPXGd--1" vertex="1">
          <mxGeometry x="330" y="180" width="100" height="40" as="geometry" />
        </mxCell>
      </root>
    </mxGraphModel>
  </diagram>
  <diagram name="DelayQueue -take-case1 的副本" id="1uQ4eu6UCdyTyWDTxn08">
    <mxGraphModel dx="1864" dy="1716" grid="1" gridSize="10" guides="1" tooltips="1" connect="1" arrows="1" fold="1" page="1" pageScale="1" pageWidth="827" pageHeight="1169" background="#EEEEEE" math="0" shadow="0">
      <root>
        <mxCell id="f8kTxvdTKU19W0bkNOM6-0" />
        <mxCell id="f8kTxvdTKU19W0bkNOM6-1" parent="f8kTxvdTKU19W0bkNOM6-0" />
        <mxCell id="YzhHuyXCHmp-0Bh4Sb3p-1" style="edgeStyle=orthogonalEdgeStyle;curved=1;rounded=1;orthogonalLoop=1;jettySize=auto;html=1;shadow=1;strokeColor=#314354;fontFamily=Comic Sans MS;fontSize=18;fillColor=#647687;entryX=0.5;entryY=0;entryDx=0;entryDy=0;exitX=0.5;exitY=1;exitDx=0;exitDy=0;" edge="1" parent="f8kTxvdTKU19W0bkNOM6-1" source="YzhHuyXCHmp-0Bh4Sb3p-31" target="YzhHuyXCHmp-0Bh4Sb3p-2">
          <mxGeometry relative="1" as="geometry">
            <mxPoint x="323" y="240" as="targetPoint" />
            <mxPoint x="323" y="70" as="sourcePoint" />
          </mxGeometry>
        </mxCell>
        <mxCell id="YzhHuyXCHmp-0Bh4Sb3p-3" style="edgeStyle=orthogonalEdgeStyle;curved=1;rounded=1;orthogonalLoop=1;jettySize=auto;html=1;shadow=1;strokeColor=#3A5431;fontFamily=Comic Sans MS;fontSize=18;fillColor=#6d8764;entryX=0.446;entryY=-0.013;entryDx=0;entryDy=0;entryPerimeter=0;" edge="1" parent="f8kTxvdTKU19W0bkNOM6-1" source="YzhHuyXCHmp-0Bh4Sb3p-2" target="YzhHuyXCHmp-0Bh4Sb3p-24">
          <mxGeometry relative="1" as="geometry">
            <mxPoint x="30" y="410" as="targetPoint" />
          </mxGeometry>
        </mxCell>
        <mxCell id="YzhHuyXCHmp-0Bh4Sb3p-9" style="edgeStyle=orthogonalEdgeStyle;curved=1;rounded=1;orthogonalLoop=1;jettySize=auto;html=1;shadow=1;strokeColor=#3A5431;fontFamily=Comic Sans MS;fontSize=18;fillColor=#6d8764;entryX=0.5;entryY=0;entryDx=0;entryDy=0;" edge="1" parent="f8kTxvdTKU19W0bkNOM6-1" source="YzhHuyXCHmp-0Bh4Sb3p-2" target="YzhHuyXCHmp-0Bh4Sb3p-8">
          <mxGeometry relative="1" as="geometry">
            <mxPoint x="620" y="370" as="targetPoint" />
          </mxGeometry>
        </mxCell>
        <mxCell id="YzhHuyXCHmp-0Bh4Sb3p-2" value="&lt;b&gt;检查队列中是否有任务&lt;/b&gt;" style="rhombus;whiteSpace=wrap;html=1;rounded=1;shadow=1;strokeColor=#6D8764;fontFamily=Comic Sans MS;fontSize=18;fillColor=#6D8764;" vertex="1" parent="f8kTxvdTKU19W0bkNOM6-1">
          <mxGeometry x="213" y="240" width="220" height="80" as="geometry" />
        </mxCell>
        <mxCell id="YzhHuyXCHmp-0Bh4Sb3p-5" value="&lt;b&gt;没有&lt;/b&gt;" style="text;html=1;strokeColor=none;fillColor=default;align=center;verticalAlign=middle;whiteSpace=wrap;rounded=1;shadow=1;fontFamily=Comic Sans MS;fontSize=18;" vertex="1" parent="f8kTxvdTKU19W0bkNOM6-1">
          <mxGeometry x="170" y="220" width="80" height="40" as="geometry" />
        </mxCell>
        <mxCell id="YzhHuyXCHmp-0Bh4Sb3p-12" style="edgeStyle=orthogonalEdgeStyle;curved=1;rounded=1;orthogonalLoop=1;jettySize=auto;html=1;shadow=1;strokeColor=#B20000;fontFamily=Comic Sans MS;fontSize=18;fillColor=#e51400;exitX=0;exitY=0.5;exitDx=0;exitDy=0;strokeWidth=2;" edge="1" parent="f8kTxvdTKU19W0bkNOM6-1" source="YzhHuyXCHmp-0Bh4Sb3p-24">
          <mxGeometry relative="1" as="geometry">
            <mxPoint x="320" y="140" as="targetPoint" />
            <mxPoint x="-30" y="450" as="sourcePoint" />
            <Array as="points">
              <mxPoint x="-230" y="540" />
              <mxPoint x="-230" y="140" />
            </Array>
          </mxGeometry>
        </mxCell>
        <mxCell id="YzhHuyXCHmp-0Bh4Sb3p-7" value="&lt;b&gt;有&lt;/b&gt;" style="text;html=1;strokeColor=none;fillColor=default;align=center;verticalAlign=middle;whiteSpace=wrap;rounded=1;shadow=1;fontFamily=Comic Sans MS;fontSize=18;" vertex="1" parent="f8kTxvdTKU19W0bkNOM6-1">
          <mxGeometry x="390" y="220" width="87" height="40" as="geometry" />
        </mxCell>
        <mxCell id="YzhHuyXCHmp-0Bh4Sb3p-10" style="edgeStyle=orthogonalEdgeStyle;curved=1;rounded=1;orthogonalLoop=1;jettySize=auto;html=1;shadow=1;strokeColor=#3A5431;fontFamily=Comic Sans MS;fontSize=18;fillColor=#6d8764;entryX=0.5;entryY=0;entryDx=0;entryDy=0;" edge="1" parent="f8kTxvdTKU19W0bkNOM6-1" source="YzhHuyXCHmp-0Bh4Sb3p-8" target="YzhHuyXCHmp-0Bh4Sb3p-16">
          <mxGeometry relative="1" as="geometry">
            <mxPoint x="330" y="580" as="targetPoint" />
          </mxGeometry>
        </mxCell>
        <mxCell id="YzhHuyXCHmp-0Bh4Sb3p-34" style="edgeStyle=orthogonalEdgeStyle;curved=1;rounded=1;orthogonalLoop=1;jettySize=auto;html=1;entryX=0.5;entryY=0;entryDx=0;entryDy=0;shadow=1;strokeColor=#3A5431;fontFamily=Comic Sans MS;fontSize=18;fillColor=#6d8764;" edge="1" parent="f8kTxvdTKU19W0bkNOM6-1" source="YzhHuyXCHmp-0Bh4Sb3p-8" target="YzhHuyXCHmp-0Bh4Sb3p-33">
          <mxGeometry relative="1" as="geometry" />
        </mxCell>
        <mxCell id="YzhHuyXCHmp-0Bh4Sb3p-8" value="&lt;b&gt;计算出任务时间&lt;/b&gt;&lt;b&gt;与&lt;/b&gt;&lt;b&gt;当前时间&lt;/b&gt;&lt;b&gt;的差值delay&lt;/b&gt;" style="rhombus;whiteSpace=wrap;html=1;rounded=1;shadow=1;strokeColor=#D5E8D4;fontFamily=Comic Sans MS;fontSize=18;fillColor=#D5E8D4;" vertex="1" parent="f8kTxvdTKU19W0bkNOM6-1">
          <mxGeometry x="450" y="410" width="410" height="80" as="geometry" />
        </mxCell>
        <mxCell id="YzhHuyXCHmp-0Bh4Sb3p-13" value="&lt;b&gt;被唤醒&lt;/b&gt;" style="text;html=1;strokeColor=#F0A30A;fillColor=#F0A30A;align=center;verticalAlign=middle;whiteSpace=wrap;rounded=1;shadow=1;fontFamily=Comic Sans MS;fontSize=18;fontColor=#000000;" vertex="1" parent="f8kTxvdTKU19W0bkNOM6-1">
          <mxGeometry x="-180" y="450" width="80" height="40" as="geometry" />
        </mxCell>
        <mxCell id="YzhHuyXCHmp-0Bh4Sb3p-14" value="&lt;b&gt;delay&amp;lt;=0;&lt;/b&gt;&lt;b&gt;已经到了任务时间&lt;/b&gt;" style="text;html=1;strokeColor=#1BA1E2;fillColor=#1ba1e2;align=center;verticalAlign=middle;whiteSpace=wrap;rounded=1;shadow=1;fontFamily=Comic Sans MS;fontSize=18;fontColor=#ffffff;" vertex="1" parent="f8kTxvdTKU19W0bkNOM6-1">
          <mxGeometry x="298.5" y="380" width="270" height="40" as="geometry" />
        </mxCell>
        <mxCell id="YzhHuyXCHmp-0Bh4Sb3p-15" value="&lt;b&gt;delay &amp;gt; 0 ;没到任务时间&lt;/b&gt;" style="text;html=1;strokeColor=#1BA1E2;fillColor=#1BA1E2;align=center;verticalAlign=middle;whiteSpace=wrap;rounded=1;shadow=1;fontFamily=Comic Sans MS;fontSize=18;fontColor=#ffffff;" vertex="1" parent="f8kTxvdTKU19W0bkNOM6-1">
          <mxGeometry x="730" y="380" width="240" height="40" as="geometry" />
        </mxCell>
        <mxCell id="YzhHuyXCHmp-0Bh4Sb3p-17" style="edgeStyle=orthogonalEdgeStyle;curved=1;rounded=1;orthogonalLoop=1;jettySize=auto;html=1;shadow=1;strokeColor=#3A5431;fontFamily=Comic Sans MS;fontSize=18;fillColor=#6d8764;entryX=0.5;entryY=0;entryDx=0;entryDy=0;" edge="1" parent="f8kTxvdTKU19W0bkNOM6-1" source="YzhHuyXCHmp-0Bh4Sb3p-16" target="YzhHuyXCHmp-0Bh4Sb3p-18">
          <mxGeometry relative="1" as="geometry">
            <mxPoint x="335" y="720" as="targetPoint" />
          </mxGeometry>
        </mxCell>
        <mxCell id="YzhHuyXCHmp-0Bh4Sb3p-16" value="&lt;b&gt;取出队列第一个任务&lt;/b&gt;" style="rounded=1;whiteSpace=wrap;html=1;shadow=1;strokeColor=#D5E8D4;fontFamily=Comic Sans MS;fontSize=18;fillColor=#D5E8D4;" vertex="1" parent="f8kTxvdTKU19W0bkNOM6-1">
          <mxGeometry x="240" y="540" width="190" height="60" as="geometry" />
        </mxCell>
        <mxCell id="YzhHuyXCHmp-0Bh4Sb3p-21" style="edgeStyle=orthogonalEdgeStyle;curved=1;rounded=1;orthogonalLoop=1;jettySize=auto;html=1;shadow=1;strokeColor=#3A5431;fontFamily=Comic Sans MS;fontSize=18;fillColor=#6d8764;entryX=0.5;entryY=0;entryDx=0;entryDy=0;" edge="1" parent="f8kTxvdTKU19W0bkNOM6-1" source="YzhHuyXCHmp-0Bh4Sb3p-18" target="YzhHuyXCHmp-0Bh4Sb3p-26">
          <mxGeometry relative="1" as="geometry">
            <mxPoint x="550" y="870" as="targetPoint" />
            <Array as="points">
              <mxPoint x="570" y="725" />
            </Array>
          </mxGeometry>
        </mxCell>
        <mxCell id="xr3NATH3k7YHfKKyt_dy-7" style="edgeStyle=orthogonalEdgeStyle;curved=1;rounded=1;orthogonalLoop=1;jettySize=auto;html=1;entryX=0.5;entryY=0;entryDx=0;entryDy=0;shadow=1;strokeColor=#3A5431;strokeWidth=2;fontFamily=Comic Sans MS;fontSize=18;fillColor=#6C8EBF;" edge="1" parent="f8kTxvdTKU19W0bkNOM6-1" source="YzhHuyXCHmp-0Bh4Sb3p-18" target="YzhHuyXCHmp-0Bh4Sb3p-23">
          <mxGeometry relative="1" as="geometry">
            <Array as="points">
              <mxPoint x="75" y="725" />
            </Array>
          </mxGeometry>
        </mxCell>
        <mxCell id="YzhHuyXCHmp-0Bh4Sb3p-18" value="&lt;b&gt;leader==null &amp;amp;&amp;amp; 队列中有任务&lt;/b&gt;" style="rhombus;whiteSpace=wrap;html=1;rounded=1;shadow=1;strokeColor=#D5E8D4;fontFamily=Comic Sans MS;fontSize=18;fillColor=#D5E8D4;" vertex="1" parent="f8kTxvdTKU19W0bkNOM6-1">
          <mxGeometry x="150" y="690" width="370" height="70" as="geometry" />
        </mxCell>
        <mxCell id="YzhHuyXCHmp-0Bh4Sb3p-20" value="true" style="text;html=1;strokeColor=#6D8764;fillColor=#6D8764;align=center;verticalAlign=middle;whiteSpace=wrap;rounded=1;shadow=1;fontFamily=Comic Sans MS;fontSize=18;fontColor=#ffffff;" vertex="1" parent="f8kTxvdTKU19W0bkNOM6-1">
          <mxGeometry x="180" y="660" width="60" height="30" as="geometry" />
        </mxCell>
        <mxCell id="YzhHuyXCHmp-0Bh4Sb3p-22" value="false" style="text;html=1;strokeColor=#6D8764;fillColor=#6D8764;align=center;verticalAlign=middle;whiteSpace=wrap;rounded=1;shadow=1;fontFamily=Comic Sans MS;fontSize=18;fontColor=#ffffff;" vertex="1" parent="f8kTxvdTKU19W0bkNOM6-1">
          <mxGeometry x="433" y="660" width="60" height="30" as="geometry" />
        </mxCell>
        <mxCell id="YzhHuyXCHmp-0Bh4Sb3p-27" style="edgeStyle=orthogonalEdgeStyle;curved=1;rounded=1;orthogonalLoop=1;jettySize=auto;html=1;shadow=1;strokeColor=#3A5431;fontFamily=Comic Sans MS;fontSize=18;fillColor=#6d8764;" edge="1" parent="f8kTxvdTKU19W0bkNOM6-1" source="YzhHuyXCHmp-0Bh4Sb3p-23" target="YzhHuyXCHmp-0Bh4Sb3p-26">
          <mxGeometry relative="1" as="geometry" />
        </mxCell>
        <mxCell id="YzhHuyXCHmp-0Bh4Sb3p-23" value="&lt;b&gt;将条件队列：available中的第一个任务线程添加到同步队列&lt;/b&gt;" style="rounded=1;whiteSpace=wrap;html=1;shadow=1;strokeColor=#6D8764;fontFamily=Comic Sans MS;fontSize=18;fillColor=#6D8764;" vertex="1" parent="f8kTxvdTKU19W0bkNOM6-1">
          <mxGeometry x="-90" y="870" width="330" height="60" as="geometry" />
        </mxCell>
        <mxCell id="YzhHuyXCHmp-0Bh4Sb3p-24" value="&lt;b&gt;阻塞线程，释放锁；将线程添加到条件队列：available&lt;/b&gt;" style="rounded=1;whiteSpace=wrap;html=1;shadow=1;strokeColor=#6D8764;fontFamily=Comic Sans MS;fontSize=18;fillColor=#6D8764;" vertex="1" parent="f8kTxvdTKU19W0bkNOM6-1">
          <mxGeometry x="-90" y="510" width="180" height="60" as="geometry" />
        </mxCell>
        <mxCell id="YzhHuyXCHmp-0Bh4Sb3p-28" style="edgeStyle=orthogonalEdgeStyle;curved=1;rounded=1;orthogonalLoop=1;jettySize=auto;html=1;shadow=1;strokeColor=#3A5431;fontFamily=Comic Sans MS;fontSize=18;fillColor=#6d8764;entryX=0.5;entryY=0;entryDx=0;entryDy=0;" edge="1" parent="f8kTxvdTKU19W0bkNOM6-1" source="YzhHuyXCHmp-0Bh4Sb3p-26" target="xr3NATH3k7YHfKKyt_dy-6">
          <mxGeometry relative="1" as="geometry">
            <mxPoint x="570" y="1040" as="targetPoint" />
          </mxGeometry>
        </mxCell>
        <mxCell id="YzhHuyXCHmp-0Bh4Sb3p-26" value="&lt;b&gt;释放锁&lt;/b&gt;" style="ellipse;whiteSpace=wrap;html=1;rounded=1;shadow=1;strokeColor=#C73500;fontFamily=Comic Sans MS;fontSize=18;fillColor=#fa6800;fontColor=#000000;" vertex="1" parent="f8kTxvdTKU19W0bkNOM6-1">
          <mxGeometry x="510" y="860" width="120" height="80" as="geometry" />
        </mxCell>
        <mxCell id="YzhHuyXCHmp-0Bh4Sb3p-32" style="edgeStyle=orthogonalEdgeStyle;curved=1;rounded=1;orthogonalLoop=1;jettySize=auto;html=1;entryX=0.5;entryY=0;entryDx=0;entryDy=0;shadow=1;strokeColor=#6C8EBF;fontFamily=Comic Sans MS;fontSize=18;fillColor=#6C8EBF;" edge="1" parent="f8kTxvdTKU19W0bkNOM6-1" source="YzhHuyXCHmp-0Bh4Sb3p-30" target="YzhHuyXCHmp-0Bh4Sb3p-31">
          <mxGeometry relative="1" as="geometry" />
        </mxCell>
        <mxCell id="YzhHuyXCHmp-0Bh4Sb3p-30" value="&lt;b&gt;start&lt;/b&gt;" style="ellipse;whiteSpace=wrap;html=1;rounded=1;shadow=1;strokeColor=#F5F5F5;fontFamily=Comic Sans MS;fontSize=18;fillColor=#F5F5F5;fontColor=#333333;" vertex="1" parent="f8kTxvdTKU19W0bkNOM6-1">
          <mxGeometry x="270" y="-190" width="106" height="80" as="geometry" />
        </mxCell>
        <mxCell id="YzhHuyXCHmp-0Bh4Sb3p-31" value="&lt;b&gt;获取锁&lt;/b&gt;" style="rounded=1;whiteSpace=wrap;html=1;shadow=1;strokeColor=#BD7000;fontFamily=Comic Sans MS;fontSize=18;fillColor=#f0a30a;fontColor=#000000;" vertex="1" parent="f8kTxvdTKU19W0bkNOM6-1">
          <mxGeometry x="263" width="120" height="60" as="geometry" />
        </mxCell>
        <mxCell id="YzhHuyXCHmp-0Bh4Sb3p-35" style="edgeStyle=orthogonalEdgeStyle;curved=1;rounded=1;orthogonalLoop=1;jettySize=auto;html=1;shadow=1;strokeColor=#314354;fontFamily=Comic Sans MS;fontSize=18;fillColor=#647687;entryX=0.5;entryY=0;entryDx=0;entryDy=0;" edge="1" parent="f8kTxvdTKU19W0bkNOM6-1" source="YzhHuyXCHmp-0Bh4Sb3p-33" target="YzhHuyXCHmp-0Bh4Sb3p-37">
          <mxGeometry relative="1" as="geometry">
            <mxPoint x="830" y="790" as="targetPoint" />
          </mxGeometry>
        </mxCell>
        <mxCell id="YzhHuyXCHmp-0Bh4Sb3p-39" style="edgeStyle=orthogonalEdgeStyle;curved=1;rounded=1;orthogonalLoop=1;jettySize=auto;html=1;shadow=1;strokeColor=#3A5431;fontFamily=Comic Sans MS;fontSize=18;fillColor=#6d8764;entryX=0.5;entryY=0;entryDx=0;entryDy=0;" edge="1" parent="f8kTxvdTKU19W0bkNOM6-1" source="YzhHuyXCHmp-0Bh4Sb3p-33" target="YzhHuyXCHmp-0Bh4Sb3p-41">
          <mxGeometry relative="1" as="geometry">
            <mxPoint x="1550" y="780" as="targetPoint" />
          </mxGeometry>
        </mxCell>
        <mxCell id="YzhHuyXCHmp-0Bh4Sb3p-33" value="&lt;b&gt;leader != null&lt;/b&gt;" style="rhombus;whiteSpace=wrap;html=1;rounded=1;shadow=1;strokeColor=#6D8764;fontFamily=Comic Sans MS;fontSize=18;fillColor=#6D8764;" vertex="1" parent="f8kTxvdTKU19W0bkNOM6-1">
          <mxGeometry x="990" y="590" width="366" height="80" as="geometry" />
        </mxCell>
        <mxCell id="YzhHuyXCHmp-0Bh4Sb3p-36" value="&lt;b&gt;true&lt;/b&gt;" style="text;html=1;strokeColor=none;fillColor=default;align=center;verticalAlign=middle;whiteSpace=wrap;rounded=1;shadow=1;fontFamily=Comic Sans MS;fontSize=18;" vertex="1" parent="f8kTxvdTKU19W0bkNOM6-1">
          <mxGeometry x="960" y="585" width="60" height="30" as="geometry" />
        </mxCell>
        <mxCell id="xr3NATH3k7YHfKKyt_dy-4" style="edgeStyle=orthogonalEdgeStyle;curved=1;rounded=1;orthogonalLoop=1;jettySize=auto;html=1;shadow=1;strokeColor=#990000;strokeWidth=3;fontFamily=Comic Sans MS;fontSize=18;fillColor=#6C8EBF;" edge="1" parent="f8kTxvdTKU19W0bkNOM6-1" source="YzhHuyXCHmp-0Bh4Sb3p-37">
          <mxGeometry relative="1" as="geometry">
            <mxPoint x="1781.60009765625" y="1010" as="targetPoint" />
            <Array as="points">
              <mxPoint x="840" y="1190" />
              <mxPoint x="1782" y="1190" />
            </Array>
          </mxGeometry>
        </mxCell>
        <mxCell id="YzhHuyXCHmp-0Bh4Sb3p-37" value="&lt;b&gt;将当前线程添加到条件队列中等待&lt;/b&gt;" style="rounded=1;whiteSpace=wrap;html=1;shadow=1;strokeColor=#6D8764;fontFamily=Comic Sans MS;fontSize=18;fillColor=#6D8764;fontColor=#ffffff;" vertex="1" parent="f8kTxvdTKU19W0bkNOM6-1">
          <mxGeometry x="690" y="910" width="280" height="60" as="geometry" />
        </mxCell>
        <mxCell id="YzhHuyXCHmp-0Bh4Sb3p-40" value="&lt;b&gt;false&lt;/b&gt;" style="text;html=1;strokeColor=none;fillColor=default;align=center;verticalAlign=middle;whiteSpace=wrap;rounded=1;shadow=1;fontFamily=Comic Sans MS;fontSize=18;" vertex="1" parent="f8kTxvdTKU19W0bkNOM6-1">
          <mxGeometry x="1296" y="585" width="60" height="30" as="geometry" />
        </mxCell>
        <mxCell id="YzhHuyXCHmp-0Bh4Sb3p-41" value="&lt;b&gt;将当前线程设置为leader，&lt;br&gt;&lt;/b&gt;&lt;b&gt;添加到条件队列available&lt;br&gt;限时等待时间：delay(纳秒)&lt;/b&gt;&lt;b&gt;&lt;br&gt;&lt;/b&gt;" style="rounded=1;whiteSpace=wrap;html=1;shadow=1;strokeColor=#6D8764;fontFamily=Comic Sans MS;fontSize=18;fillColor=#6D8764;fontColor=#ffffff;" vertex="1" parent="f8kTxvdTKU19W0bkNOM6-1">
          <mxGeometry x="1440" y="750" width="250" height="120" as="geometry" />
        </mxCell>
        <mxCell id="xr3NATH3k7YHfKKyt_dy-0" style="edgeStyle=orthogonalEdgeStyle;curved=1;rounded=1;orthogonalLoop=1;jettySize=auto;html=1;shadow=1;strokeColor=#3A5431;fontFamily=Comic Sans MS;fontSize=18;fillColor=#6d8764;exitX=0.5;exitY=1;exitDx=0;exitDy=0;entryX=0.5;entryY=0;entryDx=0;entryDy=0;" edge="1" parent="f8kTxvdTKU19W0bkNOM6-1" source="YzhHuyXCHmp-0Bh4Sb3p-41" target="xr3NATH3k7YHfKKyt_dy-2">
          <mxGeometry relative="1" as="geometry">
            <mxPoint x="1565" y="1050" as="targetPoint" />
            <mxPoint x="1565" y="940" as="sourcePoint" />
          </mxGeometry>
        </mxCell>
        <mxCell id="xr3NATH3k7YHfKKyt_dy-1" value="&lt;b&gt;超时恢复运行&lt;/b&gt;" style="text;html=1;strokeColor=#F0A30A;fillColor=#F0A30A;align=center;verticalAlign=middle;whiteSpace=wrap;rounded=1;shadow=1;fontFamily=Comic Sans MS;fontSize=18;fontColor=#000000;" vertex="1" parent="f8kTxvdTKU19W0bkNOM6-1">
          <mxGeometry x="1578" y="900" width="152" height="50" as="geometry" />
        </mxCell>
        <mxCell id="xr3NATH3k7YHfKKyt_dy-3" style="edgeStyle=orthogonalEdgeStyle;curved=1;rounded=1;orthogonalLoop=1;jettySize=auto;html=1;shadow=1;strokeColor=#990000;fontFamily=Comic Sans MS;fontSize=18;fillColor=#6C8EBF;strokeWidth=3;" edge="1" parent="f8kTxvdTKU19W0bkNOM6-1" source="xr3NATH3k7YHfKKyt_dy-2">
          <mxGeometry relative="1" as="geometry">
            <mxPoint x="338.800048828125" y="110" as="targetPoint" />
            <Array as="points">
              <mxPoint x="1940" y="1030" />
              <mxPoint x="1940" y="110" />
            </Array>
          </mxGeometry>
        </mxCell>
        <mxCell id="xr3NATH3k7YHfKKyt_dy-2" value="&lt;b&gt;设置leader=null&lt;/b&gt;" style="rounded=1;whiteSpace=wrap;html=1;shadow=1;strokeColor=#76608A;fontFamily=Comic Sans MS;fontSize=18;fillColor=#76608A;fontColor=#ffffff;" vertex="1" parent="f8kTxvdTKU19W0bkNOM6-1">
          <mxGeometry x="1470" y="1000" width="190" height="60" as="geometry" />
        </mxCell>
        <mxCell id="xr3NATH3k7YHfKKyt_dy-5" value="&lt;b&gt;被唤醒&lt;/b&gt;" style="text;html=1;strokeColor=#F0A30A;fillColor=#F0A30A;align=center;verticalAlign=middle;whiteSpace=wrap;rounded=1;shadow=1;fontFamily=Comic Sans MS;fontSize=18;fontColor=#000000;" vertex="1" parent="f8kTxvdTKU19W0bkNOM6-1">
          <mxGeometry x="888" y="1010" width="102" height="40" as="geometry" />
        </mxCell>
        <mxCell id="xr3NATH3k7YHfKKyt_dy-6" value="&lt;b&gt;返回队列中第一个任务&lt;/b&gt;" style="ellipse;whiteSpace=wrap;html=1;rounded=1;shadow=1;strokeColor=#005700;fontFamily=Comic Sans MS;fontSize=18;fillColor=#008a00;fontColor=#ffffff;" vertex="1" parent="f8kTxvdTKU19W0bkNOM6-1">
          <mxGeometry x="465" y="1150" width="210" height="80" as="geometry" />
        </mxCell>
      </root>
    </mxGraphModel>
  </diagram>
  <diagram name="DelayQueue -take-case1" id="PilDgCCoIzD696xDuEZY">
    <mxGraphModel dx="1864" dy="547" grid="1" gridSize="10" guides="1" tooltips="1" connect="1" arrows="1" fold="1" page="1" pageScale="1" pageWidth="827" pageHeight="1169" background="#EEEEEE" math="0" shadow="0">
      <root>
        <mxCell id="c_2tg7Wupf8AeVOD-AiS-0" />
        <mxCell id="c_2tg7Wupf8AeVOD-AiS-1" parent="c_2tg7Wupf8AeVOD-AiS-0" />
        <mxCell id="jBhU4sZojXAmSe9cbENw-12" value="" style="shape=flexArrow;endArrow=classic;html=1;rounded=1;fontFamily=Comic Sans MS;fontSize=18;curved=1;fillColor=#6C8EBF;strokeColor=#6C8EBF;shadow=1;" edge="1" parent="c_2tg7Wupf8AeVOD-AiS-1">
          <mxGeometry width="50" height="50" relative="1" as="geometry">
            <mxPoint x="400" y="310" as="sourcePoint" />
            <mxPoint x="400" y="490" as="targetPoint" />
          </mxGeometry>
        </mxCell>
        <mxCell id="jBhU4sZojXAmSe9cbENw-13" value="&lt;b&gt;不同时刻不同线程获取队列中的任务&lt;/b&gt;" style="rounded=1;whiteSpace=wrap;html=1;shadow=1;strokeColor=#E1D5E7;fontFamily=Comic Sans MS;fontSize=18;fillColor=#E1D5E7;" vertex="1" parent="c_2tg7Wupf8AeVOD-AiS-1">
          <mxGeometry x="450" y="340" width="170" height="60" as="geometry" />
        </mxCell>
        <mxCell id="jBhU4sZojXAmSe9cbENw-15" value="&lt;b&gt;15:00 &lt;font color=&quot;#ffff00&quot;&gt;T1&lt;/font&gt;线程获取任务&lt;/b&gt;" style="text;html=1;strokeColor=#6D8764;fillColor=#6D8764;align=center;verticalAlign=middle;whiteSpace=wrap;rounded=1;shadow=1;fontFamily=Comic Sans MS;fontSize=18;fontColor=#ffffff;" vertex="1" parent="c_2tg7Wupf8AeVOD-AiS-1">
          <mxGeometry x="-120" y="635" width="110" height="50" as="geometry" />
        </mxCell>
        <mxCell id="jBhU4sZojXAmSe9cbENw-0" value="" style="shape=table;startSize=0;container=1;collapsible=0;childLayout=tableLayout;shadow=1;fillColor=#f5f5f5;fontColor=#333333;strokeColor=#666666;" vertex="1" parent="c_2tg7Wupf8AeVOD-AiS-1">
          <mxGeometry x="50" y="170" width="855" height="120" as="geometry" />
        </mxCell>
        <mxCell id="jBhU4sZojXAmSe9cbENw-1" value="" style="shape=tableRow;horizontal=0;startSize=0;swimlaneHead=0;swimlaneBody=0;top=0;left=0;bottom=0;right=0;collapsible=0;dropTarget=0;fillColor=none;points=[[0,0.5],[1,0.5]];portConstraint=eastwest;" vertex="1" parent="jBhU4sZojXAmSe9cbENw-0">
          <mxGeometry width="855" height="120" as="geometry" />
        </mxCell>
        <mxCell id="jBhU4sZojXAmSe9cbENw-2" value="&lt;font style=&quot;font-size: 18px;&quot; face=&quot;Comic Sans MS&quot;&gt;&lt;b&gt;16：00&lt;br&gt;&lt;br&gt;task1&lt;/b&gt;&lt;/font&gt;" style="shape=partialRectangle;html=1;whiteSpace=wrap;connectable=0;overflow=hidden;fillColor=none;top=0;left=0;bottom=0;right=0;pointerEvents=1;" vertex="1" parent="jBhU4sZojXAmSe9cbENw-1">
          <mxGeometry width="107" height="120" as="geometry">
            <mxRectangle width="107" height="120" as="alternateBounds" />
          </mxGeometry>
        </mxCell>
        <mxCell id="jBhU4sZojXAmSe9cbENw-3" value="&lt;b style=&quot;font-family: &amp;quot;Comic Sans MS&amp;quot;; font-size: 18px;&quot;&gt;17：00&lt;br&gt;&lt;br&gt;task2&lt;/b&gt;" style="shape=partialRectangle;html=1;whiteSpace=wrap;connectable=0;overflow=hidden;fillColor=none;top=0;left=0;bottom=0;right=0;pointerEvents=1;" vertex="1" parent="jBhU4sZojXAmSe9cbENw-1">
          <mxGeometry x="107" width="106" height="120" as="geometry">
            <mxRectangle width="106" height="120" as="alternateBounds" />
          </mxGeometry>
        </mxCell>
        <mxCell id="jBhU4sZojXAmSe9cbENw-4" value="&lt;b style=&quot;font-family: &amp;quot;Comic Sans MS&amp;quot;; font-size: 18px;&quot;&gt;18：00&lt;br&gt;&lt;br&gt;task3&lt;/b&gt;" style="shape=partialRectangle;html=1;whiteSpace=wrap;connectable=0;overflow=hidden;fillColor=none;top=0;left=0;bottom=0;right=0;pointerEvents=1;" vertex="1" parent="jBhU4sZojXAmSe9cbENw-1">
          <mxGeometry x="213" width="107" height="120" as="geometry">
            <mxRectangle width="107" height="120" as="alternateBounds" />
          </mxGeometry>
        </mxCell>
        <mxCell id="jBhU4sZojXAmSe9cbENw-27" style="shape=partialRectangle;html=1;whiteSpace=wrap;connectable=0;overflow=hidden;fillColor=none;top=0;left=0;bottom=0;right=0;pointerEvents=1;" vertex="1" parent="jBhU4sZojXAmSe9cbENw-1">
          <mxGeometry x="320" width="107" height="120" as="geometry">
            <mxRectangle width="107" height="120" as="alternateBounds" />
          </mxGeometry>
        </mxCell>
        <mxCell id="jBhU4sZojXAmSe9cbENw-26" style="shape=partialRectangle;html=1;whiteSpace=wrap;connectable=0;overflow=hidden;fillColor=none;top=0;left=0;bottom=0;right=0;pointerEvents=1;" vertex="1" parent="jBhU4sZojXAmSe9cbENw-1">
          <mxGeometry x="427" width="107" height="120" as="geometry">
            <mxRectangle width="107" height="120" as="alternateBounds" />
          </mxGeometry>
        </mxCell>
        <mxCell id="jBhU4sZojXAmSe9cbENw-25" style="shape=partialRectangle;html=1;whiteSpace=wrap;connectable=0;overflow=hidden;fillColor=none;top=0;left=0;bottom=0;right=0;pointerEvents=1;" vertex="1" parent="jBhU4sZojXAmSe9cbENw-1">
          <mxGeometry x="534" width="107" height="120" as="geometry">
            <mxRectangle width="107" height="120" as="alternateBounds" />
          </mxGeometry>
        </mxCell>
        <mxCell id="jBhU4sZojXAmSe9cbENw-24" style="shape=partialRectangle;html=1;whiteSpace=wrap;connectable=0;overflow=hidden;fillColor=none;top=0;left=0;bottom=0;right=0;pointerEvents=1;" vertex="1" parent="jBhU4sZojXAmSe9cbENw-1">
          <mxGeometry x="641" width="107" height="120" as="geometry">
            <mxRectangle width="107" height="120" as="alternateBounds" />
          </mxGeometry>
        </mxCell>
        <mxCell id="jBhU4sZojXAmSe9cbENw-23" style="shape=partialRectangle;html=1;whiteSpace=wrap;connectable=0;overflow=hidden;fillColor=none;top=0;left=0;bottom=0;right=0;pointerEvents=1;" vertex="1" parent="jBhU4sZojXAmSe9cbENw-1">
          <mxGeometry x="748" width="107" height="120" as="geometry">
            <mxRectangle width="107" height="120" as="alternateBounds" />
          </mxGeometry>
        </mxCell>
        <mxCell id="jBhU4sZojXAmSe9cbENw-22" value="&lt;b&gt;PriorityQueue&lt;/b&gt;" style="text;html=1;strokeColor=#82B366;fillColor=#82B366;align=center;verticalAlign=middle;whiteSpace=wrap;rounded=1;shadow=1;fontFamily=Comic Sans MS;fontSize=18;" vertex="1" parent="c_2tg7Wupf8AeVOD-AiS-1">
          <mxGeometry x="-190" y="200" width="130" height="50" as="geometry" />
        </mxCell>
        <mxCell id="Be7yYKlmhiViPNPcbyr1-0" value="" style="shape=curlyBracket;whiteSpace=wrap;html=1;rounded=1;shadow=1;strokeColor=#3A5431;fontFamily=Comic Sans MS;fontSize=18;fillColor=#6d8764;fontColor=#ffffff;strokeWidth=4;" vertex="1" parent="c_2tg7Wupf8AeVOD-AiS-1">
          <mxGeometry x="50" y="545" width="20" height="285" as="geometry" />
        </mxCell>
        <mxCell id="Be7yYKlmhiViPNPcbyr1-1" value="&lt;b&gt;delay&amp;nbsp; =&amp;nbsp; &amp;nbsp;(16:00 -15:00)*3600*10&lt;sup&gt;9&amp;nbsp;&lt;/sup&gt;ns&lt;br&gt;&lt;br&gt;delay &amp;gt; 0没到执行任务时间，该线程被阻塞&lt;br&gt;&lt;/b&gt;" style="rounded=1;whiteSpace=wrap;html=1;shadow=1;strokeColor=#3A5431;strokeWidth=2;fontFamily=Comic Sans MS;fontSize=18;fillColor=#F0A30A;" vertex="1" parent="c_2tg7Wupf8AeVOD-AiS-1">
          <mxGeometry x="100" y="500" width="520" height="80" as="geometry" />
        </mxCell>
        <mxCell id="Be7yYKlmhiViPNPcbyr1-2" value="&lt;b&gt;此时leader=null，将T1设置成：leader = T1&lt;/b&gt;" style="rounded=1;whiteSpace=wrap;html=1;shadow=1;strokeColor=#3A5431;strokeWidth=1;fontFamily=Comic Sans MS;fontSize=18;fillColor=#F0A30A;" vertex="1" parent="c_2tg7Wupf8AeVOD-AiS-1">
          <mxGeometry x="100" y="600" width="530" height="90" as="geometry" />
        </mxCell>
        <mxCell id="Be7yYKlmhiViPNPcbyr1-4" value="" style="shape=table;startSize=0;container=1;collapsible=0;childLayout=tableLayout;rounded=1;shadow=1;strokeColor=#3A5431;strokeWidth=1;fontFamily=Comic Sans MS;fontSize=18;fillColor=#F0A30A;" vertex="1" parent="c_2tg7Wupf8AeVOD-AiS-1">
          <mxGeometry x="300" y="795" width="60" height="40" as="geometry" />
        </mxCell>
        <mxCell id="Be7yYKlmhiViPNPcbyr1-5" value="" style="shape=tableRow;horizontal=0;startSize=0;swimlaneHead=0;swimlaneBody=0;top=0;left=0;bottom=0;right=0;collapsible=0;dropTarget=0;fillColor=none;points=[[0,0.5],[1,0.5]];portConstraint=eastwest;rounded=1;shadow=1;strokeColor=#3A5431;strokeWidth=4;fontFamily=Comic Sans MS;fontSize=18;" vertex="1" parent="Be7yYKlmhiViPNPcbyr1-4">
          <mxGeometry width="60" height="40" as="geometry" />
        </mxCell>
        <mxCell id="Be7yYKlmhiViPNPcbyr1-6" value="&lt;b&gt;&lt;font style=&quot;font-size: 24px;&quot;&gt;T1&lt;/font&gt;&lt;/b&gt;" style="shape=partialRectangle;html=1;whiteSpace=wrap;connectable=0;overflow=hidden;fillColor=none;top=0;left=0;bottom=0;right=0;pointerEvents=1;rounded=1;shadow=1;strokeColor=#3A5431;strokeWidth=4;fontFamily=Comic Sans MS;fontSize=18;" vertex="1" parent="Be7yYKlmhiViPNPcbyr1-5">
          <mxGeometry width="60" height="40" as="geometry">
            <mxRectangle width="60" height="40" as="alternateBounds" />
          </mxGeometry>
        </mxCell>
        <mxCell id="Be7yYKlmhiViPNPcbyr1-7" value="&lt;b&gt;条件队列available&lt;/b&gt;" style="text;html=1;strokeColor=#76608A;fillColor=#76608A;align=center;verticalAlign=middle;whiteSpace=wrap;rounded=1;shadow=1;strokeWidth=1;fontFamily=Comic Sans MS;fontSize=18;fontColor=#ffffff;" vertex="1" parent="c_2tg7Wupf8AeVOD-AiS-1">
          <mxGeometry x="110" y="785" width="95" height="60" as="geometry" />
        </mxCell>
        <mxCell id="Be7yYKlmhiViPNPcbyr1-10" value="&lt;b&gt;15:30 &lt;font color=&quot;#ffff00&quot;&gt;T2&lt;/font&gt;线程获取任务&lt;/b&gt;" style="text;html=1;strokeColor=#6D8764;fillColor=#6D8764;align=center;verticalAlign=middle;whiteSpace=wrap;rounded=1;shadow=1;fontFamily=Comic Sans MS;fontSize=18;fontColor=#ffffff;" vertex="1" parent="c_2tg7Wupf8AeVOD-AiS-1">
          <mxGeometry x="-120" y="1095" width="110" height="50" as="geometry" />
        </mxCell>
        <mxCell id="Be7yYKlmhiViPNPcbyr1-11" value="" style="shape=curlyBracket;whiteSpace=wrap;html=1;rounded=1;shadow=1;strokeColor=#3A5431;fontFamily=Comic Sans MS;fontSize=18;fillColor=#6d8764;fontColor=#ffffff;strokeWidth=4;" vertex="1" parent="c_2tg7Wupf8AeVOD-AiS-1">
          <mxGeometry x="50" y="1005" width="20" height="250" as="geometry" />
        </mxCell>
        <mxCell id="Be7yYKlmhiViPNPcbyr1-12" value="&lt;b&gt;delay&amp;nbsp; =&amp;nbsp; &amp;nbsp;(16:00 -15:30)*3600*10&lt;sup&gt;9&amp;nbsp;&lt;/sup&gt;ns&lt;br&gt;&lt;br&gt;&lt;/b&gt;&lt;b&gt;delay &amp;gt; 0没到执行任务时间，该线程被阻塞&lt;/b&gt;&lt;b&gt;&lt;br&gt;&lt;/b&gt;" style="rounded=1;whiteSpace=wrap;html=1;shadow=1;strokeColor=#3A5431;strokeWidth=4;fontFamily=Comic Sans MS;fontSize=18;fillColor=#F0A30A;" vertex="1" parent="c_2tg7Wupf8AeVOD-AiS-1">
          <mxGeometry x="100" y="920" width="420" height="120" as="geometry" />
        </mxCell>
        <mxCell id="Be7yYKlmhiViPNPcbyr1-13" value="&lt;b&gt;此时：leader = T1，将T2放在条件队列中阻塞&lt;/b&gt;" style="rounded=1;whiteSpace=wrap;html=1;shadow=1;strokeColor=#3A5431;strokeWidth=4;fontFamily=Comic Sans MS;fontSize=18;fillColor=#F0A30A;" vertex="1" parent="c_2tg7Wupf8AeVOD-AiS-1">
          <mxGeometry x="100" y="1080" width="430" height="100" as="geometry" />
        </mxCell>
        <mxCell id="Be7yYKlmhiViPNPcbyr1-14" value="" style="shape=table;startSize=0;container=1;collapsible=0;childLayout=tableLayout;rounded=1;shadow=1;strokeColor=#3A5431;strokeWidth=1;fontFamily=Comic Sans MS;fontSize=18;fillColor=#F0A30A;" vertex="1" parent="c_2tg7Wupf8AeVOD-AiS-1">
          <mxGeometry x="300" y="1225" width="60" height="40" as="geometry" />
        </mxCell>
        <mxCell id="Be7yYKlmhiViPNPcbyr1-15" value="" style="shape=tableRow;horizontal=0;startSize=0;swimlaneHead=0;swimlaneBody=0;top=0;left=0;bottom=0;right=0;collapsible=0;dropTarget=0;fillColor=none;points=[[0,0.5],[1,0.5]];portConstraint=eastwest;rounded=1;shadow=1;strokeColor=#3A5431;strokeWidth=4;fontFamily=Comic Sans MS;fontSize=18;" vertex="1" parent="Be7yYKlmhiViPNPcbyr1-14">
          <mxGeometry width="60" height="40" as="geometry" />
        </mxCell>
        <mxCell id="Be7yYKlmhiViPNPcbyr1-16" value="&lt;b&gt;&lt;font style=&quot;font-size: 24px;&quot;&gt;T1&lt;/font&gt;&lt;/b&gt;" style="shape=partialRectangle;html=1;whiteSpace=wrap;connectable=0;overflow=hidden;fillColor=none;top=0;left=0;bottom=0;right=0;pointerEvents=1;rounded=1;shadow=1;strokeColor=#3A5431;strokeWidth=4;fontFamily=Comic Sans MS;fontSize=18;" vertex="1" parent="Be7yYKlmhiViPNPcbyr1-15">
          <mxGeometry width="60" height="40" as="geometry">
            <mxRectangle width="60" height="40" as="alternateBounds" />
          </mxGeometry>
        </mxCell>
        <mxCell id="Be7yYKlmhiViPNPcbyr1-17" value="&lt;b&gt;条件队列available&lt;/b&gt;" style="text;html=1;strokeColor=#76608A;fillColor=#76608A;align=center;verticalAlign=middle;whiteSpace=wrap;rounded=1;shadow=1;strokeWidth=1;fontFamily=Comic Sans MS;fontSize=18;fontColor=#ffffff;" vertex="1" parent="c_2tg7Wupf8AeVOD-AiS-1">
          <mxGeometry x="110" y="1215" width="95" height="60" as="geometry" />
        </mxCell>
        <mxCell id="Be7yYKlmhiViPNPcbyr1-18" style="edgeStyle=orthogonalEdgeStyle;curved=1;rounded=1;orthogonalLoop=1;jettySize=auto;html=1;shadow=1;strokeColor=#3A5431;strokeWidth=2;fontFamily=Comic Sans MS;fontSize=24;fillColor=#6C8EBF;" edge="1" parent="c_2tg7Wupf8AeVOD-AiS-1" source="Be7yYKlmhiViPNPcbyr1-15">
          <mxGeometry relative="1" as="geometry">
            <mxPoint x="440" y="1245" as="targetPoint" />
          </mxGeometry>
        </mxCell>
        <mxCell id="Be7yYKlmhiViPNPcbyr1-19" value="" style="shape=table;startSize=0;container=1;collapsible=0;childLayout=tableLayout;rounded=1;shadow=1;strokeColor=#3A5431;strokeWidth=1;fontFamily=Comic Sans MS;fontSize=18;fillColor=#F0A30A;" vertex="1" parent="c_2tg7Wupf8AeVOD-AiS-1">
          <mxGeometry x="440" y="1225" width="60" height="40" as="geometry" />
        </mxCell>
        <mxCell id="Be7yYKlmhiViPNPcbyr1-20" value="" style="shape=tableRow;horizontal=0;startSize=0;swimlaneHead=0;swimlaneBody=0;top=0;left=0;bottom=0;right=0;collapsible=0;dropTarget=0;fillColor=none;points=[[0,0.5],[1,0.5]];portConstraint=eastwest;rounded=1;shadow=1;strokeColor=#3A5431;strokeWidth=4;fontFamily=Comic Sans MS;fontSize=18;" vertex="1" parent="Be7yYKlmhiViPNPcbyr1-19">
          <mxGeometry width="60" height="40" as="geometry" />
        </mxCell>
        <mxCell id="Be7yYKlmhiViPNPcbyr1-21" value="&lt;b&gt;&lt;font style=&quot;font-size: 24px;&quot;&gt;T2&lt;/font&gt;&lt;/b&gt;" style="shape=partialRectangle;html=1;whiteSpace=wrap;connectable=0;overflow=hidden;fillColor=none;top=0;left=0;bottom=0;right=0;pointerEvents=1;rounded=1;shadow=1;strokeColor=#3A5431;strokeWidth=4;fontFamily=Comic Sans MS;fontSize=18;" vertex="1" parent="Be7yYKlmhiViPNPcbyr1-20">
          <mxGeometry width="60" height="40" as="geometry">
            <mxRectangle width="60" height="40" as="alternateBounds" />
          </mxGeometry>
        </mxCell>
        <mxCell id="Be7yYKlmhiViPNPcbyr1-22" value="&lt;font size=&quot;3&quot;&gt;&lt;b&gt;T1线程被阻塞时间：delay&lt;/b&gt;&lt;/font&gt;" style="shape=callout;whiteSpace=wrap;html=1;perimeter=calloutPerimeter;rounded=1;shadow=1;strokeColor=#D5E8D4;strokeWidth=1;fontFamily=Comic Sans MS;fontSize=24;fillColor=#D5E8D4;position2=0;" vertex="1" parent="c_2tg7Wupf8AeVOD-AiS-1">
          <mxGeometry x="350" y="710" width="270" height="80" as="geometry" />
        </mxCell>
      </root>
    </mxGraphModel>
  </diagram>
  <diagram name="DelayQueue -take-case1.2" id="ObP1J9Wav3WRkE-wERGn">
    <mxGraphModel dx="1864" dy="547" grid="1" gridSize="10" guides="1" tooltips="1" connect="1" arrows="1" fold="1" page="1" pageScale="1" pageWidth="827" pageHeight="1169" background="#EEEEEE" math="0" shadow="0">
      <root>
        <mxCell id="V_2Pigs6rD2oMdAuLY_u-0" />
        <mxCell id="V_2Pigs6rD2oMdAuLY_u-1" parent="V_2Pigs6rD2oMdAuLY_u-0" />
        <mxCell id="V_2Pigs6rD2oMdAuLY_u-11" value="" style="shape=table;startSize=0;container=1;collapsible=0;childLayout=tableLayout;shadow=1;fillColor=#f5f5f5;fontColor=#333333;strokeColor=#666666;" vertex="1" parent="V_2Pigs6rD2oMdAuLY_u-1">
          <mxGeometry x="50" y="170" width="855" height="120" as="geometry" />
        </mxCell>
        <mxCell id="V_2Pigs6rD2oMdAuLY_u-12" value="" style="shape=tableRow;horizontal=0;startSize=0;swimlaneHead=0;swimlaneBody=0;top=0;left=0;bottom=0;right=0;collapsible=0;dropTarget=0;fillColor=none;points=[[0,0.5],[1,0.5]];portConstraint=eastwest;" vertex="1" parent="V_2Pigs6rD2oMdAuLY_u-11">
          <mxGeometry width="855" height="120" as="geometry" />
        </mxCell>
        <mxCell id="V_2Pigs6rD2oMdAuLY_u-13" value="&lt;font style=&quot;font-size: 18px;&quot; face=&quot;Comic Sans MS&quot;&gt;&lt;b&gt;16：00&lt;br&gt;&lt;br&gt;task1&lt;/b&gt;&lt;/font&gt;" style="shape=partialRectangle;html=1;whiteSpace=wrap;connectable=0;overflow=hidden;fillColor=none;top=0;left=0;bottom=0;right=0;pointerEvents=1;" vertex="1" parent="V_2Pigs6rD2oMdAuLY_u-12">
          <mxGeometry width="107" height="120" as="geometry">
            <mxRectangle width="107" height="120" as="alternateBounds" />
          </mxGeometry>
        </mxCell>
        <mxCell id="V_2Pigs6rD2oMdAuLY_u-14" value="&lt;b style=&quot;font-family: &amp;quot;Comic Sans MS&amp;quot;; font-size: 18px;&quot;&gt;17：00&lt;br&gt;&lt;br&gt;task2&lt;/b&gt;" style="shape=partialRectangle;html=1;whiteSpace=wrap;connectable=0;overflow=hidden;fillColor=none;top=0;left=0;bottom=0;right=0;pointerEvents=1;" vertex="1" parent="V_2Pigs6rD2oMdAuLY_u-12">
          <mxGeometry x="107" width="106" height="120" as="geometry">
            <mxRectangle width="106" height="120" as="alternateBounds" />
          </mxGeometry>
        </mxCell>
        <mxCell id="V_2Pigs6rD2oMdAuLY_u-15" value="&lt;b style=&quot;font-family: &amp;quot;Comic Sans MS&amp;quot;; font-size: 18px;&quot;&gt;18：00&lt;br&gt;&lt;br&gt;task3&lt;/b&gt;" style="shape=partialRectangle;html=1;whiteSpace=wrap;connectable=0;overflow=hidden;fillColor=none;top=0;left=0;bottom=0;right=0;pointerEvents=1;" vertex="1" parent="V_2Pigs6rD2oMdAuLY_u-12">
          <mxGeometry x="213" width="107" height="120" as="geometry">
            <mxRectangle width="107" height="120" as="alternateBounds" />
          </mxGeometry>
        </mxCell>
        <mxCell id="V_2Pigs6rD2oMdAuLY_u-16" style="shape=partialRectangle;html=1;whiteSpace=wrap;connectable=0;overflow=hidden;fillColor=none;top=0;left=0;bottom=0;right=0;pointerEvents=1;" vertex="1" parent="V_2Pigs6rD2oMdAuLY_u-12">
          <mxGeometry x="320" width="107" height="120" as="geometry">
            <mxRectangle width="107" height="120" as="alternateBounds" />
          </mxGeometry>
        </mxCell>
        <mxCell id="V_2Pigs6rD2oMdAuLY_u-17" style="shape=partialRectangle;html=1;whiteSpace=wrap;connectable=0;overflow=hidden;fillColor=none;top=0;left=0;bottom=0;right=0;pointerEvents=1;" vertex="1" parent="V_2Pigs6rD2oMdAuLY_u-12">
          <mxGeometry x="427" width="107" height="120" as="geometry">
            <mxRectangle width="107" height="120" as="alternateBounds" />
          </mxGeometry>
        </mxCell>
        <mxCell id="V_2Pigs6rD2oMdAuLY_u-18" style="shape=partialRectangle;html=1;whiteSpace=wrap;connectable=0;overflow=hidden;fillColor=none;top=0;left=0;bottom=0;right=0;pointerEvents=1;" vertex="1" parent="V_2Pigs6rD2oMdAuLY_u-12">
          <mxGeometry x="534" width="107" height="120" as="geometry">
            <mxRectangle width="107" height="120" as="alternateBounds" />
          </mxGeometry>
        </mxCell>
        <mxCell id="V_2Pigs6rD2oMdAuLY_u-19" style="shape=partialRectangle;html=1;whiteSpace=wrap;connectable=0;overflow=hidden;fillColor=none;top=0;left=0;bottom=0;right=0;pointerEvents=1;" vertex="1" parent="V_2Pigs6rD2oMdAuLY_u-12">
          <mxGeometry x="641" width="107" height="120" as="geometry">
            <mxRectangle width="107" height="120" as="alternateBounds" />
          </mxGeometry>
        </mxCell>
        <mxCell id="V_2Pigs6rD2oMdAuLY_u-20" style="shape=partialRectangle;html=1;whiteSpace=wrap;connectable=0;overflow=hidden;fillColor=none;top=0;left=0;bottom=0;right=0;pointerEvents=1;" vertex="1" parent="V_2Pigs6rD2oMdAuLY_u-12">
          <mxGeometry x="748" width="107" height="120" as="geometry">
            <mxRectangle width="107" height="120" as="alternateBounds" />
          </mxGeometry>
        </mxCell>
        <mxCell id="V_2Pigs6rD2oMdAuLY_u-21" value="&lt;b&gt;PriorityQueue&lt;/b&gt;" style="text;html=1;strokeColor=#82B366;fillColor=#82B366;align=center;verticalAlign=middle;whiteSpace=wrap;rounded=1;shadow=1;fontFamily=Comic Sans MS;fontSize=18;" vertex="1" parent="V_2Pigs6rD2oMdAuLY_u-1">
          <mxGeometry x="-190" y="200" width="130" height="50" as="geometry" />
        </mxCell>
        <mxCell id="V_2Pigs6rD2oMdAuLY_u-30" value="" style="shape=curlyBracket;whiteSpace=wrap;html=1;rounded=1;shadow=1;strokeColor=#3A5431;fontFamily=Comic Sans MS;fontSize=18;fillColor=#6d8764;fontColor=#ffffff;strokeWidth=4;" vertex="1" parent="V_2Pigs6rD2oMdAuLY_u-1">
          <mxGeometry x="10" y="365" width="20" height="205" as="geometry" />
        </mxCell>
        <mxCell id="V_2Pigs6rD2oMdAuLY_u-32" value="&lt;b&gt;leader = T1&lt;/b&gt;" style="rounded=1;whiteSpace=wrap;html=1;shadow=1;strokeColor=#3A5431;strokeWidth=4;fontFamily=Comic Sans MS;fontSize=18;fillColor=#F0A30A;" vertex="1" parent="V_2Pigs6rD2oMdAuLY_u-1">
          <mxGeometry x="50" y="350" width="430" height="60" as="geometry" />
        </mxCell>
        <mxCell id="V_2Pigs6rD2oMdAuLY_u-33" value="" style="shape=table;startSize=0;container=1;collapsible=0;childLayout=tableLayout;rounded=1;shadow=1;strokeColor=#3A5431;strokeWidth=1;fontFamily=Comic Sans MS;fontSize=18;fillColor=#F0A30A;" vertex="1" parent="V_2Pigs6rD2oMdAuLY_u-1">
          <mxGeometry x="260" y="534.5" width="60" height="40" as="geometry" />
        </mxCell>
        <mxCell id="V_2Pigs6rD2oMdAuLY_u-34" value="" style="shape=tableRow;horizontal=0;startSize=0;swimlaneHead=0;swimlaneBody=0;top=0;left=0;bottom=0;right=0;collapsible=0;dropTarget=0;fillColor=none;points=[[0,0.5],[1,0.5]];portConstraint=eastwest;rounded=1;shadow=1;strokeColor=#3A5431;strokeWidth=4;fontFamily=Comic Sans MS;fontSize=18;" vertex="1" parent="V_2Pigs6rD2oMdAuLY_u-33">
          <mxGeometry width="60" height="40" as="geometry" />
        </mxCell>
        <mxCell id="V_2Pigs6rD2oMdAuLY_u-35" value="&lt;b&gt;&lt;font style=&quot;font-size: 24px;&quot;&gt;T1&lt;/font&gt;&lt;/b&gt;" style="shape=partialRectangle;html=1;whiteSpace=wrap;connectable=0;overflow=hidden;fillColor=none;top=0;left=0;bottom=0;right=0;pointerEvents=1;rounded=1;shadow=1;strokeColor=#3A5431;strokeWidth=4;fontFamily=Comic Sans MS;fontSize=18;" vertex="1" parent="V_2Pigs6rD2oMdAuLY_u-34">
          <mxGeometry width="60" height="40" as="geometry">
            <mxRectangle width="60" height="40" as="alternateBounds" />
          </mxGeometry>
        </mxCell>
        <mxCell id="V_2Pigs6rD2oMdAuLY_u-36" value="&lt;b&gt;条件队列available&lt;/b&gt;" style="text;html=1;strokeColor=#76608A;fillColor=#76608A;align=center;verticalAlign=middle;whiteSpace=wrap;rounded=1;shadow=1;strokeWidth=1;fontFamily=Comic Sans MS;fontSize=18;fontColor=#ffffff;" vertex="1" parent="V_2Pigs6rD2oMdAuLY_u-1">
          <mxGeometry x="70" y="524.5" width="95" height="60" as="geometry" />
        </mxCell>
        <mxCell id="V_2Pigs6rD2oMdAuLY_u-37" style="edgeStyle=orthogonalEdgeStyle;curved=1;rounded=1;orthogonalLoop=1;jettySize=auto;html=1;shadow=1;strokeColor=#3A5431;strokeWidth=2;fontFamily=Comic Sans MS;fontSize=24;fillColor=#6C8EBF;" edge="1" parent="V_2Pigs6rD2oMdAuLY_u-1" source="V_2Pigs6rD2oMdAuLY_u-34">
          <mxGeometry relative="1" as="geometry">
            <mxPoint x="400" y="554.5" as="targetPoint" />
          </mxGeometry>
        </mxCell>
        <mxCell id="V_2Pigs6rD2oMdAuLY_u-38" value="" style="shape=table;startSize=0;container=1;collapsible=0;childLayout=tableLayout;rounded=1;shadow=1;strokeColor=#3A5431;strokeWidth=1;fontFamily=Comic Sans MS;fontSize=18;fillColor=#F0A30A;" vertex="1" parent="V_2Pigs6rD2oMdAuLY_u-1">
          <mxGeometry x="400" y="534.5" width="60" height="40" as="geometry" />
        </mxCell>
        <mxCell id="V_2Pigs6rD2oMdAuLY_u-39" value="" style="shape=tableRow;horizontal=0;startSize=0;swimlaneHead=0;swimlaneBody=0;top=0;left=0;bottom=0;right=0;collapsible=0;dropTarget=0;fillColor=none;points=[[0,0.5],[1,0.5]];portConstraint=eastwest;rounded=1;shadow=1;strokeColor=#3A5431;strokeWidth=4;fontFamily=Comic Sans MS;fontSize=18;" vertex="1" parent="V_2Pigs6rD2oMdAuLY_u-38">
          <mxGeometry width="60" height="40" as="geometry" />
        </mxCell>
        <mxCell id="V_2Pigs6rD2oMdAuLY_u-40" value="&lt;b&gt;&lt;font style=&quot;font-size: 24px;&quot;&gt;T2&lt;/font&gt;&lt;/b&gt;" style="shape=partialRectangle;html=1;whiteSpace=wrap;connectable=0;overflow=hidden;fillColor=none;top=0;left=0;bottom=0;right=0;pointerEvents=1;rounded=1;shadow=1;strokeColor=#3A5431;strokeWidth=4;fontFamily=Comic Sans MS;fontSize=18;" vertex="1" parent="V_2Pigs6rD2oMdAuLY_u-39">
          <mxGeometry width="60" height="40" as="geometry">
            <mxRectangle width="60" height="40" as="alternateBounds" />
          </mxGeometry>
        </mxCell>
        <mxCell id="7e1Qrqx5zWJt8vmF6RrQ-0" value="&lt;b&gt;16:00 &lt;font color=&quot;#ffff00&quot;&gt;T1&lt;/font&gt;线程阻塞时间到，T1从available队列中出列恢复运行&lt;/b&gt;" style="text;html=1;strokeColor=#6D8764;fillColor=#6D8764;align=center;verticalAlign=middle;whiteSpace=wrap;rounded=1;shadow=1;fontFamily=Comic Sans MS;fontSize=18;fontColor=#ffffff;" vertex="1" parent="V_2Pigs6rD2oMdAuLY_u-1">
          <mxGeometry x="-10" y="650" width="900" height="90" as="geometry" />
        </mxCell>
        <mxCell id="keTVf_EfCdkeakZJo_fX-0" value="&lt;b&gt;16:00 &lt;font color=&quot;#ffff00&quot;&gt;T1&lt;/font&gt;线程阻塞时间到&lt;/b&gt;" style="text;html=1;strokeColor=#6D8764;fillColor=#6D8764;align=center;verticalAlign=middle;whiteSpace=wrap;rounded=1;shadow=1;fontFamily=Comic Sans MS;fontSize=18;fontColor=#ffffff;" vertex="1" parent="V_2Pigs6rD2oMdAuLY_u-1">
          <mxGeometry x="-190" y="890" width="150" height="71" as="geometry" />
        </mxCell>
        <mxCell id="keTVf_EfCdkeakZJo_fX-2" value="&lt;div style=&quot;text-align: left;&quot;&gt;&lt;b style=&quot;background-color: initial;&quot;&gt;delay&amp;nbsp; =&amp;nbsp; &amp;nbsp;(16:00 -16:00)*3600*10&lt;sup&gt;9&amp;nbsp;&lt;/sup&gt;ns&lt;/b&gt;&lt;/div&gt;&lt;div style=&quot;text-align: left;&quot;&gt;&lt;b&gt;&lt;br&gt;&lt;/b&gt;&lt;/div&gt;&lt;b&gt;&lt;div style=&quot;text-align: left;&quot;&gt;&lt;b style=&quot;background-color: initial;&quot;&gt;1.delay = 0执行任务时间到，取出第一个任务task1；&lt;/b&gt;&lt;/div&gt;&lt;div style=&quot;text-align: left;&quot;&gt;&lt;b style=&quot;background-color: initial;&quot;&gt;&lt;br&gt;&lt;/b&gt;&lt;/div&gt;&lt;div style=&quot;text-align: left;&quot;&gt;&lt;b style=&quot;text-align: center;&quot;&gt;2.重置leader，leader=null；&lt;/b&gt;&lt;b style=&quot;background-color: initial;&quot;&gt;&lt;br&gt;&lt;/b&gt;&lt;/div&gt;&lt;div style=&quot;text-align: left;&quot;&gt;&lt;b style=&quot;text-align: center;&quot;&gt;&lt;br&gt;&lt;/b&gt;&lt;/div&gt;&lt;div style=&quot;text-align: left;&quot;&gt;&lt;b style=&quot;text-align: center;&quot;&gt;3.此时priorityQueue中还有任务，唤醒available队列中等待获取任务的T2线程&lt;/b&gt;&lt;/div&gt;&lt;/b&gt;" style="rounded=1;whiteSpace=wrap;html=1;shadow=1;strokeColor=#3A5431;strokeWidth=2;fontFamily=Comic Sans MS;fontSize=18;fillColor=#F0A30A;" vertex="1" parent="V_2Pigs6rD2oMdAuLY_u-1">
          <mxGeometry y="837.5" width="640" height="176" as="geometry" />
        </mxCell>
        <mxCell id="lw-8j1LEKWpGX8wFWcYN-0" value="" style="shape=flexArrow;endArrow=classic;html=1;rounded=1;shadow=1;strokeColor=#3A5431;strokeWidth=2;fontFamily=Comic Sans MS;fontSize=18;fontColor=#FFFF00;fillColor=#6C8EBF;curved=1;" edge="1" parent="V_2Pigs6rD2oMdAuLY_u-1">
          <mxGeometry width="50" height="50" relative="1" as="geometry">
            <mxPoint x="340" y="1040" as="sourcePoint" />
            <mxPoint x="340" y="1170" as="targetPoint" />
          </mxGeometry>
        </mxCell>
        <mxCell id="lw-8j1LEKWpGX8wFWcYN-1" value="" style="shape=table;startSize=0;container=1;collapsible=0;childLayout=tableLayout;shadow=1;fillColor=#f5f5f5;fontColor=#333333;strokeColor=#666666;" vertex="1" parent="V_2Pigs6rD2oMdAuLY_u-1">
          <mxGeometry x="20" y="1240" width="748" height="120" as="geometry" />
        </mxCell>
        <mxCell id="lw-8j1LEKWpGX8wFWcYN-2" value="" style="shape=tableRow;horizontal=0;startSize=0;swimlaneHead=0;swimlaneBody=0;top=0;left=0;bottom=0;right=0;collapsible=0;dropTarget=0;fillColor=none;points=[[0,0.5],[1,0.5]];portConstraint=eastwest;" vertex="1" parent="lw-8j1LEKWpGX8wFWcYN-1">
          <mxGeometry width="748" height="120" as="geometry" />
        </mxCell>
        <mxCell id="lw-8j1LEKWpGX8wFWcYN-4" value="&lt;b style=&quot;font-family: &amp;quot;Comic Sans MS&amp;quot;; font-size: 18px;&quot;&gt;17：00&lt;br&gt;&lt;br&gt;task2&lt;/b&gt;" style="shape=partialRectangle;html=1;whiteSpace=wrap;connectable=0;overflow=hidden;fillColor=none;top=0;left=0;bottom=0;right=0;pointerEvents=1;" vertex="1" parent="lw-8j1LEKWpGX8wFWcYN-2">
          <mxGeometry width="106" height="120" as="geometry">
            <mxRectangle width="106" height="120" as="alternateBounds" />
          </mxGeometry>
        </mxCell>
        <mxCell id="lw-8j1LEKWpGX8wFWcYN-5" value="&lt;b style=&quot;font-family: &amp;quot;Comic Sans MS&amp;quot;; font-size: 18px;&quot;&gt;18：00&lt;br&gt;&lt;br&gt;task3&lt;/b&gt;" style="shape=partialRectangle;html=1;whiteSpace=wrap;connectable=0;overflow=hidden;fillColor=none;top=0;left=0;bottom=0;right=0;pointerEvents=1;" vertex="1" parent="lw-8j1LEKWpGX8wFWcYN-2">
          <mxGeometry x="106" width="107" height="120" as="geometry">
            <mxRectangle width="107" height="120" as="alternateBounds" />
          </mxGeometry>
        </mxCell>
        <mxCell id="lw-8j1LEKWpGX8wFWcYN-6" style="shape=partialRectangle;html=1;whiteSpace=wrap;connectable=0;overflow=hidden;fillColor=none;top=0;left=0;bottom=0;right=0;pointerEvents=1;" vertex="1" parent="lw-8j1LEKWpGX8wFWcYN-2">
          <mxGeometry x="213" width="107" height="120" as="geometry">
            <mxRectangle width="107" height="120" as="alternateBounds" />
          </mxGeometry>
        </mxCell>
        <mxCell id="lw-8j1LEKWpGX8wFWcYN-7" style="shape=partialRectangle;html=1;whiteSpace=wrap;connectable=0;overflow=hidden;fillColor=none;top=0;left=0;bottom=0;right=0;pointerEvents=1;" vertex="1" parent="lw-8j1LEKWpGX8wFWcYN-2">
          <mxGeometry x="320" width="107" height="120" as="geometry">
            <mxRectangle width="107" height="120" as="alternateBounds" />
          </mxGeometry>
        </mxCell>
        <mxCell id="lw-8j1LEKWpGX8wFWcYN-8" style="shape=partialRectangle;html=1;whiteSpace=wrap;connectable=0;overflow=hidden;fillColor=none;top=0;left=0;bottom=0;right=0;pointerEvents=1;" vertex="1" parent="lw-8j1LEKWpGX8wFWcYN-2">
          <mxGeometry x="427" width="107" height="120" as="geometry">
            <mxRectangle width="107" height="120" as="alternateBounds" />
          </mxGeometry>
        </mxCell>
        <mxCell id="lw-8j1LEKWpGX8wFWcYN-9" style="shape=partialRectangle;html=1;whiteSpace=wrap;connectable=0;overflow=hidden;fillColor=none;top=0;left=0;bottom=0;right=0;pointerEvents=1;" vertex="1" parent="lw-8j1LEKWpGX8wFWcYN-2">
          <mxGeometry x="534" width="107" height="120" as="geometry">
            <mxRectangle width="107" height="120" as="alternateBounds" />
          </mxGeometry>
        </mxCell>
        <mxCell id="lw-8j1LEKWpGX8wFWcYN-10" style="shape=partialRectangle;html=1;whiteSpace=wrap;connectable=0;overflow=hidden;fillColor=none;top=0;left=0;bottom=0;right=0;pointerEvents=1;" vertex="1" parent="lw-8j1LEKWpGX8wFWcYN-2">
          <mxGeometry x="641" width="107" height="120" as="geometry">
            <mxRectangle width="107" height="120" as="alternateBounds" />
          </mxGeometry>
        </mxCell>
        <mxCell id="lw-8j1LEKWpGX8wFWcYN-11" value="&lt;b&gt;PriorityQueue&lt;/b&gt;" style="text;html=1;strokeColor=#82B366;fillColor=#82B366;align=center;verticalAlign=middle;whiteSpace=wrap;rounded=1;shadow=1;fontFamily=Comic Sans MS;fontSize=18;" vertex="1" parent="V_2Pigs6rD2oMdAuLY_u-1">
          <mxGeometry x="-220" y="1270" width="130" height="50" as="geometry" />
        </mxCell>
        <mxCell id="MZPp_qXnvM40EYe39Z0Q-0" value="&lt;b&gt;16:00 &lt;font color=&quot;#ffff00&quot;&gt;T2&lt;/font&gt;线程被T1唤醒；继续获取队列中第一个任务&lt;/b&gt;" style="text;html=1;strokeColor=#6D8764;fillColor=#6D8764;align=center;verticalAlign=middle;whiteSpace=wrap;rounded=1;shadow=1;fontFamily=Comic Sans MS;fontSize=18;fontColor=#ffffff;" vertex="1" parent="V_2Pigs6rD2oMdAuLY_u-1">
          <mxGeometry x="-330" y="1610" width="230" height="75" as="geometry" />
        </mxCell>
        <mxCell id="MZPp_qXnvM40EYe39Z0Q-1" value="" style="shape=curlyBracket;whiteSpace=wrap;html=1;rounded=1;shadow=1;strokeColor=#3A5431;fontFamily=Comic Sans MS;fontSize=18;fillColor=#6d8764;fontColor=#ffffff;strokeWidth=4;" vertex="1" parent="V_2Pigs6rD2oMdAuLY_u-1">
          <mxGeometry x="-60" y="1505" width="20" height="285" as="geometry" />
        </mxCell>
        <mxCell id="MZPp_qXnvM40EYe39Z0Q-2" value="&lt;b&gt;delay&amp;nbsp; =&amp;nbsp; &amp;nbsp;(&lt;font color=&quot;#0e2666&quot;&gt;17:00 -16:00&lt;/font&gt;)*3600*10&lt;sup&gt;9&amp;nbsp;&lt;/sup&gt;ns&lt;br&gt;&lt;br&gt;delay &amp;gt; 0没到执行任务时间，该线程被阻塞&lt;br&gt;&lt;/b&gt;" style="rounded=1;whiteSpace=wrap;html=1;shadow=1;strokeColor=#3A5431;strokeWidth=2;fontFamily=Comic Sans MS;fontSize=18;fillColor=#F0A30A;" vertex="1" parent="V_2Pigs6rD2oMdAuLY_u-1">
          <mxGeometry x="-10" y="1460" width="520" height="80" as="geometry" />
        </mxCell>
        <mxCell id="MZPp_qXnvM40EYe39Z0Q-3" value="&lt;b&gt;此时leader=null，将T1设置成：leader = &lt;font color=&quot;#0e2666&quot;&gt;T2&lt;/font&gt;&lt;/b&gt;" style="rounded=1;whiteSpace=wrap;html=1;shadow=1;strokeColor=#3A5431;strokeWidth=1;fontFamily=Comic Sans MS;fontSize=18;fillColor=#F0A30A;" vertex="1" parent="V_2Pigs6rD2oMdAuLY_u-1">
          <mxGeometry x="-10" y="1560" width="530" height="90" as="geometry" />
        </mxCell>
        <mxCell id="MZPp_qXnvM40EYe39Z0Q-4" value="" style="shape=table;startSize=0;container=1;collapsible=0;childLayout=tableLayout;rounded=1;shadow=1;strokeColor=#3A5431;strokeWidth=1;fontFamily=Comic Sans MS;fontSize=18;fillColor=#F0A30A;" vertex="1" parent="V_2Pigs6rD2oMdAuLY_u-1">
          <mxGeometry x="190" y="1755" width="60" height="40" as="geometry" />
        </mxCell>
        <mxCell id="MZPp_qXnvM40EYe39Z0Q-5" value="" style="shape=tableRow;horizontal=0;startSize=0;swimlaneHead=0;swimlaneBody=0;top=0;left=0;bottom=0;right=0;collapsible=0;dropTarget=0;fillColor=none;points=[[0,0.5],[1,0.5]];portConstraint=eastwest;rounded=1;shadow=1;strokeColor=#3A5431;strokeWidth=4;fontFamily=Comic Sans MS;fontSize=18;" vertex="1" parent="MZPp_qXnvM40EYe39Z0Q-4">
          <mxGeometry width="60" height="40" as="geometry" />
        </mxCell>
        <mxCell id="MZPp_qXnvM40EYe39Z0Q-6" value="&lt;b&gt;&lt;font style=&quot;font-size: 24px;&quot;&gt;T2&lt;/font&gt;&lt;/b&gt;" style="shape=partialRectangle;html=1;whiteSpace=wrap;connectable=0;overflow=hidden;fillColor=none;top=0;left=0;bottom=0;right=0;pointerEvents=1;rounded=1;shadow=1;strokeColor=#3A5431;strokeWidth=4;fontFamily=Comic Sans MS;fontSize=18;" vertex="1" parent="MZPp_qXnvM40EYe39Z0Q-5">
          <mxGeometry width="60" height="40" as="geometry">
            <mxRectangle width="60" height="40" as="alternateBounds" />
          </mxGeometry>
        </mxCell>
        <mxCell id="MZPp_qXnvM40EYe39Z0Q-7" value="&lt;b&gt;条件队列available&lt;/b&gt;" style="text;html=1;strokeColor=#76608A;fillColor=#76608A;align=center;verticalAlign=middle;whiteSpace=wrap;rounded=1;shadow=1;strokeWidth=1;fontFamily=Comic Sans MS;fontSize=18;fontColor=#ffffff;" vertex="1" parent="V_2Pigs6rD2oMdAuLY_u-1">
          <mxGeometry y="1745" width="95" height="60" as="geometry" />
        </mxCell>
        <mxCell id="MZPp_qXnvM40EYe39Z0Q-8" value="&lt;font size=&quot;3&quot;&gt;&lt;b&gt;T2线程被阻塞时间：delay&lt;/b&gt;&lt;/font&gt;" style="shape=callout;whiteSpace=wrap;html=1;perimeter=calloutPerimeter;rounded=1;shadow=1;strokeColor=#D5E8D4;strokeWidth=1;fontFamily=Comic Sans MS;fontSize=24;fillColor=#D5E8D4;position2=0;" vertex="1" parent="V_2Pigs6rD2oMdAuLY_u-1">
          <mxGeometry x="240" y="1670" width="270" height="80" as="geometry" />
        </mxCell>
      </root>
    </mxGraphModel>
  </diagram>
</mxfile>
